<?xml version="1.0" encoding="UTF-8"?>
<svg width="100pt" height="100pt" version="1.1" viewBox="0 0 100 100" xmlns="http://www.w3.org/2000/svg">
 <g>
  <path d="m88.805 56.094c-0.082032-0.38672-0.5-0.46484-0.78906-0.30859 0.33594-0.89062-0.097656-2.0703-1.293-1.9766-1.4375 0.11328-1.3984-0.44141-1.5703-1.7578-0.13281-1-0.21484-1.9844-0.41016-2.9766-0.42969-2.1484-1.1523-4.2461-2.125-6.207-0.86719-1.7461-1.9844-3.4453-3.4141-4.7852-0.66797-0.62891-1.3906-1.043-2.125-1.5742-1.0508-0.75781-1.1758-1.6406-1.4883-2.8438-0.79688-3.0664-1.6953-4.875-5.1797-4.4102-1.5664 0.20703-3.1094 0.66016-4.6289 1.0898-0.64062 0.17969-1.2422 0.14844-1.8633 0.10156 0.625-2.0078 0.94141-4.1094 0.94141-6.207 0-9.5625-6.5625-19.238-19.105-19.238-12.539 0-19.105 9.6836-19.105 19.25 0 2.8945 0.60547 5.793 1.793 8.4375-6.6914 3.2305-12.273 8.1484-15.602 14.961-3.5195 7.1953-3.8086 15.43-0.98828 22.902 1.2734 3.3711 3.0742 6.5312 5.4336 9.2656 1.1562 1.3398 2.4453 2.5547 3.8594 3.625 1.5195 1.1523 3.6797 1.9023 4.3359 3.8125 0.62109 1.8125-0.13672 5.4844 1.6328 6.7305 1.4219 1.0039 4.1758 0.82031 5.8164 0.88281 1.6719 0.066406 4.5977 0.46484 6.0742-0.60156 1.625-1.1719 1.3398-4.2656 1.4062-6.0117 0.003906-0.042968 0.019532-0.29688 0.035156-0.57422 0.097657-0.011719 0.16016-0.023438 0.11719-0.027344 1.2461 0.16797 2.7891-0.1875 4.0508-0.24609 1.625-0.074219 3.2539-0.16797 4.8828-0.1875 0.65625-0.007812 1.4727 0.16406 2.1133 0.046875 0.003906 0 0.003906-0.007813 0.007813-0.011719 0.011718 0.11328 0.023437 0.22266 0.035156 0.30859 0.33984 1.9219 0.44531 5.1289 2.1602 6.4258 1.6758 1.2656 4.8359 0.82422 6.7461 0.60547 2.0625-0.23438 4.4141-0.55859 5.1719-2.7734 0.69531-2.0234 0.21875-4.1719 0.44531-6.2266 0.4375 0.035156 1.4609-0.35156 1.7383-0.41406 1.2227-0.26563 2.4375-0.5625 3.6328-0.93359 2-0.62109 3.9844-1.4023 5.7617-2.5234 1.6914-1.0664 3.2656-2.3711 4.5977-3.8594 0.76953-0.85938 1.4883-1.7852 2.1172-2.7539 0.58984-0.90625 1.0234-2.3672 2.25-2.5742 1.2188-0.20312 2.0938 0.75 3.0781-0.52344 0.73047-0.94531 0.63281-2.5508 0.67578-3.6758 0.15625-4.1641-0.37109-8.1719-1.2227-12.242zm-43.051-47.238c10.477 0 15.25 7.9688 15.25 15.375 0 4.0664-1.3555 7.8438-3.8164 10.637-2.7461 3.1133-6.6992 4.7617-11.434 4.7617-10.477 0-15.25-7.9688-15.25-15.375 0-7.418 4.7734-15.398 15.25-15.398zm40.91 60.809c-0.61719-0.14062-1.3594-0.039062-1.9531 0.14844-1.1758 0.37109-1.7695 1.1172-2.3398 2.1406-1 1.7969-2.125 3.4258-3.6094 4.8672-2.8125 2.7305-6.2852 4.1914-10.043 5.1445-2.0664 0.52344-5.082 0.20703-5.3711 2.8008-0.16797 1.5312 0.625 5.0625-0.4375 6.2773-1.0547 1.207-4.9961 0.85156-6.4922 0.74609-1.0312-0.070312-0.9375-0.21484-1.2305-1.2461-0.33203-1.1602-0.48438-2.3672-0.71875-3.5508-0.45703-2.3086-1.5938-2.5312-3.8711-2.3281-2.8203 0.25391-5.6719 0.23438-8.5 0.42188-1.1562 0.074218-3.2852-0.14453-3.9297 1.082-0.81641 1.5625 0.09375 3.8789-0.50391 5.5547-0.20312 0.57812 0.1875 0.26562-0.30469 0.53906-0.32812 0.18359-0.92578 0.10547-1.2891 0.125-1.2188 0.0625-2.4453 0.023437-3.6602-0.046875-1.0117-0.058594-2.0391-0.12109-3.0391-0.30078-0.14844-0.027343-0.44141-0.050781-0.67188-0.10547 0.10156-0.0625-0.078125-0.48047-0.125-0.90234-0.25781-2.2773-0.20703-4.9766-1.8555-6.7812-1.0195-1.1172-2.5-1.75-3.7031-2.6367-1.5273-1.125-2.8984-2.4766-4.1016-3.9375-5.3711-6.5352-7.6367-15.684-5.3828-23.879 2.3477-8.5234 8.418-14.926 16.273-18.582 0.57031 0.88672 1.2227 1.7227 1.9453 2.5039-0.34375 0.066406-0.65625 0.17578-0.90625 0.35156-1.0469 0.74609-0.83594 3.3086-0.50781 4.3711 0.49609 1.6094 2.7422 1.25 4.1328 1.2852 7.2578 0.1875 14.566 0.035157 21.82-0.23828 1.957-0.074219 4.5898 0.26562 6.4844-0.34375 0.46484-0.14844 0.94531-0.52734 1.0391-1.0391 0.23438-1.3125 0.53516-3.6992-0.23047-4.8594-0.55078-0.83594-1.5469-1.0391-2.5938-1.0273 0.80078-1.0781 1.4766-2.2344 2.0312-3.4492 1.9375 0.96875 3.8242 0.32812 6.2852-0.29297 0.62109-0.15625 1.6992-0.59375 2.3398-0.40234 0.73047 0.21875 0.70312 0.69531 0.92969 1.5195 0.46094 1.6836 1.0508 3.3711 2.4609 4.5156 1.8242 1.4766 3.3008 2.418 4.5273 4.5508 1.2031 2.0938 2.0195 4.4375 2.4492 6.8125 0.59766 3.3203 0.15234 7.4961 4.707 7.2539 0.44531-0.023437 0.78125-0.21094 1.0156-0.48047 0.050781 3.4297-0.15625 6.875-0.31641 10.301-0.039063 0.84375-0.4375 2.2266-0.38281 3.168-0.15234-0.019532-0.30469-0.035156-0.37109-0.050782zm0.80859 0.15234c0.03125 0 0.066406 0.011719 0.10938 0.046875-0.019531-0.019531-0.066406-0.035156-0.10938-0.046875z"/>
  <path d="m73.133 45.727c-0.34766 0.12109-0.58203 0.42969-0.65625 0.76172-0.39844 0.007813-0.78906 0.125-1.1562 0.41797-0.72656 0.58984-1.0234 1.6016-1.1719 2.4883-0.44531 2.6484 1.8281 4.4688 4.3516 4.2773 2.4414-0.18359 4.1758-2.3086 3.8633-4.7422-0.33203-2.5586-2.8281-4.0352-5.2305-3.2031zm-1.0195 3.6523c0.51953-0.35547 1.0234-0.72656 1.5156-1.1211 0.019532-0.015624 0.035156-0.027343 0.054688-0.042968-0.070313 0.074218-0.14062 0.14844-0.21094 0.21484-0.42188 0.40625-0.84375 0.80859-1.2617 1.2148-0.035157-0.089843-0.066407-0.17578-0.097657-0.26562zm0.69531 1.0273c0.44531-0.43359 0.89062-0.87109 1.3398-1.3047 0.24219-0.23828 0.53906-0.48047 0.80469-0.74219 0.015625 0.007813 0.03125 0.011719 0.042969 0.019531-0.66016 0.72656-1.3203 1.4492-1.9883 2.1719-0.070312-0.042969-0.13672-0.09375-0.19922-0.14453z"/>
  <path d="m45.754 38.496c4.3477 0 8.0195-1.5586 10.617-4.5078 2.2812-2.5898 3.5391-6.0547 3.5391-9.7539 0-7.0781-4.8633-14.246-14.16-14.246-4.3477 0-8.0195 1.5586-10.617 4.5078-2.2812 2.5898-3.5391 6.0547-3.5391 9.7539 0.003906 7.0781 4.8672 14.246 14.16 14.246zm0-24.656c7.0781 0 10.305 5.3867 10.305 10.391 0 4.7305-2.8711 9.793-9.1406 10.352 0.046875-0.085937 0.09375-0.17578 0.11328-0.28125 0.082031-0.48047 0.10547-0.91016 0.078125-1.3867 1.9648-0.35156 3.9219-1.3008 4.6367-3.2656 1.0469-2.8594-1.3008-5.3242-3.7422-6.3555-1.4688-0.62109-5.2695-1.0352-4.0469-3.5078 1.043-2.1055 4.0273-0.96094 5.6289-0.34375 0.49609 0.19141 1.0312-0.38672 0.87109-0.87109-0.57422-1.6992-1.9297-2.5703-3.4531-2.793-0.050781-0.21094-0.10938-0.41406-0.17188-0.60938-0.16406-0.53125-0.66016-1.2891-1.3125-0.96875-0.51953 0.25391-0.61719 0.91016-0.68359 1.4219-0.011719 0.085937-0.019532 0.17578-0.03125 0.26562-2.1641 0.51172-4.1133 2.1562-4.2188 4.5547-0.10938 2.4961 1.6641 4.3555 3.9062 5.1094 1.2969 0.43359 6.0742 1.7812 3.5547 3.7344-0.51172 0.39844-1.4375 0.52344-2.0781 0.58203-1.5625 0.14062-2.2812-0.46484-2.7305-2.0234-0.55859-1.9375-3.2812-1.0977-2.9609 0.81641 0.4375 2.6445 2.0391 4.1328 4.4258 4.3789-0.015625 0.42578 0.003906 0.83203 0.078125 1.2656 0.019531 0.11328 0.066406 0.20703 0.11719 0.29687-6.4727-0.42578-9.4414-5.5547-9.4414-10.352-0.003906-5.0156 3.2188-10.41 10.297-10.41z"/>
 </g>
</svg>
