<?xml version="1.0" encoding="UTF-8"?>
<svg width="100pt" height="100pt" version="1.1" viewBox="0 0 100 100" xmlns="http://www.w3.org/2000/svg">
 <g>
  <path d="m83.953 46.484c2.3125-1.7656 3.7969-4.5312 3.7969-7.6406 0-5.3125-4.3125-9.625-9.625-9.625s-9.625 4.3125-9.625 9.625c0 3.1094 1.5 5.875 3.7969 7.6406-0.82812 0.32812-1.625 0.73438-2.3906 1.2188-2.25-1.3125-4.8438-2.0781-7.625-2.0781-0.15625 0-0.29688 0.015625-0.45312 0.015625-1.5156-1.0469-3.1562-1.8594-4.8594-2.4531 3.4375-2.2188 5.7344-6.0781 5.7344-10.469 0-6.8594-5.5938-12.453-12.453-12.453s-12.453 5.5781-12.453 12.453c0 4.3906 2.2969 8.25 5.75 10.469-4.0469 1.4062-7.5156 4.0312-9.9688 7.4531-1.6094-1.8438-3.625-3.2656-5.8594-4.1719 2.2969-1.7656 3.7812-4.5312 3.7812-7.6406 0-5.3125-4.3125-9.625-9.625-9.625s-9.625 4.3125-9.625 9.625c0 3.125 1.5 5.8906 3.7969 7.6406-5.7344 2.3281-9.7969 7.9375-9.7969 14.484 0 0.85938 0.70312 1.5625 1.5625 1.5625s1.5625-0.70312 1.5625-1.5625c0-6.8906 5.6094-12.484 12.5-12.484 3.9844 0 7.6406 1.875 9.9688 5.0312-1.3594 2.75-2.1562 5.8281-2.1562 9.0938 0 0.85938 0.70312 1.5625 1.5625 1.5625s1.5625-0.70312 1.5625-1.5625c0-9.6094 7.8125-17.422 17.422-17.422 2.375 0 4.6875 0.48438 6.8125 1.3906-5.7969 2.1406-9.9531 7.7031-9.9531 14.234 0 8.375 6.8125 15.172 15.172 15.172s15.172-6.8125 15.172-15.172c0-4.3594-1.8594-8.2812-4.8125-11.047 1.6875-0.82812 3.5469-1.2812 5.4844-1.2812 6.8906 0 12.484 5.5938 12.484 12.484 0 0.85938 0.70312 1.5625 1.5625 1.5625s1.5625-0.70312 1.5625-1.5625c0.03125-6.5469-4.0312-12.156-9.7656-14.469zm-62.078-14.156c3.5781 0 6.5 2.9219 6.5 6.5s-2.9219 6.5-6.5 6.5-6.5-2.9219-6.5-6.5 2.9219-6.5 6.5-6.5zm19.047 0.39062c0-5.1406 4.1875-9.3281 9.3281-9.3281s9.3281 4.1875 9.3281 9.3281-4.1875 9.3281-9.3281 9.3281-9.3281-4.1875-9.3281-9.3281zm33.406 28.078c0 6.6406-5.4062 12.047-12.047 12.047s-12.047-5.4062-12.047-12.047 5.4062-12.047 12.047-12.047 12.047 5.4062 12.047 12.047zm3.7969-28.469c3.5781 0 6.5 2.9219 6.5 6.5s-2.9219 6.5-6.5 6.5-6.5-2.9219-6.5-6.5 2.9219-6.5 6.5-6.5z"/>
  <path d="m63.844 52.016c0-0.85938-0.70312-1.5625-1.5625-1.5625s-1.5625 0.70312-1.5625 1.5625v7.2188h-7.2188c-0.85938 0-1.5625 0.70312-1.5625 1.5625s0.70312 1.5625 1.5625 1.5625h7.2188v7.2188c0 0.85938 0.70312 1.5625 1.5625 1.5625s1.5625-0.70312 1.5625-1.5625v-7.2188h7.2188c0.85938 0 1.5625-0.70312 1.5625-1.5625s-0.70312-1.5625-1.5625-1.5625h-7.2188z"/>
 </g>
</svg>
