<?xml version="1.0" encoding="UTF-8"?>
<svg width="100pt" height="100pt" version="1.1" viewBox="0 0 100 100" xmlns="http://www.w3.org/2000/svg">
 <g>
  <path d="m9.082 73.52h21.395c0.19531-1 0.42578-1.9883 0.73828-2.9414l-22.133-0.003906c-0.31641 0-0.55859-0.21484-0.70703-0.39062-0.37109-0.44922-0.51562-1.1055-0.38672-1.7539 2.0391-10.34 10.215-17.848 19.438-17.848 3.375 0 6.5508 0.98828 9.3398 2.6992-0.003906-0.16797-0.027344-0.33203-0.027344-0.5 0-0.94922 0.089844-1.8711 0.24609-2.7734-1.7227-0.89844-3.5547-1.5586-5.4766-1.9492 4.9727-1.9219 8.5547-7.2383 8.5547-13.516 0-7.8945-5.6562-14.293-12.633-14.293-6.9766 0-12.633 6.3984-12.633 14.293 0 6.2734 3.5781 11.59 8.5469 13.512-9.0508 1.8477-16.246 9.7109-18.238 19.801-0.57422 2.9062 1.3516 5.6641 3.9766 5.6641zm28.035-38.969c0 6.2578-4.3477 11.352-9.6914 11.352s-9.6914-5.0898-9.6914-11.352c0-6.2578 4.3477-11.352 9.6914-11.352s9.6914 5.0898 9.6914 11.352z"/>
  <path d="m64.551 55.355c2.7891-1.957 6.0625-3.0859 9.5625-3.0859 8.4766 0 15.832 6.6094 17.891 16.074 0.17578 0.79688-0.078125 1.4727-0.37109 1.8359-0.21094 0.26172-0.44531 0.39453-0.69922 0.39453h-20.637c0.3125 0.95312 0.54297 1.9414 0.73828 2.9414h19.895c2.6758 0 4.5898-2.8555 3.9492-5.7969-1.8516-8.5117-7.6836-15.242-15.137-17.535 3.6836-2.2617 6.1797-6.6758 6.1797-11.75 0-7.3789-5.2891-13.363-11.812-13.363s-11.812 5.9805-11.812 13.363c0 5.0703 2.4961 9.4844 6.1797 11.746-1.3047 0.40234-2.5586 0.9375-3.75 1.5938 0.019532 0.33594 0.046876 0.66797 0.046876 1.0078 0.003906 0.875-0.089844 1.7305-0.22266 2.5742zm9.5586-27.34c4.8906 0 8.8711 4.6758 8.8711 10.422s-3.9805 10.422-8.8711 10.422-8.8711-4.6758-8.8711-10.422c0-5.75 3.9805-10.422 8.8711-10.422z"/>
  <path d="m43.922 61.051c-5.2031 2.5781-8.9492 7.9688-9.8125 14.395-0.15234 1.1523 0.17969 2.293 0.91406 3.1328 0.65625 0.75391 1.5508 1.1641 2.5156 1.1641h26.438c0.96484 0 1.8555-0.41406 2.5156-1.1641 0.73437-0.83984 1.0664-1.9805 0.91406-3.1328-0.86328-6.4258-4.6094-11.816-9.8125-14.395 2.0547-2.0938 3.2617-5.0664 3.2617-8.2656 0-6.1914-4.5273-11.23-10.098-11.23-5.5664 0-10.098 5.0352-10.098 11.23 0 3.1953 1.207 6.168 3.2617 8.2656zm13.988-8.2656c0 3.1562-1.5234 5.9961-3.9766 7.4141l-2.9609 1.7109 3.2773 0.97266c5.375 1.5977 9.3945 6.6836 10.234 12.953 0.039063 0.30469-0.039063 0.60547-0.21094 0.80469-0.09375 0.10547-0.19531 0.16016-0.30078 0.16016h-26.434c-0.10547 0-0.20703-0.054687-0.30078-0.16016-0.17578-0.19922-0.25391-0.5-0.21094-0.80469 0.84375-6.2695 4.8594-11.352 10.238-12.953l3.2773-0.97266-2.9648-1.7109c-2.4531-1.418-3.9805-4.2578-3.9805-7.4141 0-4.5703 3.2109-8.2852 7.1562-8.2852 3.9453-0.003906 7.1562 3.7148 7.1562 8.2852z"/>
 </g>
</svg>
