<?xml version="1.0" encoding="UTF-8"?>
<svg width="100pt" height="100pt" version="1.1" viewBox="0 0 100 100" xmlns="http://www.w3.org/2000/svg">
 <path d="m66.836 51.02c-0.27734-0.03125-0.55859 0.0625-0.75781 0.26172s-0.29688 0.48047-0.26172 0.75781c0 4.0352 1.6016 7.9023 4.4531 10.754 2.8516 2.8516 6.7188 4.4531 10.75 4.4531 4.0273-0.054688 7.875-1.668 10.73-4.5078 2.8555-2.8359 4.4961-6.6719 4.5781-10.699 0.03125-0.27734-0.066406-0.55859-0.26562-0.75781s-0.47656-0.29297-0.75781-0.26172l-12.551-26.531h6.4297c0.5625 0 1.0195-0.45703 1.0195-1.0195s-0.45703-1.0195-1.0195-1.0195h-30.406c-0.62109-3.8008-3.9062-6.5938-7.7578-6.5938-3.8516 0-7.1367 2.793-7.7539 6.5938h-30.41c-0.5625 0-1.0195 0.45703-1.0195 1.0195s0.45703 1.0195 1.0195 1.0195h6.4297l-12.551 26.531c-0.27734-0.03125-0.55859 0.0625-0.75781 0.26172-0.19922 0.19922-0.29687 0.48047-0.26172 0.75781 0 4.0352 1.6016 7.9023 4.4531 10.754 2.8516 2.8516 6.7188 4.4531 10.75 4.4531 4.0273-0.054688 7.875-1.668 10.73-4.5078 2.8555-2.8359 4.4961-6.6719 4.5742-10.699 0.035156-0.27734-0.0625-0.55859-0.26172-0.75781-0.19922-0.19922-0.47656-0.29297-0.75781-0.26172h-0.10156l-12.551-26.531h20.715c0.63672 3.3477 3.3555 5.9023 6.7344 6.3281v40c-6.7969 0.48438-12.059 6.1445-12.039 12.961-0.003907 0.26172 0.10547 0.51172 0.30078 0.6875 0.19531 0.17578 0.45703 0.25781 0.71875 0.23047h24.082c0.25781 0.027344 0.51953-0.054687 0.71484-0.23047 0.19531-0.17578 0.30469-0.42578 0.30469-0.6875 0.015625-6.8164-5.2461-12.477-12.043-12.961v-40c3.3789-0.42578 6.1016-2.9805 6.7383-6.3281h20.711l-12.551 26.531zm14.184 14.184c-6.8711-0.027344-12.582-5.2969-13.164-12.141h26.43c-0.71875 6.8164-6.4102 12.023-13.266 12.141zm-60.102 0c-6.8711-0.027344-12.582-5.2969-13.164-12.141h26.43c-0.71875 6.8164-6.4102 12.023-13.266 12.141zm-11.938-14.184 11.938-25.508 11.938 25.508zm53.062 31.633h-22.043c0.61328-5.1016 5.3047-10 11.02-10 5.7148 0 10.41 4.8984 11.02 10zm-11.023-53.773c-2.3516 0-4.4727-1.418-5.3711-3.5938-0.90234-2.1719-0.40234-4.6719 1.2578-6.3359 1.6641-1.6641 4.168-2.1602 6.3398-1.2617 2.1719 0.90234 3.5898 3.0195 3.5898 5.375-0.054688 3.1875-2.625 5.7617-5.8164 5.8164zm30.102-3.3672 11.941 25.508h-23.879z"/>
</svg>
