<?xml version="1.0" encoding="UTF-8"?>
<svg width="100pt" height="100pt" version="1.1" viewBox="0 0 100 100" xmlns="http://www.w3.org/2000/svg">
 <g>
  <path d="m50.812 4.6875c-1.9453-0.011719-3.8867 0.11328-5.8125 0.375-10.926 1.3945-20.969 6.7305-28.238 15.004-7.2695 8.2734-11.27 18.918-11.246 29.934 0 11.008 4.0039 21.637 11.266 29.906 7.2656 8.2695 17.289 13.613 28.203 15.031 1.9297 0.26172 3.8789 0.38672 5.8281 0.375 16.188 0 31.148-8.6367 39.242-22.656s8.0938-31.293 0-45.312-23.055-22.656-39.242-22.656zm0 87.5c-1.8125 0.011719-3.625-0.10156-5.4219-0.34375-10.156-1.3398-19.477-6.3203-26.238-14.016-6.7578-7.6953-10.492-17.586-10.512-27.828-0.03125-10.262 3.6914-20.184 10.465-27.895 6.7734-7.7109 16.133-12.676 26.316-13.965 1.7852-0.23828 3.5898-0.34766 5.3906-0.32812 15.07 0 29 8.0391 36.535 21.094s7.5352 29.133 0 42.188-21.465 21.094-36.535 21.094z"/>
  <path d="m77.203 38.859h-15.234v-15.234c0-0.41406-0.16406-0.8125-0.45703-1.1055s-0.69141-0.45703-1.1055-0.45703h-19.188c-0.86328 0-1.5625 0.69922-1.5625 1.5625v15.234h-15.172c-0.86328 0-1.5625 0.69922-1.5625 1.5625v19.141c0 0.41406 0.16406 0.8125 0.45703 1.1055 0.29297 0.29297 0.69141 0.45703 1.1055 0.45703h15.172v15.234c0 0.41406 0.16406 0.8125 0.45703 1.1055 0.29297 0.29297 0.69141 0.45703 1.1055 0.45703h19.188c0.41406 0 0.8125-0.16406 1.1055-0.45703 0.29297-0.29297 0.45703-0.69141 0.45703-1.1055v-15.234h15.234c0.41406 0 0.8125-0.16406 1.1055-0.45703 0.29297-0.29297 0.45703-0.69141 0.45703-1.1055v-19.141c0-0.41406-0.16406-0.8125-0.45703-1.1055-0.29297-0.29297-0.69141-0.45703-1.1055-0.45703zm-1.5625 19.141h-15.234c-0.86328 0-1.5625 0.69922-1.5625 1.5625v15.234h-16.062v-15.234c0-0.41406-0.16406-0.8125-0.45703-1.1055s-0.69141-0.45703-1.1055-0.45703h-15.172v-16.016h15.172c0.41406 0 0.8125-0.16406 1.1055-0.45703 0.29297-0.29297 0.45703-0.69141 0.45703-1.1055v-15.234h16.062v15.234c0 0.41406 0.16406 0.8125 0.45703 1.1055 0.29297 0.29297 0.69141 0.45703 1.1055 0.45703h15.234z"/>
 </g>
</svg>
