<?xml version="1.0" encoding="UTF-8"?>
<svg width="100pt" height="100pt" version="1.1" viewBox="0 0 100 100" xmlns="http://www.w3.org/2000/svg">
 <g>
  <path d="m37.699 72h-2.6992c-0.41797 0-0.81641-0.17578-1.1016-0.48047-0.25391-0.26953-0.38672-0.62891-0.36719-1 0.23828-2.7773-0.35938-5.5625-1.7109-8-0.93359-1.8125-2.2344-3.4102-3.8203-4.6914 4.8945-1.8477 7.9453-6.7461 7.4453-11.953-0.49609-5.207-4.4219-9.4375-9.5742-10.328-5.1562-0.88672-10.27 1.7852-12.484 6.5234-2.2109 4.7422-0.98047 10.379 3.0117 13.758-0.32031 0.089844-0.64063 0.19141-1 0.30859v0.003906c-4.0938 1.7734-7.4258 4.9453-9.3984 8.9492-1.2734 3.0078-2.3789 6.082-3.3203 9.2109v0.10938c-1.3594 3.9297-0.57813 7.4414 2.25 10.141 3.8281 3.6719 10.859 5.2188 16.898 5.2188 2.7578 0.074219 5.5-0.33594 8.1133-1.2188 1.2852-0.40234 2.375-1.2695 3.0586-2.4297h2.5195l2.4805-0.23047c3.4961-0.51172 6.0625-3.5469 5.9844-7.0781-0.074219-3.5312-2.7695-6.4531-6.2852-6.8125zm-22.371-25c-0.003906-3.4375 2.0664-6.543 5.2422-7.8594 3.1758-1.3203 6.832-0.59375 9.2656 1.8359 2.4336 2.4297 3.1641 6.0859 1.8477 9.2656-1.3164 3.1758-4.4141 5.2461-7.8555 5.2461-4.6875 0-8.4922-3.7969-8.5-8.4883zm22.48 35.789-2.4375 0.21094c-4.2617 0.10938-9-0.14844-11.238-4.6602h-0.003906c-0.37891-0.76562-1.3125-1.082-2.0781-0.69922-0.76953 0.37891-1.082 1.3125-0.69922 2.0781 1.4844 3.0117 4.2656 5.1758 7.5469 5.8828h-0.12109c-5 2-17 1.2305-21.73-3.3516-1.9414-1.8594-2.4219-4.1094-1.4688-6.8906 0.027344-0.0625 0.046875-0.125 0.0625-0.1875 0.91016-3.0039 1.9805-5.9531 3.2109-8.8438 1.625-3.2539 4.332-5.8398 7.6602-7.3164 1.0938-0.39062 2.2461-0.57812 3.4102-0.5625 1.1523 0.003906 2.3008 0.14844 3.418 0.42969 3.0898 0.80859 5 3.5 5.8008 5 1.0508 1.8984 1.5156 4.0625 1.3398 6.2227-0.097657 1.2422 0.32812 2.4727 1.1797 3.3867 0.84766 0.96484 2.0586 1.5352 3.3398 1.5703h2.6992c2.0625 0.074218 3.707 1.75 3.7383 3.8125 0.027344 2.0664-1.5664 3.7891-3.6289 3.918z"/>
  <path d="m97.359 74.43v-0.12109c-0.95312-3.1289-2.0742-6.207-3.3594-9.2188-1.9727-3.9844-5.293-7.1445-9.3711-8.918-0.32031-0.12109-0.64062-0.21875-1-0.30859v-0.003906c3.9922-3.3828 5.2266-9.0156 3.0117-13.758-2.2109-4.7383-7.3242-7.4141-12.48-6.5234s-9.0781 5.1172-9.5742 10.328c-0.5 5.207 2.5508 10.105 7.4453 11.953-1.6133 1.2617-2.9414 2.8438-3.9023 4.6523-1.3477 2.4375-1.9492 5.2188-1.7188 8 0.015625 0.36719-0.11328 0.72656-0.35938 1-0.27344 0.29297-0.64844 0.47266-1.0508 0.48828h-2.6992c-3.5898 0.28906-6.3711 3.2539-6.4375 6.8516-0.0625 3.5977 2.6133 6.6602 6.1875 7.0781l2.3516 0.21094h0.089844 2.5195c0.68359 1.1641 1.7773 2.0312 3.0664 2.4297 2.6172 0.87891 5.3633 1.293 8.1211 1.2188 6 0 13.07-1.5508 16.898-5.2188h0.003906c2.7969-2.5742 3.6992-6.6211 2.2578-10.141zm-29.68-27.43c0-3.4336 2.0703-6.5312 5.2422-7.8438s6.8242-0.58594 9.25 1.8398c2.4297 2.4297 3.1562 6.082 1.8438 9.2539-1.3164 3.1719-4.4102 5.2383-7.8438 5.2383-4.6875-0.003906-8.4883-3.8008-8.4922-8.4883zm25.32 35.309c-4.7812 4.5781-16.75 5.3086-21.73 3.3516h-0.12109c3.2852-0.70703 6.0625-2.8711 7.5508-5.8789 0.38281-0.76953 0.070312-1.6992-0.69922-2.082-0.76953-0.37891-1.6992-0.066407-2.0781 0.69922-2.2617 4.5117-7 4.7695-11.238 4.6602l-2.3398-0.21094h-0.10156l-0.003907 0.003906c-2.0586-0.13281-3.6523-1.8555-3.625-3.918 0.03125-2.0664 1.6758-3.7422 3.7383-3.8125h2.6484c1.2852-0.003906 2.5078-0.53906 3.3789-1.4805 0.85156-0.91797 1.2773-2.1445 1.1797-3.3906-0.19141-2.168 0.26172-4.3398 1.3008-6.25 0.83984-1.5312 2.7109-4.2188 5.8008-5 2.2422-0.62109 4.6133-0.57422 6.8281 0.12891 3.3203 1.4805 6.0273 4.0625 7.6602 7.3125 1.2305 2.8867 2.3008 5.8438 3.2109 8.8477 0.015625 0.066407 0.035156 0.12891 0.0625 0.19141 0.94922 2.7188 0.46875 4.9688-1.4219 6.8281z"/>
  <path d="m66.648 23c0-7-8.6289-12.77-19.25-12.77-10.617 0-19.238 5.7695-19.238 12.77s8.6289 12.77 19.238 12.77c2.9219 0.10547 5.8359-0.32422 8.6016-1.2695 0.85938 0.73828 2.4219 2.1406 4 3.5781l0.12109 0.10938v0.003906c0.29297 0.27734 0.68359 0.42969 1.0898 0.42969 0.24219 0 0.48047-0.054688 0.69922-0.16016 0.59375-0.29297 0.95312-0.91797 0.89844-1.582l-0.48047-5.7695c2.6211-1.8867 4.2148-4.8828 4.3203-8.1094zm-7.5195 9.7383c-1.7617-1.5586-2.2617-1.8516-2.8711-1.8516l0.003907 0.003906c-0.25 0.003906-0.49219 0.066406-0.71094 0.17969-1.9414 0.92969-4.5508 1.3516-8.1523 1.3516-8.7617 0-15.898-4.2188-15.898-9.4219 0-5.1992 7.1406-9.4297 15.898-9.4297 8.7617 0 15.902 4.2305 15.902 9.4297 0 2.1914-1.2891 4.3008-3.6406 5.9414l-0.80078 0.55078z"/>
 </g>
</svg>
