<?xml version="1.0" encoding="UTF-8"?>
<svg width="100pt" height="100pt" version="1.1" viewBox="0 0 100 100" xmlns="http://www.w3.org/2000/svg">
 <g>
  <path d="m12.238 65.789h75.523c0.67578 0.003907 1.3281-0.26562 1.8086-0.74219 0.48047-0.48047 0.75-1.1289 0.75-1.8086v-43.816c0.003907-0.68359-0.26562-1.3359-0.74609-1.8164s-1.1328-0.75-1.8125-0.74609h-75.523c-0.67969-0.003906-1.332 0.26562-1.8125 0.74609s-0.75 1.1328-0.74609 1.8164v43.816c0 0.67969 0.26953 1.3281 0.75 1.8086 0.48047 0.47656 1.1328 0.74609 1.8086 0.74219zm37.762-47.848c0.23438 0 0.44531 0.14062 0.53516 0.35547 0.089844 0.21875 0.039063 0.46875-0.125 0.63281-0.16406 0.16797-0.41406 0.21484-0.63281 0.125-0.21484-0.089844-0.35547-0.30078-0.35547-0.53516 0-0.32031 0.25781-0.57812 0.57812-0.57812zm-37.859 4.25c0.003906-0.98438 0.80469-1.7812 1.7891-1.7812h72.141c0.98438 0 1.7852 0.79688 1.7891 1.7812v38.27c-0.003906 0.98437-0.80469 1.7852-1.7891 1.7891h-72.141c-0.98438-0.003906-1.7852-0.80469-1.7891-1.7891z"/>
  <path d="m99.371 78.641-8.5625-10.422c-0.51953-0.62891-1.293-0.99609-2.1094-1h-78c-0.85156 0-1.6562 0.40234-2.168 1.082l-8 10.461c-0.62891 0.82422-0.73047 1.9336-0.27344 2.8594 0.46094 0.92969 1.4062 1.5156 2.4414 1.5195h94.539c1.0781 0.027344 2.0742-0.58203 2.5352-1.5547 0.46094-0.97656 0.30078-2.1328-0.40234-2.9453zm-41.859 1h-15c-0.78906 0-1.2891-0.48047-0.92188-0.87109l2.0703-2.1914c0.25-0.21484 0.57812-0.32422 0.91016-0.30859l11-0.078125c0.36328-0.035156 0.72656 0.085938 1 0.32812l2 2.2695c0.21875 0.42188-0.28906 0.88281-1.0586 0.88281z"/>
 </g>
</svg>
