<?xml version="1.0" encoding="UTF-8" standalone="no"?>
<svg
   xmlns:dc="http://purl.org/dc/elements/1.1/"
   xmlns:cc="http://creativecommons.org/ns#"
   xmlns:rdf="http://www.w3.org/1999/02/22-rdf-syntax-ns#"
   xmlns:svg="http://www.w3.org/2000/svg"
   xmlns="http://www.w3.org/2000/svg"
   xmlns:sodipodi="http://sodipodi.sourceforge.net/DTD/sodipodi-0.dtd"
   xmlns:inkscape="http://www.inkscape.org/namespaces/inkscape"
   inkscape:version="1.0 (4035a4f, 2020-05-01)"
   height="185"
   width="185"
   sodipodi:docname="401k-icon.svg"
   id="svg851"
   version="1.1"
   viewBox="0 0 185 184.99999">
  <metadata
     id="metadata855">
    <rdf:RDF>
      <cc:Work
         rdf:about="">
        <dc:format>image/svg+xml</dc:format>
        <dc:type
           rdf:resource="http://purl.org/dc/dcmitype/StillImage" />
        <dc:title>401k-match</dc:title>
      </cc:Work>
    </rdf:RDF>
  </metadata>
  <sodipodi:namedview
     inkscape:current-layer="svg851"
     inkscape:window-maximized="0"
     inkscape:window-y="23"
     inkscape:window-x="0"
     inkscape:cy="90.035"
     inkscape:cx="91.58"
     inkscape:zoom="3.7152219"
     inkscape:document-units="pt"
     showgrid="false"
     id="namedview853"
     inkscape:window-height="1243"
     inkscape:window-width="1656"
     inkscape:pageshadow="2"
     inkscape:pageopacity="0"
     guidetolerance="10"
     gridtolerance="10"
     objecttolerance="10"
     borderopacity="1"
     bordercolor="#666666"
     pagecolor="#ffffff" />
  <defs
     id="defs835">
    <style
       id="style833">.cls-1{fill:#ee4018;}.cls-2{fill:#faaf40;}</style>
  </defs>
  <title
     id="title837">401k-match</title>
  <g
     transform="translate(0.57929721,1.6149774)"
     data-name="Layer 2"
     id="Layer_2">
    <g
       data-name="401k Match"
       id="_401k_Match">
      <path
         id="path839"
         d="m 59.24,65.71 a 42.9,42.9 0 0 0 -6.46,2.71 l 4.09,7.41 a 47.68,47.68 0 0 1 11.83,-3.94 72.83,72.83 0 0 1 30.27,0 48.78,48.78 0 0 1 11.82,3.92 l 4.1,-7.39 a 42.9,42.9 0 0 0 -6.46,-2.71 36.39,36.39 0 0 0 5.4,-6 c 1,0.22 1.9,0.45 2.83,0.69 l 5.1,1.5 v 0 l 1.84,-1 c 1.23,-0.69 2.48,-1.37 3.71,-2 1.45,-0.79 2.89,-1.55 4.3,-2.28 v 0 a 159.15,159.15 0 0 1 16.84,-7.86 124.36,124.36 0 0 0 -3.28,15.14 c 0,0.1 0,0.2 -0.05,0.28 -0.09,0.62 -0.18,1.22 -0.26,1.8 -0.28,1.85 -0.49,3.54 -0.66,5 0,0.3 -0.07,0.59 -0.09,0.87 0,0.09 0,0.18 0,0.27 -0.05,0.46 -0.09,0.9 -0.13,1.3 l 4.35,3.58 v 0 c 9.86,8.93 13.41,17.65 13.71,18.4 a 4.13,4.13 0 0 0 1.24,1.73 l 13,10.82 v 13.28 l -15.47,6.19 a 4.25,4.25 0 0 0 -2.39,2.44 c -0.9,2.39 -4.14,9.31 -8.36,12.69 a 81.08,81.08 0 0 1 -12.54,8 4.32,4.32 0 0 0 -2.07,2.32 L 128,173 h -10.73 l -2.76,-10.18 a 4.25,4.25 0 0 0 -4.09,-3.12 H 79 a 4.23,4.23 0 0 0 -3.85,2.48 L 70.24,173 H 59.47 l -4.13,-19.6 a 4.23,4.23 0 0 0 -2.65,-3.1 C 42,146.33 34.55,138 30.54,125.59 a 61.29,61.29 0 0 1 -2.9,-18.22 c 0.18,-2.31 2.91,-30.63 29.44,-43.75 0.7,0.72 1.41,1.43 2.16,2.09 z m 88,30.58 a 5.44,5.44 0 1 0 -5.44,5.43 5.43,5.43 0 0 0 5.48,-5.43 z"
         class="cls-1" />
      <path
         id="path841"
         d="m 75.12,49.39 a 14.58,14.58 0 0 0 5.26,2.79 4.53,4.53 0 0 0 1.07,0.22 c 0.29,0 0.37,0.09 0.37,0.3 0,1.06 0,2.11 0,3.16 a 0.94,0.94 0 0 0 1,0.94 h 2.79 a 0.53,0.53 0 0 0 0.25,0 0.92,0.92 0 0 0 0.64,-1 v -3 c 0,-0.16 0,-0.24 0.21,-0.28 A 15.74,15.74 0 0 0 88.43,52 8.17,8.17 0 0 0 91.8,49.83 8.32,8.32 0 0 0 92.87,48.4 7.74,7.74 0 0 0 94,43.76 6.25,6.25 0 0 0 92.53,39.89 10.23,10.23 0 0 0 88.78,37.25 c -1.52,-0.68 -3.09,-1.27 -4.65,-1.91 a 7.29,7.29 0 0 1 -2.9,-1.84 1.91,1.91 0 0 1 -0.44,-1.1 2.46,2.46 0 0 1 1.5,-2.4 5.76,5.76 0 0 1 3.52,-0.41 10.57,10.57 0 0 1 4.64,2.15 0.57,0.57 0 0 0 0.84,-0.19 c 0.68,-1.2 1.33,-2.43 2,-3.66 a 0.64,0.64 0 0 0 -0.14,-0.76 11.44,11.44 0 0 0 -4.69,-2.42 c -0.65,-0.18 -1.31,-0.29 -2,-0.43 v -1.81 c 0,-0.56 0,-1.1 0,-1.66 a 0.88,0.88 0 0 0 -0.84,-0.77 h -2.97 a 0.69,0.69 0 0 0 -0.2,0 0.94,0.94 0 0 0 -0.65,1 c 0,1.14 0,2.26 0,3.41 -0.37,0.11 -0.73,0.2 -1.08,0.32 a 9.13,9.13 0 0 0 -3.86,2.41 7.37,7.37 0 0 0 -1.86,6.71 6.72,6.72 0 0 0 2.45,3.94 11.94,11.94 0 0 0 2.91,1.79 c 1.53,0.66 3.07,1.28 4.61,1.92 a 9.32,9.32 0 0 1 2.18,1.21 2.19,2.19 0 0 1 0.51,3.1 3.33,3.33 0 0 1 -2.48,1.44 7.62,7.62 0 0 1 -4.18,-0.71 14.33,14.33 0 0 1 -3.07,-1.91 0.69,0.69 0 0 0 -1,0.12 c -0.83,1.07 -1.62,2.14 -2.42,3.24 a 0.64,0.64 0 0 0 0,0.84 c 0.24,0.18 0.42,0.35 0.61,0.52 z m 37.95,-11.32 a 28.29,28.29 0 0 1 -8,19.7 27.83,27.83 0 0 1 -6.5,5 v 0 a 82.58,82.58 0 0 0 -27.82,0 v 0 A 27.66,27.66 0 0 1 66.6,60 a 28.73,28.73 0 0 1 -6,-6.89 28.39,28.39 0 1 1 52.49,-15 z"
         class="cls-2" />
      <path
         id="path843"
         d="M 181.64,101.29 167.92,89.85 a 65,65 0 0 0 -16.7,-21.64 113.27,113.27 0 0 1 5.1,-22.65 c 1.4,-3.88 -0.76,-6 -1.46,-6.56 -2,-1.58 -5.53,-4.44 -33.61,12.91 -1.54,-0.49 -3.13,-0.93 -4.78,-1.35 a 36.08,36.08 0 0 0 2,-6.92 l -8.32,-1.55 a 28.25,28.25 0 0 1 -7.47,14.48 27.83,27.83 0 0 1 -6.51,5 v 0 A 80.4,80.4 0 0 0 82.24,60.39 81.23,81.23 0 0 0 68.34,61.6 v 0 a 27.66,27.66 0 0 1 -4.15,-2.84 28.4,28.4 0 1 1 46.29,-25.08 l 8.41,-0.93 A 36.86,36.86 0 1 0 57.65,64.29 42.9,42.9 0 0 0 51.19,67 l 4.1,7.41 a 48,48 0 0 1 11.83,-3.94 73.23,73.23 0 0 1 30.26,0 48.28,48.28 0 0 1 11.82,3.93 l 4.11,-7.4 a 43.15,43.15 0 0 0 -6.44,-2.69 38.27,38.27 0 0 0 5.4,-6 q 3.83,0.87 7.29,2 c 1,0.3 1.87,0.61 2.77,0.93 3,-1.85 6.07,-3.72 9.11,-5.49 a 167.9,167.9 0 0 1 15.31,-8.05 122.62,122.62 0 0 0 -3.23,14.69 c -0.65,4 -1,7.42 -1.24,9.49 1.05,0.81 2.05,1.61 3,2.42 11,9.39 14.89,18.93 15.2,19.71 a 4.14,4.14 0 0 0 1.24,1.74 l 13,10.82 v 13.23 l -15.49,6.2 a 4.28,4.28 0 0 0 -2.39,2.44 c -0.9,2.39 -4.13,9.32 -8.35,12.69 a 82.29,82.29 0 0 1 -12.55,8 4.19,4.19 0 0 0 -2.06,2.32 l -7.45,20.19 h -10.74 l -2.77,-10.18 a 4.24,4.24 0 0 0 -4.08,-3.11 H 77.41 a 4.23,4.23 0 0 0 -3.85,2.47 l -4.91,10.82 H 57.88 L 53.75,152 A 4.21,4.21 0 0 0 51.1,148.9 C 40.42,144.91 33,136.59 29,124.18 A 61,61 0 0 1 26.05,106 c 0.12,-1.41 2.24,-22.4 18.75,-36.66 v 0 l 0.85,-0.72 -5.39,-6.51 -1,0.83 C 28,72.59 22.59,84.69 20,93.51 c -0.42,-3.09 -1.52,-5.75 -2.92,-7.16 -2,-2 -6.61,-5.1 -11,-3.89 C 4.06,83 1.44,84.63 0.3,89.19 a 9,9 0 0 0 1.42,7.67 c 2,2.84 5.69,4.71 9.33,5.92 -1.7,2.12 -4.41,3.59 -8.09,4.38 L 4.43,114 c 7.1,-1.52 11,-4.9 13.16,-8.34 a 68.56,68.56 0 0 0 3.23,20.86 C 25.3,140.59 34,150.72 45.94,156 l 4.38,20.76 a 4.22,4.22 0 0 0 4.13,3.36 h 16.92 a 4.25,4.25 0 0 0 3.86,-2.48 l 4.9,-10.81 h 25.48 l 2.77,10.17 a 4.23,4.23 0 0 0 4.08,3.12 h 16.92 a 4.19,4.19 0 0 0 4,-2.77 l 7.91,-21.44 a 87,87 0 0 0 12.53,-8.14 c 5.25,-4.2 8.79,-11.24 10.25,-14.54 l 16.47,-6.59 a 4.22,4.22 0 0 0 2.66,-3.92 v -18.18 a 4.25,4.25 0 0 0 -1.56,-3.25 z M 7.42,92.79 A 2.08,2.08 0 0 1 7.09,90.88 c 0.28,-1.13 0.66,-1.63 0.83,-1.67 a 0.88,0.88 0 0 1 0.24,0 7.19,7.19 0 0 1 3.84,2.04 10.39,10.39 0 0 1 1.12,4.86 C 10.58,95.25 8.37,94.13 7.42,92.79 Z" />
      <circle
         id="circle845"
         r="5.4400001"
         cy="94.870003"
         cx="140.25999" />
      <path
         id="path847"
         d="m 91.59,42.55 a 7.74,7.74 0 0 1 -1.14,4.63 8,8 0 0 1 -1.07,1.43 8.17,8.17 0 0 1 -3.38,2.17 18.19,18.19 0 0 1 -1.79,0.49 c -0.17,0 -0.21,0.12 -0.21,0.27 v 3 a 0.92,0.92 0 0 1 -0.64,1 0.53,0.53 0 0 1 -0.25,0 h -2.78 a 0.94,0.94 0 0 1 -1,-0.94 c 0,-1 0,-2.1 0,-3.15 0,-0.22 -0.08,-0.28 -0.37,-0.31 A 5.06,5.06 0 0 1 78,51 14.56,14.56 0 0 1 72.75,48.2 C 72.56,48.03 72.38,47.87 72.2,47.68 a 0.64,0.64 0 0 1 0,-0.84 c 0.8,-1.1 1.59,-2.17 2.42,-3.24 a 0.7,0.7 0 0 1 1,-0.12 14.09,14.09 0 0 0 3.07,1.91 7.62,7.62 0 0 0 4.15,0.71 3.3,3.3 0 0 0 2.48,-1.44 2.2,2.2 0 0 0 -0.51,-3.1 9.32,9.32 0 0 0 -2.18,-1.21 C 81.09,39.71 79.54,39.09 78.02,38.43 A 11.64,11.64 0 0 1 75,36.62 6.69,6.69 0 0 1 72.55,32.68 7.32,7.32 0 0 1 74.44,26 9,9 0 0 1 78.3,23.58 c 0.35,-0.12 0.71,-0.21 1.08,-0.32 0,-1.14 0,-2.27 0,-3.4 a 0.93,0.93 0 0 1 0.64,-1 0.52,0.52 0 0 1 0.21,0 h 2.92 A 0.89,0.89 0 0 1 84,19.63 c 0,0.56 0,1.1 0,1.66 v 1.79 c 0.7,0.14 1.36,0.25 2,0.43 a 11.44,11.44 0 0 1 4.69,2.42 0.64,0.64 0 0 1 0.14,0.76 c -0.65,1.23 -1.3,2.47 -2,3.66 a 0.58,0.58 0 0 1 -0.85,0.2 10.37,10.37 0 0 0 -4.64,-2.16 5.73,5.73 0 0 0 -3.51,0.41 2.46,2.46 0 0 0 -1.49,2.42 1.91,1.91 0 0 0 0.44,1.1 7.29,7.29 0 0 0 2.9,1.84 c 1.56,0.64 3.13,1.23 4.65,1.91 a 10.23,10.23 0 0 1 3.75,2.64 6.25,6.25 0 0 1 1.51,3.84 z" />
    </g>
  </g>
</svg>
