<svg xmlns="http://www.w3.org/2000/svg" viewBox="0 0 154 198"><defs><style>.cls-1{fill:#00adee;}</style></defs><title>Data</title><g id="Layer_2" data-name="Layer 2"><g id="data"><ellipse class="cls-1" cx="79" cy="25.5" rx="71" ry="14.5"/><path class="cls-1" d="M150,115.94v8.56c0,.91-.79,2-2.37,3.09a30.87,30.87,0,0,1-6.95,3.41c-11,4.12-31.79,8-61.68,8s-50.64-3.88-61.68-8a31,31,0,0,1-6.94-3.41C8.8,126.47,8,125.41,8,124.5V89.06C21.47,97.67,54.84,101,79,101s57.53-3.33,71-11.94v26.88Z"/><path class="cls-1" d="M150,59.94V68.5c0,.91-.79,2-2.37,3.09A30.87,30.87,0,0,1,140.68,75c-11,4.12-31.79,8-61.68,8s-50.64-3.88-61.68-8a31,31,0,0,1-6.94-3.41C8.8,70.47,8,69.41,8,68.5V33.06C21.47,41.67,54.84,45,79,45s57.53-3.33,71-11.94V59.94Z"/><path class="cls-1" d="M150,146.06V181.5c0,.84-.67,1.8-2,2.81l-.37.28a30.87,30.87,0,0,1-6.95,3.41c-11,4.12-31.79,8-61.68,8s-50.64-3.88-61.68-8a31,31,0,0,1-6.94-3.41C8.8,183.47,8,182.41,8,181.5V146.06C21.47,154.67,54.84,158,79,158c23,0,54.45-3,69-10.77C148.71,146.85,149.37,146.46,150,146.06Z"/><path d="M151,151.38a3,3,0,0,0,3-3V177.5c0-3.3-2.21-6.14-6-8.56V148.38A3,3,0,0,0,151,151.38Z"/><path d="M154,133.5v14.88a3,3,0,0,1-6,0v-6.32C151.79,139.64,154,136.8,154,133.5Z"/><path d="M154,91.38V120.5c0-3.3-2.21-6.14-6-8.56V91.38a3,3,0,0,0,6,0Z"/><path d="M154,76.5V91.38a3,3,0,0,1-6,0V85.06C151.79,82.64,154,79.8,154,76.5Z"/><path d="M154,20.5v44c0-3.3-2.21-6.14-6-8.56V29.12C152,26.56,154,23.68,154,20.5Z"/><path d="M154,20v.5c0-.17,0-.33,0-.5Z"/><path d="M154,20c0,.17,0,.33,0,.5,0,3.18-2,6.06-6,8.62V20Z"/><path d="M154,64.5l-3.64,5.19A19.23,19.23,0,0,0,148,68v-12C151.79,58.36,154,61.2,154,64.5Z"/><path d="M154,76.5c0-.17,0-.33,0-.5h0Z"/><path d="M154,133h0v.5C154,133.33,154,133.17,154,133Z"/><path d="M153.88,132.18a2.76,2.76,0,0,1,.12.82h0C154,132.72,153.92,132.45,153.88,132.18Z"/><path d="M154,76.5c0,3.3-2.21,6.14-6,8.56V76h6C154,76.17,154,76.33,154,76.5Z"/><path d="M154,133.5c0,3.3-2.21,6.14-6,8.56V133h6C154,133.17,154,133.33,154,133.5Z"/><path d="M153.88,75.18A2.76,2.76,0,0,1,154,76h0a6.57,6.57,0,0,0-.12-.89A.14.14,0,0,1,153.88,75.18Z"/><path d="M148,168.94c3.79,2.42,6,5.26,6,8.56s-2.21,6.14-6,8.56V168.94Z"/><path d="M154,64.5a8.52,8.52,0,0,1-2.77,6c-.27-.28-.56-.55-.87-.82Z"/><path d="M150.7,127a17.73,17.73,0,0,0-2.7-2.06v-13c3.79,2.42,6,5.26,6,8.56a7.09,7.09,0,0,1-.15,1.46c0,.11,0,.23-.08.35a7.49,7.49,0,0,1-.67,1.71c-.1.18-.2.37-.32.55a7.17,7.17,0,0,1-.66.93q-.23.29-.48.57l-.55.57-.37.36h0Z"/><path d="M151.23,70.51a16.73,16.73,0,0,1-2.3,1.93c-.3.21-.61.42-.93.62l2.36-3.37C150.67,70,151,70.23,151.23,70.51Z"/><path d="M150.36,69.69,148,73.06V68A19.23,19.23,0,0,1,150.36,69.69Z"/><path d="M148,125a17.73,17.73,0,0,1,2.7,2.06c-.2.19-.4.36-.6.53s-.43.35-.66.52c-.45.34-.93.68-1.44,1Z"/><path d="M154,76h-6a2.74,2.74,0,0,1,.12-.81.19.19,0,0,1,0-.08,3,3,0,0,1,5.71,0,0,0,0,0,1,0,0A6.57,6.57,0,0,1,154,76Z"/><path d="M148.14,132.11a3,3,0,0,1,1.25-1.65A3.05,3.05,0,0,1,151,130a3,3,0,0,1,2.86,2.11.14.14,0,0,1,0,.07c0,.27.08.54.1.82h-6a2.74,2.74,0,0,1,.12-.81A.19.19,0,0,1,148.14,132.11Z"/><path d="M148,177.5v8.56C134.53,194.67,101.16,198,77,198s-57.53-3.33-71-11.94V177.5C6,182.56,30.38,192,77,192S148,182.56,148,177.5Z"/><path d="M148,133.5v8.56C134.53,150.67,101.16,154,77,154s-57.53-3.33-71-11.94V133.5C6,138.56,30.38,148,77,148S148,138.56,148,133.5Z"/><path d="M148,125v4.11c-.36.24-.74.46-1.14.69s-.8.45-1.23.67a30.41,30.41,0,0,0-6.95-3.42,30.87,30.87,0,0,0,6.95-3.41A26.36,26.36,0,0,1,148,125Z"/><path d="M148,120.5V125a26.36,26.36,0,0,0-2.37-1.36C147.21,122.47,148,121.41,148,120.5Z"/><path d="M148,68v5.11c-.51.32-1,.64-1.6,1A24.28,24.28,0,0,0,140,70.5a24.38,24.38,0,0,0,6.42-3.5C147,67.3,147.49,67.62,148,68Z"/><path d="M148,64.5V68c-.51-.33-1.05-.65-1.61-1A3.65,3.65,0,0,0,148,64.5Z"/><path d="M148,20.5v8.62c-4,2.55-10,4.79-18,6.67l-.43.07-1.56-5.69a2.46,2.46,0,0,1,.61-.22C144,26.33,148,22.19,148,20.5Z"/><path d="M146.4,74C132,81.92,100.25,85,77,85S22,81.92,7.6,74A24.28,24.28,0,0,1,14,70.5C24.69,74.8,45.9,79,77,79s52.31-4.2,63-8.5A24.28,24.28,0,0,1,146.4,74Z"/><path d="M138.68,127a30.41,30.41,0,0,1,6.95,3.42C130.93,138,99.85,141,77,141s-53.93-3-68.63-10.58a30.41,30.41,0,0,1,7-3.42c11,4.12,31.79,8,61.68,8S127.64,131.12,138.68,127Z"/><path d="M114.73,38.59h0A280.55,280.55,0,0,1,77,41C52.84,41,19.47,37.67,6,29.06V20.5C6,25.56,30.38,35,77,35a275,275,0,0,0,36.88-2.35h0Z"/><path d="M8.38,123.59A31,31,0,0,0,15.32,127a30.41,30.41,0,0,0-7,3.42c-.85-.44-1.64-.89-2.37-1.36V125C6.73,124.48,7.53,124,8.38,123.59Z"/><path d="M8.38,123.59c-.85.44-1.65.89-2.38,1.36V120.5C6,121.41,6.8,122.47,8.38,123.59Z"/><path d="M7.61,67A24.38,24.38,0,0,0,14,70.5,24.28,24.28,0,0,0,7.6,74c-.56-.31-1.09-.63-1.6-1V68C6.51,67.62,7.05,67.3,7.61,67Z"/><path d="M7.61,67c-.56.3-1.1.62-1.61,1V64.5A3.65,3.65,0,0,0,7.61,67Z"/><path d="M6,20H0C1,5.34,46.4,0,77,0s76,5.34,77,20h-6v.5C148,15.44,123.62,6,77,6S6,15.44,6,20.5Z"/><path d="M6,76.5C6,81.56,30.38,91,77,91s71-9.44,71-14.5v8.56C134.53,93.67,101.16,97,77,97S19.47,93.67,6,85.06V76.5Z"/><path d="M6,168.94v17.12c-3.79-2.42-6-5.26-6-8.56S2.21,171.36,6,168.94Z"/><path d="M6,164v4.94c-3.79,2.42-6,5.26-6,8.56V164a2.43,2.43,0,0,1,0-.38H6A2.43,2.43,0,0,1,6,164Z"/><path d="M6,77v8.06C2.33,82.72.14,80,0,76.83v0a2.52,2.52,0,0,1,.11-.61.19.19,0,0,1,0-.08.36.36,0,0,1,0-.11H5.82A2.77,2.77,0,0,1,6,77Z"/><path d="M3,95.38a3,3,0,0,0,3-3v19.56c-3.79,2.42-6,5.26-6,8.56V92.38A3,3,0,0,0,3,95.38Z"/><path d="M6,55.94V68a19.23,19.23,0,0,0-2.36,1.74L0,64.5C0,61.2,2.21,58.36,6,55.94Z"/><path d="M6,68v5.11L3.64,69.69A19.23,19.23,0,0,1,6,68Z"/><path d="M6,29.06V55.94C2.21,58.36,0,61.2,0,64.5v-44C0,23.8,2.21,26.64,6,29.06Z"/><path d="M6,20.5v8.56C2.21,26.64,0,23.8,0,20.5c0-.17,0-.33,0-.5H6Z"/><path d="M3.64,69.69,6,73.06l-.23-.15a17.82,17.82,0,0,1-3-2.4C3,70.23,3.33,70,3.64,69.69Z"/><path d="M6,77a2.77,2.77,0,0,0-.18-1H6v1Z"/><path d="M5.82,76H.18a3,3,0,0,1,5.64,0Z"/><path d="M3,145.38a3,3,0,0,1,3,3c0,1.65-1.34,7-3,7s-3-5.35-3-7A3,3,0,0,1,3,145.38Z"/><path d="M2.36,126.07c-.17-.19-.33-.38-.48-.58a7.17,7.17,0,0,1-.66-.93c-.12-.18-.22-.37-.32-.55a7.46,7.46,0,0,1-.81-2.38A4.78,4.78,0,0,1,0,121.1a6.08,6.08,0,0,1,0-.61c0-3.3,2.21-6.14,6-8.56v13A19.12,19.12,0,0,0,3.3,127h0l-.37-.36Z"/><path d="M0,64.5l3.64,5.19c-.31.27-.6.54-.87.82A8.52,8.52,0,0,1,0,64.5Z"/><path d="M3.9,127.54l-.31-.26c-.1-.08-.19-.18-.29-.27A19.12,19.12,0,0,1,6,125v4.11c-.51-.32-1-.66-1.44-1C4.33,127.89,4.11,127.72,3.9,127.54Z"/><path d="M.14,132.11A3,3,0,0,1,6,133v9.06c-3.79-2.42-6-5.26-6-8.56a7.09,7.09,0,0,1,.12-1.31A.19.19,0,0,1,.14,132.11Z"/><path d="M3,145.38a3,3,0,0,0-3,3V133.5c0,3.3,2.21,6.14,6,8.56v6.32A3,3,0,0,0,3,145.38Z"/><path d="M3,155.38H0A2.43,2.43,0,0,1,0,155v-6.62C0,150,1.34,155.38,3,155.38Z"/><path d="M6,148.38V155a2.43,2.43,0,0,1,0,.38H3C4.66,155.38,6,150,6,148.38Z"/><path d="M3,95.38a3,3,0,0,1-3-3v-1a3,3,0,0,0,6,0v1A3,3,0,0,1,3,95.38Z"/><path d="M2.36,126.08l.55.56C2.72,126.46,2.53,126.27,2.36,126.08Z"/><path d="M0,91.38V77a.91.91,0,0,1,0-.17C.15,80,2.34,82.72,6,85.06v6.32a3,3,0,0,1-6,0Z"/><path d="M.14,76.11a.19.19,0,0,0,0,.08A2.52,2.52,0,0,0,0,76.8c0-.1,0-.2,0-.3s0-.33,0-.5H.18A.36.36,0,0,0,.14,76.11Z"/><path d="M.11,75.26l0-.15a0,0,0,0,1,0,0A3,3,0,0,1,6,76H5.82A3,3,0,0,0,.18,76H0C0,75.75.07,75.5.11,75.26Z"/><path d="M.11,75.26c0,.24-.07.49-.09.74H0A2.29,2.29,0,0,1,.11,75.26Z"/><path d="M0,133a2.74,2.74,0,0,1,.12-.81A7.09,7.09,0,0,0,0,133.5Z"/><path d="M0,20c0,.17,0,.33,0,.5V20Z"/><path d="M0,76c0,.17,0,.33,0,.5V76Z"/><path d="M0,76.8v0A7,7,0,0,0,1,77v-.5S0,76.7,0,76.8Z"/></g></g></svg>