<svg xmlns="http://www.w3.org/2000/svg" viewBox="0 0 172 170"><defs><style>.cls-1{fill:#00adee;}.cls-2{fill:#faaf40;}.cls-3{fill:#be1e2d;}.cls-4{fill:none;}</style></defs><title>Design</title><g id="Layer_2" data-name="Layer 2"><g id="design"><path class="cls-1" d="M166.25,35.41,160,41.67l-8.79-8.79A3,3,0,1,0,147,37.12l8.79,8.79L147,54.67l-8.79-8.79A3,3,0,1,0,134,50.12l8.79,8.79L135,66.67l-8.79-8.79A3,3,0,0,0,122,62.12l8.79,8.79-7.18,7.19L94.41,48.94,137.09,6.25Z"/><path class="cls-2" d="M138.29,119.41l-17.9,17.9-.72.7L31.49,48.83,50.08,30.24,138,119.12A2.28,2.28,0,0,0,138.29,119.41Z"/><path class="cls-1" d="M85.92,115.74,78,123.67l-8.79-8.79A3,3,0,0,0,65,119.12l8.79,8.79L64,137.67l-8.79-8.79A3,3,0,1,0,51,133.12l8.79,8.79L51,150.67l-8.79-8.79A3,3,0,1,0,38,146.12l8.79,8.79L39,162.67,9.83,133.51,37.36,106l9.11-9.12L56.76,86.58l27.57,27.57Z"/><polygon class="cls-3" points="58.41 17.43 49.96 25.88 29.25 46.59 14.89 32.23 44.05 3.07 58.41 17.43"/><path d="M44.89,95.29a1.7,1.7,0,0,0,.33-.27l8.84-8.84,4.24-4.24-4.2-4.28L49.86,81.9,41,90.78a1.7,1.7,0,0,0-.27.33Z"/><rect x="74" y="56" width="6" height="6" transform="translate(-19.16 71.73) rotate(-45)"/><path d="M91.09,115.84l-4,4-.25.25-9,9.11-2.14,2.17h0L63.81,143.54l-1.73,1.76L50.65,156.9h0l-1.21,1.23-10.79,11a3,3,0,0,1-2.13.9h0a3,3,0,0,1-2.12-.88L.88,135.62a3,3,0,0,1,0-4.24l30.93-30.93h0l4.24,4.24L7.24,133.5l29.24,29.24,1.28-1.3,5.92-6,1.78-1.8,2.43-2.47,1.78-1.8,6.92-7,1.77-1.81,2.43-2.47,1.78-1.8,7.91-8,1.78-1.8L74.69,124l1.78-1.8,6.21-6.32.25-.25,1.4-1.43,2.55-2.59Z"/><polygon points="114.16 91.92 109.95 96.19 105.71 91.95 109.91 87.67 114.16 91.92"/><path d="M168.14,37.1l-7.46,7.57-4,4-10,10.11-3.89,4L134.81,71,131,74.82l-6.91,7-4.21,4.27-4.24-4.24,4.21-4.27,6.71-6.81,4.2-4.28,7.7-7.82,4.21-4.27,9.69-9.83,4.21-4.27,5.21-5.3L134,7.22,91.26,49,89.1,51.14,87,53.24l-1.12-1.12L82.73,49l2.15-2.15L87,44.82,131.9.86a3,3,0,0,1,4.22,0l32,32A3,3,0,0,1,168.14,37.1Z"/><path d="M91.26,49,89.1,51.14,87,53.24l28.63,28.63,4.21-4.27Zm0,0L89.1,51.14,87,53.24l28.63,28.63,4.21-4.27Zm0,0L89.1,51.14,87,53.24l28.63,28.63,4.21-4.27Zm0,0L89.1,51.14,87,53.24l28.63,28.63,4.21-4.27Zm60.62,61.13-.06-.18a2.83,2.83,0,0,0-.2-.43,2.65,2.65,0,0,0-.26-.39,3.28,3.28,0,0,0-.31-.34l-9.89-9.9h0s0,0,0,0l-17-17L91.26,49,90.1,47.86l-3.11-3L43.1,1.86a3,3,0,0,0-4.22,0l-32,32a3,3,0,0,0,0,4.22L23.07,54.61l2.27,2.32,24.52,25,4.2,4.28,1.54,1.56,27.08,27.59.25.25,1.56,1.59,2.39,2.45.25.25,26.6,27.1a2.44,2.44,0,0,0,.37.35,1.9,1.9,0,0,0,.37.26,2.74,2.74,0,0,0,.42.21A3,3,0,0,0,116,148h0a3,3,0,0,0,2.14-.91l3.13-3.23,26.54-27.33,3.33-3.44A3,3,0,0,0,151.88,110.15Zm-12.76,6.73-4.18,4.3-19,19.53-24.9-25.37-4.21-4.28L58.3,81.94l-4.2-4.28-23.54-24-4.2-4.28L13.22,36,41,8.22l13.4,13.12,4.29,4.19,24,23.5,3.15,3.09,51,51,0,0v0l7.88,7.87ZM91.26,49,89.1,51.14,87,53.24l28.63,28.63,4.21-4.27Zm0,0L89.1,51.14,87,53.24l28.63,28.63,4.21-4.27Zm0,0L89.1,51.14,87,53.24l28.63,28.63,4.21-4.27Z"/><path d="M60.62,23.62l-32.5,32.5a3,3,0,0,1-2.78.81l-2.27-2.32a3,3,0,0,1,.81-2.73l2.48-2.48L46.88,28.88l7.54-7.54,2-2a3,3,0,0,1,4.24,4.24Z"/><path d="M140.12,122.12a3,3,0,0,1-4.24,0L100.63,86.87a3.14,3.14,0,0,1-.54-.73l4-4.08a2.93,2.93,0,0,1,.8.57l35.25,35.25A3,3,0,0,1,140.12,122.12Z"/><path d="M93.19,71.23l-4,4a2.85,2.85,0,0,1-.9-.62L46.88,33.12a3,3,0,0,1,4.24-4.24L81.24,59,92.57,70.33A2.85,2.85,0,0,1,93.19,71.23Z"/><path d="M171.09,168.15A3,3,0,0,1,169,169a3.08,3.08,0,0,1-1.11-.21l-53-21A3,3,0,0,0,116,148h0a3,3,0,0,0,2.14-.91l3.13-3.23,27.11,10.75,9.74-9.74-10.31-28.34,3.33-3.44a3,3,0,0,0,.73-2.94L171.82,165A3,3,0,0,1,171.09,168.15Z"/><path d="M117.11,142.21l4.17,1.65-3.13,3.23A3,3,0,0,1,116,148h0a3,3,0,0,1-1.11-.21,2.74,2.74,0,0,1-.42-.21,1.9,1.9,0,0,1-.37-.26,2.44,2.44,0,0,1-.37-.35,3,3,0,0,1,3.38-4.76Z"/><path d="M151.15,113.09l-3.33,3.44-1.64-4.5a3,3,0,0,1,4.87-3.22,3.28,3.28,0,0,1,.31.34,2.65,2.65,0,0,1,.26.39,2.83,2.83,0,0,1,.2.43l.06.18A3,3,0,0,1,151.15,113.09Z"/><path d="M48,158a3,3,0,0,1-2.12-.88l-12-12a3,3,0,0,1,4.24-4.24l12,12A3,3,0,0,1,48,158Z"/><path d="M77.9,128.73l-2.14,2.17h0A3.2,3.2,0,0,1,75,131a3,3,0,0,1-2.12-.88l-12-12a3,3,0,1,1,4.24-4.24l12,12A3,3,0,0,1,77.9,128.73Z"/><path d="M63.81,143l-1.73,1.76A3.08,3.08,0,0,1,61,145a3,3,0,0,1-2.12-.88l-2.29-2.29-9.71-9.71a3,3,0,0,1,4.24-4.24l12,12A3,3,0,0,1,63.81,143Z"/><path d="M134.81,71,131,74.82a2.79,2.79,0,0,1-1.11-.7l-12-12a3,3,0,0,1,4.24-4.24l12,12A3.07,3.07,0,0,1,134.81,71Z"/><path d="M160.68,44.67a2.66,2.66,0,0,0-.56-.79l-3.56-3.56-8.44-8.44a3,3,0,0,0-4.24,4.24l8.47,8.47,3.53,3.53a2.94,2.94,0,0,0,.83.59Z"/><path d="M146.75,58.82l-3.89,4a2.85,2.85,0,0,1-1-.65l-12-12a3,3,0,0,1,4.24-4.24l12,12A2.88,2.88,0,0,1,146.75,58.82Z"/><line class="cls-4" x1="44.89" y1="95.29" x2="40.71" y2="91.11"/></g></g></svg>