<svg xmlns="http://www.w3.org/2000/svg" viewBox="0 0 201 171"><defs><style>.cls-1{fill:#faaf40;}.cls-2,.cls-3{fill:#00adee;}.cls-2,.cls-4,.cls-5{stroke:#000;}.cls-2,.cls-5{stroke-miterlimit:10;}.cls-4,.cls-5{fill:none;stroke-width:7px;}.cls-4{stroke-linejoin:round;}</style></defs><title>Development</title><g id="Layer_2" data-name="Layer 2"><g id="development"><rect class="cls-1" x="6" y="9" width="188" height="15"/><polygon class="cls-2" points="137.9 167.5 139 170.5 75 170.5 76 167.5 130 167.5 137.9 167.5"/><polygon class="cls-3" points="128 140 137.9 167 130 167 120.1 140 128 140"/><polygon class="cls-3" points="120.1 140 130 167 76 167 85 140 120.1 140"/><circle cx="97" cy="125" r="5"/><path class="cls-4" d="M3.5,80V15.5a12,12,0,0,1,12-12H141"/><path class="cls-4" d="M77,137.5H15.5a12,12,0,0,1-12-12V96"/><path class="cls-4" d="M158,3.5h27.5a12,12,0,0,1,12,12v110a12,12,0,0,1-12,12H120"/><polyline class="cls-5" points="66 167.5 76 137.5 119 137.5 120.1 140.5 130 167.5"/><polyline class="cls-4" points="51 167.5 66 167.5 76 167.5 130 167.5 137.9 167.5 146 167.5"/><line class="cls-5" x1="3" y1="113.5" x2="197" y2="113.5"/><polyline class="cls-5" points="6 25.5 197 25.5 200 25.5"/><polyline class="cls-4" points="72 57 54 70 72 82"/><polyline class="cls-4" points="125 57 143 70 125 82"/><line class="cls-4" x1="107.81" y1="55.17" x2="90.81" y2="86.17"/><circle cx="21" cy="15" r="3"/><circle cx="32" cy="15" r="3"/><circle cx="42" cy="15" r="3"/></g></g></svg>