<svg xmlns="http://www.w3.org/2000/svg" viewBox="0 0 193.23 196.14"><defs><style>.cls-1{fill:#ee4018;}.cls-2,.cls-3{fill:none;stroke-width:6px;}.cls-2,.cls-3,.cls-4{stroke:#000;}.cls-2{stroke-miterlimit:10;}.cls-3,.cls-4{stroke-linejoin:round;}.cls-4{stroke-linecap:round;stroke-width:2px;}</style></defs><title>Devsecops</title><g id="Layer_2" data-name="Layer 2"><g id="devsecops"><path class="cls-1" d="M165.3,92.79l-.27-.07c-4.15-1.11-8.28-2.26-12.44-3.3A3.4,3.4,0,0,1,149.93,87c-.27-.75-.55-1.51-.84-2.26-.79-2-1.65-4-2.6-6a3.49,3.49,0,0,1,.09-3.79q3.51-5.84,6.81-11.79c1.51-2.71,1.25-4.14-.92-6.31L150,54.3l-3-3c-2.87-2.86-3.93-3-7.52-1-3.74,2.11-7.48,4.21-11.16,6.42a3.42,3.42,0,0,1-3.63.06,80.41,80.41,0,0,0-8.08-3.36,3.87,3.87,0,0,1-2.79-3.07c-.12-.49-.25-1-.37-1.47-1-3.85-2-7.68-3.1-11.5-.72-2.54-1.63-3.41-3.84-3.6-.3,0-.62,0-1,0-2.74,0-5.48,0-8.22,0-3.93,0-4.82.68-5.86,4.5-1.11,4.08-2.24,8.15-3.26,12.26a3.64,3.64,0,0,1-2.68,2.91,67.17,67.17,0,0,0-8.08,3.37,3.61,3.61,0,0,1-3.94-.13q-5.91-3.57-12-6.89c-2.47-1.36-3.88-1.07-5.85.88s-4,4-5.94,5.94c-2.53,2.53-2.72,3.7-.92,6.9q3.3,5.87,6.72,11.64a3.06,3.06,0,0,1,.1,3.28,46,46,0,0,0-3.2,7.53,4.88,4.88,0,0,1-4.13,3.84C44.11,90.7,40,91.85,36,93c-2.94.86-3.59,1.83-3.6,4.83,0,2.74,0,5.48,0,8.21,0,.3,0,.58,0,.84.1,3.25.9,4,4.52,5,3.87,1,7.74,2.14,11.64,3.09l.26.06a4.08,4.08,0,0,1,3.31,3,59.32,59.32,0,0,0,3.22,7.74,3.66,3.66,0,0,1-.09,4c-2.37,3.94-4.63,7.95-6.84,12-.81,1.47-1,2.56-.68,3.62a6.09,6.09,0,0,0,1.55,2.24c1.92,1.94,3.86,3.87,5.8,5.8,2.72,2.72,4,2.89,7.36,1,3.67-2.1,7.38-4.15,11-6.38a3.74,3.74,0,0,1,4.12-.06,42,42,0,0,0,6.81,2.9l.4.13a4.6,4.6,0,0,1,3.6,3.89c.86,3.72,1.87,7.4,2.93,11.07.12.45.26.91.39,1.37.85,2.91,1.87,3.57,4.86,3.58h8.21c3.85,0,4.76-.68,5.77-4.38,1.15-4.2,2.29-8.4,3.36-12.62a3.3,3.3,0,0,1,2.33-2.57c3-1.08,5.9-2.33,8.77-3.65a3,3,0,0,1,3.13.11q5.78,3.43,11.63,6.71a31.74,31.74,0,0,0,3.46,1.45,14.89,14.89,0,0,0,2.78-1.65c2.14-2,4.17-4.1,6.24-6.17,2.57-2.59,2.76-3.87.94-7.07-2.19-3.84-4.38-7.68-6.64-11.48a3.19,3.19,0,0,1-.09-3.45,44.43,44.43,0,0,0,3.13-7.37,5,5,0,0,1,4.28-3.92c4.18-1,8.31-2.13,12.42-3.34,2.59-.77,3.27-1.84,3.29-4.51s0-5.6,0-8.39C169.53,94.77,168.85,93.78,165.3,92.79ZM69.86,97.1c.25-14.74,12.73-27,27.05-26.58C112,71,124,83.18,123.62,97.69c-.4,15-12.88,27.12-27.3,26.58C81.33,123.71,69.61,111.68,69.86,97.1Z"/><path class="cls-2" d="M165.3,92.79c-.12-3.18-1-4.05-4.49-5-3.9-1-7.8-2.12-11.72-3.11l-.72-.19A3.4,3.4,0,0,1,145.71,82a79.38,79.38,0,0,0-3.43-8.26,3.5,3.5,0,0,1,.08-3.78c2.35-3.89,4.61-7.83,6.82-11.79.9-1.62,1.17-2.78.78-3.91a6.59,6.59,0,0,0-1.71-2.41l-5.53-5.54c-2.88-2.86-3.93-3-7.52-1S127.72,49.58,124,51.8a3.44,3.44,0,0,1-3.63.06c-2.29-1.09-4.64-2.12-7-3l-1-.37a3.87,3.87,0,0,1-2.79-3.07c-1-3.91-2-7.79-3.1-11.66-.13-.44-.24-.87-.37-1.32-.82-2.87-1.88-3.62-4.82-3.63-2.74,0-5.48,0-8.22,0-3.93,0-4.82.69-5.86,4.5-1.11,4.08-2.25,8.16-3.26,12.26a3.67,3.67,0,0,1-2.68,2.92,65.58,65.58,0,0,0-8.08,3.37,3.61,3.61,0,0,1-4-.14c-3.93-2.37-7.94-4.66-12-6.88-2.47-1.36-3.88-1.08-5.85.87l-5.94,5.94c-2.53,2.54-2.72,3.71-.92,6.91,2.2,3.9,4.43,7.79,6.72,11.63a3.06,3.06,0,0,1,.1,3.28A46.43,46.43,0,0,0,48.14,81,4.85,4.85,0,0,1,44,84.85c-4.13.94-8.2,2.09-12.25,3.28C28.82,89,28.18,90,28.16,93c0,2.73,0,5.47,0,8.21,0,3.86.58,4.73,4.22,5.75l.31.08c4,1.08,7.91,2.19,11.9,3.16a4.07,4.07,0,0,1,3.31,3c.19.61.41,1.22.64,1.83.75,2,1.63,4,2.57,5.92a3.63,3.63,0,0,1-.08,3.95c-2.37,4-4.63,8-6.85,12-1.35,2.47-1.08,3.87.87,5.85l2.67,2.68,3.13,3.13c2.73,2.72,4,2.89,7.37.94,3.67-2.09,7.38-4.14,11-6.37a3.72,3.72,0,0,1,4.12-.06,41.44,41.44,0,0,0,7.2,3,4.61,4.61,0,0,1,3.61,3.9l.21.89c.92,3.88,2,7.72,3.11,11.54.74,2.55,1.61,3.37,3.82,3.55.31,0,.66,0,1,0h8.21c3.85,0,4.76-.69,5.77-4.39,1.14-4.19,2.29-8.39,3.36-12.61a3.29,3.29,0,0,1,2.33-2.57c3-1.09,5.89-2.33,8.77-3.65a3,3,0,0,1,3.13.1c3.84,2.29,7.73,4.53,11.63,6.72A34,34,0,0,0,139,151a14.67,14.67,0,0,0,2.78-1.65c2.14-2,4.16-4.1,6.23-6.17,2.58-2.58,2.77-3.86.94-7.07-2.18-3.84-4.37-7.68-6.64-11.47a3.21,3.21,0,0,1-.08-3.45,43.65,43.65,0,0,0,3.12-7.38,5,5,0,0,1,4.29-3.91c4.18-1,8.31-2.14,12.42-3.34,2.59-.77,3.27-1.84,3.29-4.51s0-5.6,0-8.4C165.31,93.36,165.31,93.07,165.3,92.79Zm-41.68,4.9c-.4,15-12.88,27.12-27.3,26.58-15-.56-26.71-12.59-26.46-27.17.25-14.74,12.73-27,27.05-26.58C112,71,124,83.18,123.62,97.69Z"/><path class="cls-3" d="M13.67,139.92a93.67,93.67,0,0,1,.14-87.1"/><path class="cls-3" d="M141.84,181.89A93.66,93.66,0,0,1,51.91,179"/><path class="cls-3" d="M180.08,54.54a93.66,93.66,0,0,1-2.65,88.82"/><path class="cls-3" d="M54.61,12.89a93.62,93.62,0,0,1,90.46,3.7"/><polygon class="cls-4" points="11.59 58.13 1.13 50.33 10.9 48.14 20.67 45.95 21.36 55.94 22.06 65.92 11.59 58.13"/><polygon class="cls-4" points="138.47 11.99 147.15 2.25 148.47 12.17 149.8 22.09 139.79 21.91 129.78 21.73 138.47 11.99"/><polygon class="cls-4" points="181.04 136.53 192.23 143.25 182.73 146.4 173.22 149.55 171.54 139.68 169.85 129.82 181.04 136.53"/><polygon class="cls-4" points="60.64 183.95 53.93 195.13 50.77 185.63 47.62 176.13 57.49 174.44 67.36 172.76 60.64 183.95"/></g></g></svg>