<svg xmlns="http://www.w3.org/2000/svg" viewBox="0 0 184 184"><defs><style>.cls-1{fill:#be1e2d;}.cls-2{fill:#0071bb;}</style></defs><title>diversity</title><g id="Layer_2" data-name="Layer 2"><g id="Diversity"><path class="cls-1" d="M83.5,69.07V90.5H57.58a3.82,3.82,0,0,0-.75.08,1.58,1.58,0,0,0-.37.11,1.42,1.42,0,0,0-.36.14,2.38,2.38,0,0,0-.44.25,2.11,2.11,0,0,0-.35.26.85.85,0,0,0-.17.16,2.45,2.45,0,0,0-.47.55,2.13,2.13,0,0,0-.16.25,3.1,3.1,0,0,0-.31.78,1.63,1.63,0,0,0-.07.3,2,2,0,0,0,0,.24,3.38,3.38,0,0,0,.07,1.14,1.4,1.4,0,0,0,.1.35,1.78,1.78,0,0,0,.14.36l0,.08a11.85,11.85,0,0,1,1.07,5,12,12,0,0,1-24,0,11.85,11.85,0,0,1,1.07-5l0-.08a1.78,1.78,0,0,0,.14-.36,1.4,1.4,0,0,0,.1-.35,3.38,3.38,0,0,0,.07-1.14,2,2,0,0,0,0-.24,1.63,1.63,0,0,0-.07-.3,3.1,3.1,0,0,0-.31-.78,2.13,2.13,0,0,0-.16-.25,2.45,2.45,0,0,0-.47-.55.85.85,0,0,0-.17-.16,2.11,2.11,0,0,0-.35-.26,2.38,2.38,0,0,0-.44-.25,1.42,1.42,0,0,0-.36-.14,1.58,1.58,0,0,0-.37-.11,3.82,3.82,0,0,0-.75-.08H4v-74A8.51,8.51,0,0,1,12.5,8h71V31.93a18.49,18.49,0,0,0-4-.43,19,19,0,0,0,0,38A18.49,18.49,0,0,0,83.5,69.07Z"/><path class="cls-2" d="M137.5,75.5a12,12,0,0,1,10,18.58,1.09,1.09,0,0,0-.08.15.94.94,0,0,0-.12.22,2.75,2.75,0,0,0-.21.51,1,1,0,0,0-.06.22,1.16,1.16,0,0,0,0,.18c0,.09,0,.18,0,.26a3.22,3.22,0,0,0,0,.82,1.65,1.65,0,0,0,.06.32,1.6,1.6,0,0,0,0,.21.65.65,0,0,0,0,.13,4.39,4.39,0,0,0,.24.56,1.75,1.75,0,0,0,.18.29,1.26,1.26,0,0,0,.2.27,1.09,1.09,0,0,0,.23.25,1.07,1.07,0,0,0,.25.23,1.26,1.26,0,0,0,.27.2l0,0,.15.08a.94.94,0,0,0,.22.12,2.75,2.75,0,0,0,.51.21l.22.06.18,0a.76.76,0,0,0,.21,0l.43,0H181v72a8.51,8.51,0,0,1-8.5,8.5h-75V155.92a17.8,17.8,0,0,0,4.5.58,17.5,17.5,0,0,0,0-35,17.8,17.8,0,0,0-4.5.58V99.5h27a2.42,2.42,0,0,0,.38,0l.26,0,.18,0,.22-.06a2.75,2.75,0,0,0,.51-.21.94.94,0,0,0,.22-.12l.15-.08s0,0,0,0a1.26,1.26,0,0,0,.27-.2,1.07,1.07,0,0,0,.25-.23,1.09,1.09,0,0,0,.23-.25,1.26,1.26,0,0,0,.2-.27,1.75,1.75,0,0,0,.18-.29,4.39,4.39,0,0,0,.24-.56.65.65,0,0,0,0-.13.83.83,0,0,0,0-.15.13.13,0,0,0,0-.06,1.65,1.65,0,0,0,.06-.32,3.17,3.17,0,0,0,0-.87.76.76,0,0,0,0-.21,1.16,1.16,0,0,0,0-.18,1,1,0,0,0-.06-.22,2.75,2.75,0,0,0-.21-.51.94.94,0,0,0-.12-.22,1.09,1.09,0,0,0-.08-.15,12,12,0,0,1,10-18.58Z"/><path d="M184,124.52V15.5A15.51,15.51,0,0,0,168.5,0H15.5A15.51,15.51,0,0,0,0,15.5v18H7v-18A8.51,8.51,0,0,1,15.5,7h71V30.93a18.49,18.49,0,0,0-4-.43,19,19,0,0,0,0,38,18.49,18.49,0,0,0,4-.43V89.5H60.57a3.65,3.65,0,0,0-.74.08,2.72,2.72,0,0,0-.38.11,1.17,1.17,0,0,0-.24.09l-.12,0,0,0h0a2.8,2.8,0,0,0-.25.14l-.06,0-.1.07a1.84,1.84,0,0,0-.22.17.21.21,0,0,0-.08.06,2.09,2.09,0,0,0-.22.2,2.71,2.71,0,0,0-.43.52,2.13,2.13,0,0,0-.16.25,3.45,3.45,0,0,0-.31.77.85.85,0,0,0,0,.17.76.76,0,0,0,0,.16,1.7,1.7,0,0,0,0,.22,3.07,3.07,0,0,0,0,.8,2,2,0,0,0,.06.34,2.42,2.42,0,0,0,.1.36,2.67,2.67,0,0,0,.14.36,11.82,11.82,0,0,1,1.1,5,12,12,0,0,1-24,0,11.82,11.82,0,0,1,1.1-5,2.67,2.67,0,0,0,.14-.36,2.42,2.42,0,0,0,.1-.36,3.39,3.39,0,0,0,.07-1.14,1.7,1.7,0,0,0,0-.22,1.94,1.94,0,0,0-.07-.33,3.45,3.45,0,0,0-.31-.77,2.13,2.13,0,0,0-.16-.25,3.6,3.6,0,0,0-.43-.52,2.09,2.09,0,0,0-.22-.2,2,2,0,0,0-.4-.3L34,89.85l0,0a2.67,2.67,0,0,0-.36-.14,2.72,2.72,0,0,0-.38-.11,3.65,3.65,0,0,0-.74-.08H7V58.3H0V168.5A15.51,15.51,0,0,0,15.5,184h153A15.51,15.51,0,0,0,184,168.5V152h-7v16.5a8.51,8.51,0,0,1-8.5,8.5h-75V152.92a17.8,17.8,0,0,0,4.5.58,17.5,17.5,0,0,0,0-35,17.8,17.8,0,0,0-4.5.58V96.5h27a3.4,3.4,0,0,0,.45,0,.51.51,0,0,0,.17,0l.28-.06a.94.94,0,0,0,.22-.07,1,1,0,0,0,.29-.11l0,0,.16-.08a.21.21,0,0,0,.1-.06s0,0,0,0,0,0,0,0,0,0,0,0l.18-.11a1.26,1.26,0,0,0,.27-.2,4.08,4.08,0,0,0,.48-.48,1.89,1.89,0,0,0,.2-.27,1.75,1.75,0,0,0,.18-.29l0-.07a2.48,2.48,0,0,0,.24-.64,1.33,1.33,0,0,0,0-.19,3.07,3.07,0,0,0,.06-1.21.55.55,0,0,0,0-.17,2.6,2.6,0,0,0-.23-.75,2.4,2.4,0,0,0-.11-.23s0,0,0,0a.21.21,0,0,0-.06-.1s0,0,0,0,0,0,0,0,0,0,0,0a.42.42,0,0,0-.09-.14h0a12,12,0,1,1,20.06,0h0a.83.83,0,0,0-.08.12s0,0,0,0a.68.68,0,0,0-.12.22,1.63,1.63,0,0,0-.09.19,2.08,2.08,0,0,0-.12.32l-.06.22a1.16,1.16,0,0,0,0,.18,2.34,2.34,0,0,0,0,.26,3.22,3.22,0,0,0,0,.82,1.65,1.65,0,0,0,.06.32,1.6,1.6,0,0,0,0,.21.65.65,0,0,0,0,.13,4.39,4.39,0,0,0,.24.56,1.75,1.75,0,0,0,.18.29,1.89,1.89,0,0,0,.2.27,4.08,4.08,0,0,0,.48.48,1.89,1.89,0,0,0,.27.2l0,0,.12.07h0a.94.94,0,0,0,.22.12l.19.09a2.08,2.08,0,0,0,.32.12l.16,0a2.74,2.74,0,0,0,.37.08h0a2.77,2.77,0,0,0,.49,0H177v28Zm-86,1a10.5,10.5,0,0,1,0,21,10.34,10.34,0,0,1-6-1.89,2.5,2.5,0,0,0-.35-.21l-.18-.09a1.69,1.69,0,0,0-.28-.12,3.31,3.31,0,0,0-.42-.12,2,2,0,0,0-.48-.07h-.15a2.63,2.63,0,0,0-.56,0,3,3,0,0,0-.41.08,1.38,1.38,0,0,0-.27.08h0a1.43,1.43,0,0,0-.34.14l-.26.13,0,0a.76.76,0,0,0-.19.12,1.15,1.15,0,0,0-.26.19,4.08,4.08,0,0,0-.48.48,2.69,2.69,0,0,0-.2.27,1.75,1.75,0,0,0-.18.29.76.76,0,0,0-.09.18,1.69,1.69,0,0,0-.12.28,3.31,3.31,0,0,0-.12.42,3.46,3.46,0,0,0-.09.78V177h-71A8.51,8.51,0,0,1,7,168.5v-72H27.74a18.68,18.68,0,0,0-.24,3,19,19,0,0,0,38,0,18.68,18.68,0,0,0-.24-3H86.5v28a3.46,3.46,0,0,0,.09.78,3.31,3.31,0,0,0,.12.42,1.69,1.69,0,0,0,.12.28,1.51,1.51,0,0,0,.09.18,1.75,1.75,0,0,0,.18.29,2.69,2.69,0,0,0,.2.27,4.08,4.08,0,0,0,.48.48,3.29,3.29,0,0,0,1.06.6,2,2,0,0,0,.35.1,3.23,3.23,0,0,0,1.12.08.62.62,0,0,0,.19,0,1.6,1.6,0,0,0,.29,0,3,3,0,0,0,.4-.12,1.78,1.78,0,0,0,.29-.12,1.51,1.51,0,0,0,.18-.09,2.5,2.5,0,0,0,.35-.21A10.34,10.34,0,0,1,98,125.5Zm53.83-36c.11-.41.21-.82.29-1.23,0-.17.07-.34.1-.52s.08-.48.11-.72,0-.42.07-.63.06-.62.07-.92,0-.66,0-1a19,19,0,0,0-38,0c0,.32,0,.65,0,1s0,.61.07.92,0,.42.07.63.07.48.11.72.06.35.1.52c.08.41.18.82.29,1.23H93.5V63.07a3,3,0,0,0,0-.43,2.57,2.57,0,0,0-.07-.4,1.81,1.81,0,0,0-.09-.31l-.09-.22a2.6,2.6,0,0,0-.16-.34,2.13,2.13,0,0,0-.16-.25,1.89,1.89,0,0,0-.2-.27,2.73,2.73,0,0,0-.23-.25,1.88,1.88,0,0,0-.34-.3,1.51,1.51,0,0,0-.26-.18L91.66,60a2.81,2.81,0,0,0-.62-.26,2.68,2.68,0,0,0-.49-.11l-.18,0-.36,0a3.4,3.4,0,0,0-.45,0,2.66,2.66,0,0,0-.39.07,3.73,3.73,0,0,0-.44.14l-.43.2a12,12,0,1,1,0-21,3.57,3.57,0,0,0,.87.34,2.66,2.66,0,0,0,.39.07,3,3,0,0,0,1,0l.27-.05a.9.9,0,0,0,.22-.06,2.81,2.81,0,0,0,.62-.26,3.19,3.19,0,0,0,.81-.61,2.73,2.73,0,0,0,.23-.25,1.89,1.89,0,0,0,.2-.27,2.13,2.13,0,0,0,.16-.25,2.6,2.6,0,0,0,.16-.34,2.33,2.33,0,0,0,.11-.28c0-.09,0-.17.07-.25a2.57,2.57,0,0,0,.07-.4,3,3,0,0,0,0-.43V7h75a8.51,8.51,0,0,1,8.5,8.5v74Z"/></g></g></svg>