<?xml version="1.0" encoding="UTF-8" standalone="no"?>
<svg
   xmlns:dc="http://purl.org/dc/elements/1.1/"
   xmlns:cc="http://creativecommons.org/ns#"
   xmlns:rdf="http://www.w3.org/1999/02/22-rdf-syntax-ns#"
   xmlns:svg="http://www.w3.org/2000/svg"
   xmlns="http://www.w3.org/2000/svg"
   xmlns:sodipodi="http://sodipodi.sourceforge.net/DTD/sodipodi-0.dtd"
   xmlns:inkscape="http://www.inkscape.org/namespaces/inkscape"
   inkscape:version="1.0 (4035a4f, 2020-05-01)"
   height="265"
   width="265"
   sodipodi:docname="family-friendly-events-icon.svg"
   id="svg2636"
   version="1.1"
   viewBox="0 0 265 265">
  <metadata
     id="metadata2640">
    <rdf:RDF>
      <cc:Work
         rdf:about="">
        <dc:format>image/svg+xml</dc:format>
        <dc:type
           rdf:resource="http://purl.org/dc/dcmitype/StillImage" />
        <dc:title>family-friendly-events</dc:title>
      </cc:Work>
    </rdf:RDF>
  </metadata>
  <sodipodi:namedview
     inkscape:current-layer="svg2636"
     inkscape:window-maximized="0"
     inkscape:window-y="23"
     inkscape:window-x="0"
     inkscape:cy="174.84434"
     inkscape:cx="88.535859"
     inkscape:zoom="1.97586"
     showgrid="false"
     id="namedview2638"
     inkscape:window-height="1047"
     inkscape:window-width="1279"
     inkscape:pageshadow="2"
     inkscape:pageopacity="0"
     guidetolerance="10"
     gridtolerance="10"
     objecttolerance="10"
     borderopacity="1"
     bordercolor="#666666"
     pagecolor="#ffffff" />
  <defs
     id="defs2618">
    <style
       id="style2616">.cls-1{fill:#0071bb;}.cls-2{fill:#00b6cd;}.cls-3{fill:#00adee;}</style>
  </defs>
  <title
     id="title2620">family-friendly-events</title>
  <g
     transform="translate(0.50610873,39.476481)"
     data-name="Layer 2"
     id="Layer_2">
    <g
       data-name="Family Friendly Events"
       id="Family_Friendly_Events">
      <path
         id="path2622"
         d="M 111,142.08 H 5.58 c 0,-0.23 0,-0.45 0,-0.69 a 52.68,52.68 0 0 1 52.69,-52 h 1.36 a 52.75,52.75 0 0 1 41.84,22.5 23.36,23.36 0 0 0 -0.21,3.15 25.6,25.6 0 0 0 9.18,19.64 50,50 0 0 1 0.52,6 c 0.04,0.49 0.04,0.95 0.04,1.4 z"
         class="cls-1" />
      <path
         id="path2624"
         d="M 251.08,142.08 H 145.67 c 0,-0.23 0,-0.45 0,-0.69 0,-0.24 0,-0.53 0,-0.78 0,-0.25 0,-0.41 0,-0.61 0,-1 0.11,-2 0.21,-3 a 24.33,24.33 0 0 0 4.28,-2.48 c 0.49,-0.35 1,-0.71 1.43,-1.1 v 0 a 25.6,25.6 0 0 0 9.29,-19.74 24,24 0 0 0 -0.25,-3.51 v 0 c 0,-0.4 -0.12,-0.81 -0.19,-1.21 a 25.27,25.27 0 0 0 -0.68,-2.76 53.94,53.94 0 0 1 4.23,-4 c 1.15,-1 2.33,-1.93 3.56,-2.81 a 52.28,52.28 0 0 1 30.78,-9.92 h 1.36 a 52.71,52.71 0 0 1 51.33,51.33 c 0.06,0.37 0.06,0.83 0.06,1.28 z"
         class="cls-2" />
      <path
         id="path2626"
         d="m 97.12,183 a 32.6,32.6 0 0 1 65.19,0 z"
         class="cls-3" />
      <path
         id="path2628"
         d="m 85.68,80 a 43,43 0 1 0 -43.15,0.32 q 1.3,0.75 2.67,1.41 A 61.14,61.14 0 0 0 0,140.7 h 7 a 54.06,54.06 0 0 1 88,-42 l 4.41,-5.44 A 61.15,61.15 0 0 0 80.23,82.73 42.6,42.6 0 0 0 85.68,80 Z M 30.55,43 A 33.29,33.29 0 1 1 63.83,76.28 33.33,33.33 0 0 1 30.55,43 Z" />
      <path
         id="path2630"
         d="m 219.48,83.19 c 0.72,-0.38 1.43,-0.77 2.12,-1.18 a 43,43 0 1 0 -43.15,0.32 42.24,42.24 0 0 0 4.47,2.22 60.81,60.81 0 0 0 -18,10 l 4.41,5.44 a 54.05,54.05 0 0 1 88,42 h 7 A 61.16,61.16 0 0 0 219.48,83.19 Z M 166.47,45 A 33.29,33.29 0 1 1 199.76,78.28 33.34,33.34 0 0 1 166.47,45 Z" />
      <path
         id="path2632"
         d="m 151.17,143.67 c 0.79,-0.5 1.57,-1 2.32,-1.59 0.6,-0.44 1.19,-0.9 1.76,-1.38 a 35.34,35.34 0 0 0 10.42,-39.31 v 0 l -0.25,-0.66 c -0.2,-0.48 -0.39,-1 -0.6,-1.42 a 35.42,35.42 0 0 0 -65.51,2.09 2.41,2.41 0 0 1 -0.08,0.25 32.49,32.49 0 0 0 -1.23,4.25 34.74,34.74 0 0 0 -0.88,7.75 35.27,35.27 0 0 0 12.61,27 c 0.57,0.48 1.16,0.94 1.76,1.38 0.75,0.56 1.53,1.09 2.32,1.59 a 42.33,42.33 0 0 0 -23.62,37.94 h 9.71 a 32.59,32.59 0 0 1 65.18,0 h 9.71 a 42.33,42.33 0 0 0 -23.62,-37.89 z m -2.31,-10.28 v 0 c -0.46,0.39 -1,0.75 -1.43,1.1 a 24.78,24.78 0 0 1 -4.29,2.48 23.82,23.82 0 0 1 -4.39,1.55 25.51,25.51 0 0 1 -12.52,0 25.58,25.58 0 0 1 -10.11,-5.13 v 0 l -0.11,-0.1 a 25.6,25.6 0 0 1 -9.18,-19.64 23.36,23.36 0 0 1 0.21,-3.15 c 0,-0.12 0,-0.25 0,-0.37 a 25.66,25.66 0 0 1 50,-4 27.77,27.77 0 0 1 0.67,2.76 c 0.07,0.4 0.14,0.81 0.2,1.21 v 0 a 24,24 0 0 1 0.25,3.51 25.6,25.6 0 0 1 -9.3,19.78 z" />
    </g>
  </g>
</svg>
