<svg xmlns="http://www.w3.org/2000/svg" viewBox="0 0 170 171"><defs><style>.cls-1{fill:#00adee;}.cls-2,.cls-4,.cls-5{fill:none;stroke:#000;stroke-width:6px;}.cls-2,.cls-5{stroke-linejoin:round;}.cls-3{fill:#0071bb;}.cls-4{stroke-miterlimit:10;}.cls-5{stroke-linecap:round;}</style></defs><title>FDIC</title><g id="Layer_2" data-name="Layer 2"><g id="FDIC"><polygon class="cls-1" points="91 7 125 25 159 43 91 43 23 43 57 25 91 7"/><polyline class="cls-2" points="124.14 24.5 164 46 84.28 46 4.55 46 44.41 24.5 84.28 3 113 18"/><polygon class="cls-3" points="152 143 170 171 123.42 171 111.12 171 7 171 22 143 32 143 56 143 120 143 142 143 152 143"/><path d="M95.65,97.21a10.12,10.12,0,0,1-2.82,7.72,10.57,10.57,0,0,1-4.3,2.77c-.74.26-1.51.42-2.27.61-.22,0-.27.15-.26.35,0,1.28,0,2.56,0,3.84a1.18,1.18,0,0,1-.82,1.26.89.89,0,0,1-.32,0c-1.19,0-2.38,0-3.56,0a1.2,1.2,0,0,1-1.2-1.2c0-1.34,0-2.68,0-4,0-.27-.08-.35-.46-.38a5.88,5.88,0,0,1-1.36-.28,17.5,17.5,0,0,1-7.39-4.22.84.84,0,0,1-.07-1.08c1-1.39,2-2.75,3.08-4.12a.9.9,0,0,1,1.27-.15,17.92,17.92,0,0,0,3.9,2.43,9.6,9.6,0,0,0,5.3.9,4.24,4.24,0,0,0,3.15-1.82,2.81,2.81,0,0,0-.65-4,12.39,12.39,0,0,0-2.78-1.54c-1.95-.82-3.92-1.6-5.86-2.44a15.06,15.06,0,0,1-3.71-2.28,8.56,8.56,0,0,1-3.12-5,9.35,9.35,0,0,1,2.39-8.51,11.6,11.6,0,0,1,4.91-3.07c.45-.15.91-.27,1.39-.41,0-1.45,0-2.89,0-4.33A1.21,1.21,0,0,1,80.92,67a.78.78,0,0,1,.26,0H84.9A1.14,1.14,0,0,1,86,68c0,.7,0,1.4,0,2.1v2.28c.88.18,1.72.33,2.55.55a14.59,14.59,0,0,1,6,3.09.81.81,0,0,1,.18,1c-.82,1.56-1.66,3.13-2.51,4.66a.74.74,0,0,1-1.08.24,13.33,13.33,0,0,0-5.92-2.73,7.21,7.21,0,0,0-4.48.52,3.12,3.12,0,0,0-1.89,3.08,2.64,2.64,0,0,0,.55,1.4,9.52,9.52,0,0,0,3.7,2.34c2,.81,4,1.56,5.93,2.43a12.82,12.82,0,0,1,4.77,3.37A8,8,0,0,1,95.65,97.21Z"/><line class="cls-4" x1="28" y1="137" x2="28" y2="111"/><polyline class="cls-4" points="28 96 28 46 52 46 116 46 138 46 138 137"/><line class="cls-5" x1="52" y1="46" x2="52" y2="134"/><line class="cls-5" x1="116" y1="46" x2="116" y2="134"/><line class="cls-5" x1="119" y1="165" x2="107" y2="165"/><polyline class="cls-5" points="107 165 3 165 18 137 28 137 52 137 116 137 138 137 148 137 166 165 119 165"/></g></g></svg>