<svg xmlns="http://www.w3.org/2000/svg" viewBox="0 0 166 188"><defs><style>.cls-1{fill:#faaf40;}.cls-2,.cls-3{fill:none;stroke:#000;stroke-linejoin:round;stroke-width:6px;}.cls-3{stroke-linecap:round;}</style></defs><title>GSA</title><g id="Layer_2" data-name="Layer 2"><g id="GSA"><path class="cls-1" d="M97.54,77v8h-34V77c0-10.82,7.63-19.61,17-19.61S97.54,66.17,97.54,77Z"/><path class="cls-1" d="M125.43,151.52A115.33,115.33,0,0,1,87.54,180a17.7,17.7,0,0,1-5.88,1.86c-3.33.28-6.54-1.18-9.52-2.72-12.82-6.62-24.67-15.31-34-26.29-12.28-14.38-19.94-32.23-24.63-50.55S6.88,65.08,5,46.26A131.9,131.9,0,0,0,81,9.84a130.93,130.93,0,0,0,76,36.37,281.84,281.84,0,0,1-17.3,82.23,75.25,75.25,0,0,1-14.26,23.08m-14-23.52L116,86.12a3.29,3.29,0,0,0-3.29-3.29H103V76.49c0-12.57-10.26-23.67-22.82-24A23.54,23.54,0,0,0,56,76v6.85H46.33A3.29,3.29,0,0,0,43,86.12v21.53A38.22,38.22,0,0,0,64.61,142l.08,0c.55.27,1.12.52,1.69.77l.23.09C80.89,148.89,95,144.91,111.46,128Z"/><path d="M75.41,50.26C65.79,52.85,58,63.42,58,73.38v3.31a3.37,3.37,0,0,0,3.37,3.37h.26A3.37,3.37,0,0,0,65,76.69V73.26A17,17,0,0,1,86.5,56.84C93.42,58.63,99,66.25,99,73.4v3.28a3.38,3.38,0,0,0,3.38,3.38h.24A3.38,3.38,0,0,0,106,76.68v-3.3A24.07,24.07,0,0,0,75.41,50.26Z"/><path class="cls-2" d="M139,140.77C118.8,167.54,83,185,83,185s-43.5-15.5-58.5-47.5a146.67,146.67,0,0,1-7.33-19.86"/><path class="cls-2" d="M12.28,98.89A538.62,538.62,0,0,1,3,43S51,38,83,3c0,0,33,36,80,40,0,0-1,62-20,92q-1.87,3-4,5.77"/><path d="M89.26,102.47c1,3.59-.42,6.6-4.42,9.08q.85,3.26,1.72,6.54c.73,2.76,1.47,5.53,2.21,8.29,0,0,0,0,0,0A1.29,1.29,0,0,1,87.52,128H76.64a1.29,1.29,0,0,1-1.25-1.62q1.33-5,2.66-10c.43-1.61.85-3.23,1.26-4.82q-6-3.69-4.42-9.08a7.47,7.47,0,0,1,14.37,0Z"/><path class="cls-3" d="M114,111v-1a32.09,32.09,0,0,1-32,32h0a32.09,32.09,0,0,1-32-32V88.73A3.74,3.74,0,0,1,53.73,85h56.54A3.74,3.74,0,0,1,114,88.73V97"/></g></g></svg>