<?xml version="1.0" encoding="UTF-8" standalone="no"?>
<svg
   xmlns:dc="http://purl.org/dc/elements/1.1/"
   xmlns:cc="http://creativecommons.org/ns#"
   xmlns:rdf="http://www.w3.org/1999/02/22-rdf-syntax-ns#"
   xmlns:svg="http://www.w3.org/2000/svg"
   xmlns="http://www.w3.org/2000/svg"
   xmlns:sodipodi="http://sodipodi.sourceforge.net/DTD/sodipodi-0.dtd"
   xmlns:inkscape="http://www.inkscape.org/namespaces/inkscape"
   inkscape:version="1.0 (4035a4f, 2020-05-01)"
   height="220"
   width="220"
   sodipodi:docname="healthcare-icon.svg"
   id="svg1460"
   version="1.1"
   viewBox="0 0 220 219.99999">
  <metadata
     id="metadata1464">
    <rdf:RDF>
      <cc:Work
         rdf:about="">
        <dc:format>image/svg+xml</dc:format>
        <dc:type
           rdf:resource="http://purl.org/dc/dcmitype/StillImage" />
        <dc:title>health-care-options</dc:title>
      </cc:Work>
    </rdf:RDF>
  </metadata>
  <sodipodi:namedview
     inkscape:current-layer="svg1460"
     inkscape:window-maximized="0"
     inkscape:window-y="23"
     inkscape:window-x="0"
     inkscape:cy="164.39383"
     inkscape:cx="97.749415"
     inkscape:zoom="2.1383735"
     showgrid="false"
     id="namedview1462"
     inkscape:window-height="1009"
     inkscape:window-width="1230"
     inkscape:pageshadow="2"
     inkscape:pageopacity="0"
     guidetolerance="10"
     gridtolerance="10"
     objecttolerance="10"
     borderopacity="1"
     bordercolor="#666666"
     pagecolor="#ffffff" />
  <defs
     id="defs1446">
    <style
       id="style1444">.cls-1{fill:#be1e2d;}.cls-2{fill:#00b6cd;}</style>
  </defs>
  <title
     id="title1448">health-care-options</title>
  <g
     transform="translate(0,23.382257)"
     data-name="Layer 2"
     id="Layer_2">
    <g
       data-name="Healthcare Options"
       id="Healthcare_Options">
      <path
         id="path1450"
         d="m 185,89.4 q -1.62,2.37 -3.58,4.78 c -1.15,1.41 -2.39,2.83 -3.74,4.25 -0.46,0.5 -0.93,1 -1.44,1.51 h -6.49 a 3.39,3.39 0 0 1 -0.84,-2.26 V 57.51 h -1.77 v -1.24 h -25.6 v 1.24 h -1.77 v 40.17 a 3.39,3.39 0 0 1 -0.84,2.26 h -41 v 1.24 h -1.85 v 29.14 h 40.17 a 3.5,3.5 0 0 1 3.5,3.5 v 2.6 l -35.56,35.58 -1.53,-1.55 -70,-70 C 10.64,78.41 12,57.63 14.82,47.21 A 45.68,45.68 0 0 1 59.05,13.28 c 11.08,0 25.93,3.93 41.43,19.41 l 3.71,3.73 3.74,-3.73 c 21.8,-21.8 42.43,-20.39 52.81,-17.62 a 46.24,46.24 0 0 1 32.58,32.6 c 0.2,0.74 0.4,1.54 0.56,2.38 1.87,8.95 2.06,23.36 -8.88,39.35 z"
         class="cls-1" />
      <path
         id="path1452"
         d="m 207.78,106 v 25.6 h -38.4 a 5.28,5.28 0 0 0 -5.27,5.27 v 38.4 h -25.6 v -38.4 a 5.28,5.28 0 0 0 -5.27,-5.27 H 94.84 V 106 h 38.4 a 5.27,5.27 0 0 0 5.27,-5.27 V 62.29 h 25.6 v 38.4 a 5.27,5.27 0 0 0 5.27,5.27 z"
         class="cls-2" />
      <path
         id="path1454"
         d="M 216.06,94.18 H 175.89 V 54 a 3.5,3.5 0 0 0 -3.5,-3.5 h -36.14 a 3.5,3.5 0 0 0 -3.5,3.5 V 94.18 H 92.58 a 3.5,3.5 0 0 0 -3.5,3.5 v 36.14 a 3.5,3.5 0 0 0 3.5,3.5 h 40.17 v 40.17 a 3.5,3.5 0 0 0 3.5,3.5 h 36.14 a 3.5,3.5 0 0 0 3.5,-3.5 v -40.17 h 40.17 a 3.5,3.5 0 0 0 3.5,-3.5 V 97.68 a 3.5,3.5 0 0 0 -3.5,-3.5 z m -3.5,36.14 h -40.17 a 3.5,3.5 0 0 0 -3.5,3.5 V 174 h -29.14 v -40.18 a 3.5,3.5 0 0 0 -3.5,-3.5 H 96.08 v -29.14 h 40.17 a 3.45,3.45 0 0 0 2.66,-1.24 3.39,3.39 0 0 0 0.84,-2.26 V 57.51 h 29.14 v 40.17 a 3.39,3.39 0 0 0 0.84,2.26 3.46,3.46 0 0 0 2.66,1.24 h 40.17 z" />
      <path
         id="path1456"
         d="M 99.68,179.86 22,102.16 C 3.59,83.77 -3.76,61.26 1.83,40.42 A 54.7,54.7 0 0 1 40.42,1.83 C 60.34,-3.51 81.77,3 99.68,19.59 125.32,-4.26 152.94,-2.74 170.58,7 a 54.57,54.57 0 0 1 27.17,60.18 l -6.83,-1.53 A 47.63,47.63 0 0 0 167.21,13.14 c -20.7,-11.37 -45,-6.2 -65.06,13.84 L 99.68,29.4 97.21,26.93 C 80.39,10.11 60.86,3.6 42.23,8.59 A 47.71,47.71 0 0 0 8.59,42.23 c -5,18.63 1.52,38.16 18.34,55 l 72.75,72.77 13.77,-13.77 5,4.95 z" />
    </g>
  </g>
</svg>
