<?xml version="1.0" encoding="UTF-8" standalone="no"?>
<svg
   xmlns:dc="http://purl.org/dc/elements/1.1/"
   xmlns:cc="http://creativecommons.org/ns#"
   xmlns:rdf="http://www.w3.org/1999/02/22-rdf-syntax-ns#"
   xmlns:svg="http://www.w3.org/2000/svg"
   xmlns="http://www.w3.org/2000/svg"
   xmlns:sodipodi="http://sodipodi.sourceforge.net/DTD/sodipodi-0.dtd"
   xmlns:inkscape="http://www.inkscape.org/namespaces/inkscape"
   inkscape:version="1.0 (4035a4f, 2020-05-01)"
   height="940.38666"
   width="1211.3419"
   sodipodi:docname="our-work.svg"
   id="svg1113"
   version="1.1"
   viewBox="0 0 1211.3419 940.38666">
  <metadata
     id="metadata1117">
    <rdf:RDF>
      <cc:Work
         rdf:about="">
        <dc:format>image/svg+xml</dc:format>
        <dc:type
           rdf:resource="http://purl.org/dc/dcmitype/StillImage" />
      </cc:Work>
    </rdf:RDF>
  </metadata>
  <sodipodi:namedview
     inkscape:current-layer="svg1113"
     inkscape:window-maximized="0"
     inkscape:window-y="23"
     inkscape:window-x="0"
     inkscape:cy="477.54"
     inkscape:cx="261.83002"
     inkscape:zoom="0.54199605"
     showgrid="false"
     id="namedview1115"
     inkscape:window-height="480"
     inkscape:window-width="776"
     inkscape:pageshadow="2"
     inkscape:pageopacity="0"
     guidetolerance="10"
     gridtolerance="10"
     objecttolerance="10"
     borderopacity="1"
     bordercolor="#666666"
     pagecolor="#ffffff" />
  <defs
     id="defs835">
    <style
       id="style833">.cls-1{fill:#e5f7fd;}.cls-2{fill:#345d74;}.cls-3{fill:#ee4018;}.cls-4{fill:#fff;}.cls-5{fill:#b3c2cb;stroke:#b3c2cb;stroke-width:0.08px;}.cls-13,.cls-14,.cls-5{stroke-miterlimit:10;}.cls-6{fill:#8da4b1;}.cls-7{fill:#8cbfe0;}.cls-8{fill:#a6cde7;}.cls-9{fill:#e6ebee;}.cls-10{fill:#f4f9fc;}.cls-11{fill:#013451;}.cls-12{fill:#b2d4eb;}.cls-13,.cls-14,.cls-21{fill:none;}.cls-13{stroke:#013451;stroke-width:7px;}.cls-14{stroke:#f4f9fc;stroke-width:5px;}.cls-15{fill:#f0532f;}.cls-16{fill:#f3795d;}.cls-17{fill:#ee441d;}.cls-18{fill:#f16444;}.cls-19{fill:#f16646;}.cls-20{fill:#d9e1e5;}.cls-22{fill:#f9baac;}.cls-23{fill:#fee9cc;}.cls-24{fill:#00b6cd;}.cls-25{fill:#1a4862;}.cls-26{fill:#a3712e;}.cls-27{fill:#8099a8;}.cls-28{fill:#404040;}</style>
  </defs>
  <title
     id="title837">our-work-header</title>
  <g
     transform="translate(-750.16998,-101.96)"
     data-name="Background Panels"
     id="Background_Panels">
    <path
       id="path839"
       d="M 1082.7,236.13 V 877.9 h 245 c 0.06,-1.21 0.12,-2.43 0.19,-3.64 1.46,-25.65 3.64,-51.27 7.31,-76.7 q 1.41,-9.67 3.06,-19.31 c 2.77,-16.44 5.93,-32.84 8.87,-49.26 2.73,-15.33 5.27,-30.67 7.08,-46.09 1.12,-9.44 2,-18.9 2.45,-28.4 1.27,-25.75 -0.17,-52.15 7.85,-76.64 7.21,-22 21.58,-40.88 32.17,-61.5 1.85,-3.62 3.63,-7.42 3.78,-11.49 0.22,-5.52 -2.54,-10.65 -4.66,-15.76 -7.29,-17.67 -7.17,-37.41 -6.93,-56.53 0.22,-17.68 0.66,-36.21 9.36,-51.59 6,-10.58 16,-20.4 14.87,-32.51 -0.3,-3.22 -0.78,-7.6 2.29,-8.62 1.47,-0.49 3.06,0.19 4.46,0.85 l 32.45,15.36 c 5.16,2.45 10.47,5 14.31,9.23 7.53,8.27 11.51,18.91 21.18,24.54 a 105.57,105.57 0 0 1 11.35,7.79 c 4.55,3.44 11.72,12.21 11.72,12.21 0,0 -11.6,12.6 -12.79,13.94 -8.25,9.33 -11,11.78 -19.27,21.11 a 218.84,218.84 0 0 0 23.39,6.45 c 0,0 -2.89,6.19 -4.12,9.46 -3.08,8.23 -3.28,8.37 -4.52,17 -4,27.69 -22.56,56 -10.81,81.44 9.65,20.86 34.86,28.16 56.36,36.33 a 244.83,244.83 0 0 1 61.76,34.43 c 3.76,2.87 7.57,6 10,10 a 18,18 0 0 1 1.92,4.18 c 1.77,5.73 0.27,11.91 -1.26,17.71 q -0.93,3.52 -1.88,7 -15.93,59.66 -35.15,118.36 c -0.5,1.55 -1.12,3.22 -2.42,4.13 a 2.55,2.55 0 0 1 -0.39,0.24 c -1.58,0.85 -3.51,0.35 -5.24,-0.15 l -51.32,-15.07 c -0.18,1.28 -0.38,2.56 -0.59,3.83 -0.52,3.11 -3.13,5.74 -5.68,7.38 a 12.48,12.48 0 0 1 -9.51,1.25 12.65,12.65 0 0 1 -7.38,-5.68 13.8,13.8 0 0 1 -1.26,-9.46 c 0,-0.46 0,-0.92 0,-1.39 a 12.42,12.42 0 0 1 0.32,-5 l 0.63,-1.51 a 10.82,10.82 0 0 1 0.9,-4 c 0.24,-0.61 0.51,-1.2 0.79,-1.75 q 18.08,-37 36.15,-74.06 -33.29,-9.71 -65.5,-22.62 -25.24,72.26 -50.51,144.5 c -2.24,6.41 -4.83,13.28 -10.49,17 -6.71,4.46 -16.8,3.83 -21.32,10.5 -2.38,3.51 -2.4,8.05 -2.34,12.29 q 0.21,15.09 0.43,30.19 h 478.4 c -0.17,-2 -0.31,-3.93 -0.41,-5.88 -0.19,-3.4 -0.45,-6.77 -0.6,-10.15 -0.18,-4 -0.29,-8 -0.75,-11.92 0,0.16 0,0.34 0,0.5 -0.07,-0.74 -0.14,-1.48 -0.23,-2.22 -0.09,-0.74 -0.16,-1.62 -0.24,-2.44 -0.73,-8 -0.76,-16.13 -1.56,-24.17 0,-0.07 0,-0.13 0,-0.2 -1.68,-16 -4.07,-39.7 -6.76,-64.66 v 0 c 0.1,-2.4 0,-4.82 0,-7.28 h -0.82 c -3.61,-33 -7.67,-67.12 -11.28,-87.78 -0.43,0 -0.79,0.15 0,0 -2.33,-7.11 -6.92,-23.09 -11.26,-37.27 -3,-9.69 -5.43,-18.64 -6.06,-23.61 0.11,-0.53 0.25,-1 0.4,-1.56 a 14.14,14.14 0 0 1 0.39,-1.49 c 1.49,-3.52 1.58,-3.66 -1.48,-5.69 -0.82,-15.36 -1,-41 -0.49,-50.13 0.17,-3.22 1.88,-11.93 0.67,-12 -15.55,-0.43 -38.71,-1.29 -53.78,-5.13 -10.21,-2.62 -20.53,-6.17 -28.4,-13.17 a 197.51,197.51 0 0 0 -17,-13.47 c -1.4,-1 -3.52,-0.7 -4.73,-1.93 -1.65,-1.65 -1.36,-4.51 -0.1,-6.47 1.26,-1.96 3.23,-3.35 5,-4.9 a 67.29,67.29 0 0 0 10.56,-12.33 c 7.42,-10.7 8.25,-8.68 13.75,-5.1 5,3.26 6.83,0.92 11.28,5.58 a 180.69,180.69 0 0 1 39.1,-3.61 c 18.12,0.32 36.56,3.33 54.16,-1 -1.13,-2.53 1.69,-5 4.14,-6.26 a 175.41,175.41 0 0 1 44,-16.23 c 2.09,-0.47 4.43,-0.86 6.29,0.23 2.66,1.56 2.94,5.31 2.41,8.37 -0.53,3.06 -1.56,6.27 -0.36,9.13 0.94,2.27 3.07,3.77 4.93,5.36 7.06,6.08 11.15,14.92 13.76,23.86 7.79,26.6 4.2,55 4,82.68 a 330.66,330.66 0 0 0 3.57,50.87 c 0.68,4.5 -1,18.18 -2.47,27.49 4.59,3.87 7.24,14.35 8.9,20.89 0.34,1.36 0.65,2.55 0.92,3.47 a 172.26,172.26 0 0 1 2,88.87 c -6.23,25.35 -11.11,48.22 -8.93,74.69 1,12 2.28,24 3.66,36.07 h 25.6 V 236.13 Z"
       class="cls-1" />
    <rect
       id="rect841"
       height="61.709999"
       width="869.06"
       y="227.34"
       x="1092.45"
       class="cls-2" />
    <circle
       id="circle843"
       r="9.2600002"
       cy="255.11"
       cx="1857.64"
       class="cls-3" />
    <circle
       id="circle845"
       r="9.2600002"
       cy="255.11"
       cx="1887.46"
       class="cls-4" />
    <circle
       id="circle847"
       r="9.2600002"
       cy="255.11"
       cx="1917.29"
       class="cls-5" />
    <path
       id="path849"
       d="m 1961.5,875.16 v -191 l -1.77,-0.7 a 83,83 0 0 1 -9.68,-4.51 54.05,54.05 0 0 1 -7.28,-5.23 6.37,6.37 0 0 0 -6.33,1.11 c 0.34,1.36 0.65,2.55 0.92,3.47 a 172.91,172.91 0 0 1 5.9,29.75 171,171 0 0 1 -3.86,59.12 c -6.23,25.35 -11.11,48.22 -8.93,74.69 1,12 2.28,24 3.66,36.07 0.07,0.71 0.15,1.43 0.23,2.15 h 22.15 c 5.49,-0.03 4.99,0.45 4.99,-4.92 z"
       class="cls-6" />
    <path
       id="path851"
       d="m 1855.14,660.43 a 1,1 0 0 1 0,-0.17 l -9.77,0.78 c 0.6,0 1.19,-0.06 1.82,-0.11 2.63,-0.15 5.3,-0.31 7.95,-0.5 z"
       class="cls-6" />
    <path
       id="path853"
       d="m 1302.8,682.78 c -14.29,0 -28.57,0.12 -42.85,0.12 -13.25,0 -26.49,-0.09 -39.75,-0.12 -4.52,0 -9,0.05 -13.56,0.09 -2.48,0 -4.17,1.73 -4.86,5.17 1.6,0.1 2.54,0.56 2.56,2.33 0,5.62 0.18,11.24 0.42,16.87 0.09,2.17 -0.75,2.83 -2.86,2.81 q -13.41,-0.1 -26.82,0 c -1.25,0 -3.08,-0.8 -3.43,1.48 -0.29,2 -0.11,3.7 2.24,4.33 a 2.49,2.49 0 0 1 1.95,3 q -0.52,4.95 -1,9.9 c 0,0.38 -0.12,1 0.09,1.13 3.36,2.68 2.54,6.46 2.56,9.92 0,5.73 -0.25,11.45 -0.39,17.17 0,1.22 0,2.43 0,4 -3,-0.52 -4.12,1.61 -5.74,4 -0.45,-2.59 -0.75,-4.38 -1.09,-6.34 -2.87,1.16 -5,0.57 -7.49,-1.1 -5.21,-3.55 -10.47,-2.56 -14.81,2.32 -1,1.1 -1.47,1.42 -2.69,0.53 a 4.08,4.08 0 0 0 -2.29,-0.71 c -3.52,0 -7,0.11 -10.54,0.12 -0.91,0 -1.91,1.37 -2.79,-0.56 -0.46,-1 -4.79,0.57 -5,1.95 -0.33,2.27 -1.93,2.8 -3.65,2.71 -2.82,-0.12 -4,-1.33 -4.27,-3.76 -0.07,-0.59 -0.19,-1.16 -0.33,-2 l -2.49,1.21 a 12.91,12.91 0 0 0 -6.83,-2.57 c -3.82,-0.48 -7.82,-0.72 -11.11,-3.11 a 2.87,2.87 0 0 1 -0.74,-0.77 c -1.21,0.15 -2.44,0.27 -3.67,0.32 a 29.84,29.84 0 0 1 -9,1 v 121.11 c 0,1.08 0,1.92 0,2.57 0,2.59 0.59,2.15 4.81,2.14 q 113.61,-0.09 227.21,-0.2 c 5.52,0 11,0 16.53,0 0.09,-2 0.21,-4.07 0.32,-6.09 1.46,-25.64 3.64,-51.27 7.31,-76.71 0.49,-3.31 1,-6.61 1.51,-9.92 -2.4,0 -2.45,-0.29 -2.46,-3.1 0,-1.92 0,-3.84 0,-5.77 0,-8.62 0,-17.23 0,-25.85 0,-6.14 -0.22,-12.27 -0.31,-18.41 -0.06,-3.81 1.21,-5.1 5,-5.09 1.41,0 2.84,0.11 4.25,0.09 a 14.45,14.45 0 0 0 2.18,-0.17 4.61,4.61 0 0 1 1.75,0 c 2.74,-15.28 5.27,-30.58 7.1,-46 h -4 c -16.96,0.05 -33.97,-0.04 -50.97,-0.04 z m -101,70.75 c -2.41,2 -1.49,4.64 -1.73,7.08 -0.07,0.65 -0.88,1.22 -1.47,2 2.52,2 2.52,2.21 0.59,4.57 -1.7,2.07 -3.76,4 -3.5,7.08 0,0.32 -0.6,0.7 -0.93,1.08 1.33,1.87 2.9,0.51 4.62,0.64 -1,1.34 0.27,3.45 -2.28,4.28 -0.68,0.21 -0.7,2.49 -1.1,4.19 -1.56,0.43 -3.53,1.1 -5.54,1.46 -2.42,0.43 -2.88,-0.1 -2.88,-2.89 q 0,-20.71 0,-41.42 v -8 c 0,-4.7 1.55,-6.27 6.28,-6.26 2.36,0 4.61,-0.23 6.79,1.56 a 3,3 0 0 1 1.37,2.59 q 0,10.11 0,20.25 c 0.03,0.62 0.17,1.51 -0.17,1.79 z m 25,-8.07 -3.26,-2 v 2.25 c -1.49,0.16 -3.26,-0.12 -4.42,0.6 -1.16,0.72 -1.59,2.4 -2.34,3.67 a 3,3 0 0 0 0.37,0.43 c 0.52,0.45 1.07,0.9 1.6,1.34 -0.71,0.45 -1.38,1.22 -2.12,1.28 a 20.5,20.5 0 0 1 -4,-0.28 2.46,2.46 0 0 1 -2.42,-2.65 c 0,-5.92 0,-11.85 0.1,-17.77 0.05,-2.4 2.51,-4.48 4.93,-4.49 2.66,0 5.31,0 8,0 2,0 3.55,1.2 3.6,3.18 0.16,4.66 0.03,9.32 0.03,14.44 z m 24.74,12.79 c 0,1.08 -0.87,2.16 -1.33,3.24 -0.76,-1.09 -1.53,-2 -2.14,-3.11 -0.52,-0.89 -0.61,-2.21 -1.34,-2.75 -0.91,-0.7 -2.59,-0.49 -3.36,-1.24 a 33.58,33.58 0 0 1 -3.49,-4.72 l -3.65,0.87 c 1.24,-1.93 1.84,-3.24 0.18,-4.33 a 1.52,1.52 0 0 1 -0.38,-1.13 c 0,-4.28 -0.18,-8.58 0,-12.86 0.08,-1.42 1.1,-2.79 1.78,-4.38 3.43,0 6.89,0 10.36,0 1.28,0 3.38,2.59 3.39,4.34 0.16,8.7 0.16,17.39 0.05,26.07 z m 26,-5.33 q 0,15.2 0,30.39 c 0,3.1 0,3.12 -3,3.14 -3.68,0 -7.37,0 -11,0 -3.2,-0.05 -3.36,-0.22 -3.36,-3.27 q 0,-25.32 0,-50.64 c 0,-3 1.37,-4.31 4.37,-4.28 h 1.24 c 3.9,0.07 7.93,-0.69 11.86,2.24 -0.09,7.3 -0.08,14.86 -0.09,22.42 z m 25.27,-19.33 q 0,25 0,50 c 0,0.8 -0.11,1.6 -0.19,2.93 h -6.41 c -2.45,0 -4.91,-0.11 -7.36,0 -2,0.07 -2.73,-0.76 -2.71,-2.72 0.08,-5.21 0,-10.42 0,-15.64 0,-11.65 -0.1,-23.3 0,-35 0,-1.68 1,-3.36 1.6,-5.29 3.92,0 7.8,-0.22 11.64,0.08 2.09,0.17 2.43,2.56 3.29,4.13 0.33,0.39 0.16,1 0.16,1.51 z m 25.44,46.88 c 1,5 0.23,5.87 -2.34,5.8 -3.68,-0.08 -7.37,0 -11,0 -2.76,0 -2.86,-0.12 -2.87,-3 0,-8.49 0,-17 0,-25.47 h -0.26 q 0,-12 0,-23.91 a 13.15,13.15 0 0 1 0.15,-2.74 c 0.51,-2.47 1.41,-3.16 3.95,-3.18 2.54,-0.02 5.31,0 8,0 4.71,0.05 5.71,2.62 4.27,9.9 a 111.48,111.48 0 0 0 0.12,42.6 z"
       class="cls-7" />
    <path
       id="path855"
       d="m 1858.05,880.05 c -0.07,-0.72 -0.12,-1.43 -0.17,-2.15 -0.17,-2 -0.31,-3.93 -0.42,-5.88 -0.18,-3.4 -0.44,-6.77 -0.59,-10.15 -0.18,-4 -0.29,-8 -0.75,-11.92 0,0.16 0,0.34 0,0.5 -0.07,-0.74 -0.15,-1.48 -0.23,-2.22 -0.08,-0.74 -0.16,-1.62 -0.25,-2.44 -0.73,-8 -0.76,-16.13 -1.55,-24.17 0,-0.07 0,-0.13 0,-0.2 -1.69,-16 -4.07,-39.7 -6.77,-64.66 0,0.2 0,0.4 0,0.59 -0.08,1.54 -0.45,1.59 -3.88,1.21 v -9.1 h 3.11 c -3.61,-33 -7.67,-67.12 -11.28,-87.78 -0.43,0 -0.79,0.15 0,0 -2.34,-7.11 -6.92,-23.09 -11.26,-37.27 -0.28,-0.11 -0.59,-0.2 -0.94,-0.3 a 11.27,11.27 0 0 1 -2.56,-0.9 c -1.43,-0.76 -2.2,-1.74 -1.1,-3.47 0.36,-0.55 0.08,-1.62 -0.13,-2.39 -0.53,-1.92 -1.58,-3.75 -1.73,-5.67 a 36.43,36.43 0 0 1 0.4,-10.88 c 0.11,-0.53 0.25,-1 0.4,-1.56 a 14.14,14.14 0 0 1 0.39,-1.49 c 1.49,-3.52 1.58,-3.66 -1.48,-5.69 -0.13,-0.1 -0.28,-0.19 -0.43,-0.29 -0.43,-0.29 -1.13,-0.58 -1.17,-0.93 -0.68,-4.76 -6.23,-7.86 -4.57,-13.49 0.28,-0.94 -0.62,-2.29 -1.16,-3.35 -0.79,-1.55 -0.57,-3 -0.5,-4.69 0.14,-3.43 2.53,-6.73 0.64,-10.26 -0.37,-0.7 -0.87,-1.34 -1.18,-2.08 -0.24,-0.55 -0.57,-1.38 -0.32,-1.74 1.21,-1.8 -0.49,-2.22 -0.94,-3.22 h -0.88 c -1.48,4.31 -3,8.61 -4.38,13 a 3.28,3.28 0 0 0 0.5,2.26 c 1.57,2.7 2.52,5.3 0.29,8.21 a 4.58,4.58 0 0 0 -0.42,3.18 7.47,7.47 0 0 1 -2.11,7 3.21,3.21 0 0 0 -0.89,1.23 c -0.93,2.85 -2,5.47 -5.14,6.76 -0.42,0.17 -0.69,2 -0.31,2.58 3.45,5.69 2.13,11.9 2.14,17.95 a 4.65,4.65 0 0 1 -1.1,2.5 c -1,1.26 -1.44,2.37 -0.3,3.82 1,1.27 0,2.14 -1,2.74 a 28.25,28.25 0 0 1 -3.08,1.32 c -1.82,0.78 -3.36,1.48 -3.07,4.15 a 5.13,5.13 0 0 1 -3.16,5.12 c -10.9,5.59 -19.1,13.9 -23.73,25.21 -2.19,5.36 -3.38,11.15 -4.66,16.83 a 7.68,7.68 0 0 1 -3.65,5.32 c -2.17,1.32 -3.92,2.6 -3.35,5.8 0.21,1.19 -1.52,3 -2.78,4.08 -3.26,2.79 -3.69,4.29 -0.76,7.19 a 6.91,6.91 0 0 1 2,5.71 c -0.12,3.69 0,7.38 0,11.07 0,2.68 -0.6,3.23 -3.17,4.09 a 73.24,73.24 0 0 0 -7.38,2.88 c -0.69,0.32 -1.6,1.47 -1.48,2 0.46,1.88 -0.46,2.74 -1.81,3.7 -1.67,1.21 -1.9,2.57 -0.22,4.47 a 5.75,5.75 0 0 1 1.4,5.59 3.88,3.88 0 0 0 0.18,1.81 c 2.3,8.27 0.63,16.7 1,25 a 3.69,3.69 0 0 1 -1.56,2.41 c -1.5,1.19 -1.7,2.27 -0.63,3.92 1.41,2.15 0.84,3.28 -1.66,3.9 -3.29,0.8 -6.63,1.47 -9.87,2.47 a 26.2,26.2 0 0 0 -4.65,2.52 5.2,5.2 0 0 0 0.87,1.35 6.52,6.52 0 0 1 2.21,7.58 2.57,2.57 0 0 1 -2.78,1.91 c -6,0 -12.06,0.05 -18.1,0.16 -3.38,0.06 -6.74,0.42 -10.11,0.37 a 59,59 0 0 1 -6.69,-0.81 c -1.92,-0.25 -2.6,-1.45 -2.49,-3.22 0.14,-2.14 0.24,-4.29 0.51,-6.41 0.15,-1.15 -0.14,-2 -1.27,-2 -7.36,0 -14.71,0 -22.12,0 0,2.86 0,5.39 0,7.92 0,2.09 -0.81,3.13 -3,3.41 -2.72,0.35 -5.39,1.07 -8.49,1.71 v -8.45 c 0,-2.87 0,-5.73 0,-8.6 0,-1.6 0.32,-3.22 -1.47,-4.37 -0.55,-0.34 -0.5,-1.65 -0.74,-2.6 -0.09,-0.06 -0.25,-0.27 -0.42,-0.3 -6.68,-0.72 -5.22,-1.78 -5.33,-6.63 -0.12,-5.73 0.32,-11.46 0.23,-17.17 -0.09,-5.71 -0.74,-11.43 -0.81,-17.14 -0.16,-12.5 0,-25 -0.18,-37.49 -0.25,-14.21 -0.86,-28.42 -1.2,-42.65 -0.16,-6.34 0,-12.7 -0.06,-19 -0.14,-11.05 -0.35,-22.1 -0.54,-33.14 0,-3.06 -0.26,-6.12 -0.18,-9.18 0.08,-3.69 -1.53,-6.88 -2.76,-10.17 -2.09,-5.53 -4.34,-11 -6.49,-16.52 -0.69,-1.78 -1.25,-3.6 -2,-5.83 a 6.64,6.64 0 0 0 -0.85,1.41 c -1.12,5.55 -4.41,10.21 -6.4,15.43 -2.5,6.57 -5.11,13 -5,20.31 0.13,9.5 -0.73,19 -1.07,28.52 -0.19,5.5 -0.34,11 -0.5,16.53 0,1.76 -0.09,3.52 -0.15,5.27 0,2.14 -0.12,4.28 -0.19,6.42 -0.14,4.39 -0.39,8.79 -0.6,13.18 -0.13,2.75 -0.38,5.51 -0.41,8.27 0,0.36 0,0.71 0,1.07 a 153.66,153.66 0 0 1 -1,17.53 c 0,0.24 -0.06,0.47 -0.07,0.71 -0.58,5.4 0,10.93 -0.18,16.4 -0.33,10 -0.86,20 -1.27,30 a 88.38,88.38 0 0 0 -0.23,11.05 c 0.4,4.55 -0.26,9.19 -0.37,13.78 -0.12,4.08 -0.1,8.16 -0.16,12.24 0,0.87 -0.11,1.73 -0.2,3 a 54.73,54.73 0 0 1 -6,-3.64 c -0.73,-0.57 -0.88,-1.91 -1.27,-2.91 -1.1,-2.91 -2.33,-3.57 -5.33,-2.75 a 7.17,7.17 0 0 0 -1.12,0.5 c -0.25,-0.29 -0.56,-0.48 -0.6,-0.73 -0.47,-2.68 -1.61,-4.59 -4.44,-5 q -4.35,13.9 -8.88,27.74 c -0.55,1.7 -1.23,3.54 -2.81,4.37 a 5.27,5.27 0 0 1 -3.62,0.27 c -0.55,-0.12 -1.1,-0.27 -1.62,-0.42 l -53,-15.58 a 37.5,37.5 0 0 1 -3.07,8.15 c -1.41,2.87 -4.45,4.73 -7.38,5.68 a 12.36,12.36 0 0 1 -15.19,-8.63 12.27,12.27 0 0 1 0.42,-7.54 9.34,9.34 0 0 1 -0.51,-3.47 21.39,21.39 0 0 1 0.44,-3.47 12.41,12.41 0 0 1 1.12,-3.95 l -0.64,-0.37 -0.12,-0.07 c -1.28,-0.71 -2.47,-1.12 -3.17,0.8 -0.81,2.22 -2.68,0.37 -4,0.92 -1,2.73 3,2.51 2.87,5 -2.91,0 -5.81,0 -8.72,-0.06 -0.38,0 -0.92,-0.72 -1.06,-1.2 a 7.53,7.53 0 0 1 -0.11,-2.13 c 0,-12.91 0,-25.82 0,-38.73 0,-2.3 0.44,-3.74 3.09,-3.78 1.49,0 2.11,-1.08 2.06,-2.53 a 25.6,25.6 0 0 1 0,-2.77 c 0.13,-1.56 -0.49,-2.36 -2,-2.89 -3.29,-1.11 -6.47,-2.52 -9.75,-3.67 a 10.51,10.51 0 0 0 -3.32,-0.4 c -4.62,0 -9.23,0 -14,0 -0.13,-1.07 -0.31,-1.85 -0.32,-2.64 0,-1.46 0,-2.92 0,-4.38 l -9.15,26.18 c 1.89,0 3.92,0 5.93,0 1,0 3.51,3.2 3.61,4.42 a 2.19,2.19 0 0 0 0.75,1.84 v 40.22 l -1,3.53 c -3.65,0.76 -3.68,0.75 -5.69,-2.41 l -2.67,0.26 c -0.13,-1.32 -0.17,-2.51 -0.4,-3.67 a 6.84,6.84 0 0 0 -0.88,-1.72 c -0.42,-0.76 -1.33,-1.65 -1.19,-2.29 0.5,-2.15 -0.06,-3.48 -2.05,-4.48 a 2.79,2.79 0 0 1 -1.18,-2.14 q -0.09,-9.82 -0.06,-19.64 l -22.38,64 c -2.25,6.42 -4.83,13.29 -10.5,17 -6.7,4.44 -16.79,3.83 -21.31,10.49 -2.38,3.51 -2.4,8 -2.34,12.29 q 0.21,15.36 0.44,30.7 v 1.91 h 138.6 v 0.23 z m -22.33,-122.66 c -0.38,2.59 -2.34,1.34 -4.11,1.35 0,-2.7 0,-5.23 0,-7.75 0,-1.5 1,-1.56 2.07,-1.57 1.07,-0.01 2.09,0.14 2.11,1.56 a 41.5,41.5 0 0 1 -0.07,6.41 z m 3.85,-49.39 c 0,1.31 0,2.64 0,4 0,1.65 -0.87,2 -2.35,2 -1.48,0 -2,-0.67 -1.94,-2 0,-2.33 0,-4.65 0,-7.16 4.23,-0.55 4.23,-0.55 4.29,3.16 z m -8,-28.23 c 0.11,-2 0,-4.06 0,-6.44 1.14,-0.11 1.93,-0.17 2.72,-0.23 1.39,-0.12 2.1,0.44 2.07,1.9 0,1.63 -0.06,3.26 0,4.89 0.09,1.82 -0.66,2.54 -2.5,2.54 -1.84,0 -2.39,-0.91 -2.29,-2.66 z m -3.34,24.82 c 0,2.72 0,5.24 0,7.76 0,1.45 -0.88,1.63 -2,1.61 -1.12,-0.02 -2.14,-0.06 -2.16,-1.5 a 45.68,45.68 0 0 1 0,-6.41 c 0.38,-2.62 2.38,-1.31 4.16,-1.46 z m -5.86,-31.21 c 4.2,-0.45 4.22,-0.44 4.25,3 0,1.24 -0.06,2.46 0,3.69 0.09,1.67 -0.62,2.41 -2.31,2.44 -1.69,0.03 -2,-0.94 -2,-2.35 0.1,-2.16 0.06,-4.41 0.06,-6.78 z m -2.1,77.75 c 0,-1.57 1,-1.69 2.29,-1.73 1.46,0 2,0.58 2,2 0,2.33 0,4.67 0,7.39 h -4.24 z m -3.54,-44 c 0,1.32 0,2.65 0,4 0,2.69 -0.69,3.18 -3.29,2.86 a 1.52,1.52 0 0 1 -1.56,-1.79 c 0,-2.41 0,-4.83 0,-7.49 1,-0.11 1.49,-0.2 2,-0.2 2.7,-0.05 2.77,0.01 2.85,2.64 z m -3.24,-106.35 a 23,23 0 0 1 -0.15,12.34 25.26,25.26 0 0 1 0.15,-12.32 z m 1.82,72.61 c 0,2.58 0,5 0,7.44 0,1.46 -1,1.59 -2.06,1.64 -1.06,0.05 -2.09,-0.16 -2.13,-1.55 -0.04,-1.39 -0.06,-3.06 -0.05,-4.58 0.04,-3.4 0.13,-3.47 4.24,-2.93 z m -4.83,79.4 c 0,-3.52 0,-3.52 3.94,-3.15 v 8.89 c -3.79,0.76 -3.91,0.67 -3.94,-3 -0.01,-0.88 -0.01,-1.8 0,-2.72 z m -6.16,3.44 c 0,2.6 -2.21,3.9 -4.47,2.66 a 2,2 0 0 1 -0.77,-1.46 c -0.08,-2.53 0,-5.07 0,-7.85 l 2.32,-0.17 c 2,-0.14 3.1,0.68 3,2.83 -0.13,1.35 -0.06,2.69 -0.08,4.01 z m 0.77,-155.69 c 3.6,-0.25 3.62,-0.25 3.63,2.82 0.01,3.07 0,6.29 0,9.76 -1.29,0.06 -2.34,0.11 -3.64,0.19 z m -0.19,103.82 a 2.21,2.21 0 0 1 2.08,2.22 c 0,1.7 0,3.39 0,5.09 0,1.49 -0.5,2.23 -2.13,2.22 -1.63,-0.01 -2.27,-0.53 -2.16,-2.14 0.06,-0.9 0,-1.82 0,-2.73 v 0 c 0,-0.83 0,-1.64 0,-2.45 -0.08,-1.51 0.47,-2.23 2.21,-2.19 z m -1.42,-30.59 c 0.09,0.89 0.23,1.69 0.24,2.48 0,2.13 0,4.26 0,6.33 -4,0.68 -4.14,0.56 -4.17,-2.79 0,-1.93 0,-3.86 0,-6 z M 1800,600.62 c 0.93,3.14 0.82,10.91 -0.09,13 -1.31,-1.7 -1.39,-10.7 0.09,-13 z m -4.34,104.27 c 0,2.5 -0.05,4.84 0,7.17 0,1.51 -0.67,1.92 -2,1.91 -1.33,-0.01 -2.22,-0.24 -2.2,-1.8 0.02,-1.56 0,-2.85 0,-4.28 0,-3.67 0.1,-3.74 4.2,-3 z m -5.85,-30.51 a 2.63,2.63 0 0 1 0.23,-0.83 c 3.69,-0.85 3.87,-0.72 3.91,2.87 0,1.92 0,3.82 0,5.66 -4,0.62 -4.16,0.48 -4.19,-2.83 -0.01,-1.62 0.01,-3.25 0.05,-4.87 z m -0.27,75.3 c 4.17,-0.42 4.17,-0.42 4.19,3.13 0,0.91 0,1.84 0,2.75 0,3.66 -0.13,3.74 -4.19,3 z m -6.91,9 c -4.4,0.48 -4.41,0.48 -4.42,-3.15 0,-1.23 0.07,-2.45 0,-3.68 -0.08,-1.6 0.35,-2.47 2.2,-2.46 1.85,0.01 2.28,0.85 2.23,2.46 -0.06,2.22 -0.01,4.45 -0.01,6.82 z m 1.37,-45.8 c 0,1.56 -1.33,1.44 -2.24,1.25 -0.68,-0.15 -1.71,-0.88 -1.75,-1.4 -0.19,-2.5 -0.08,-5 -0.08,-7.84 h 4.07 c 0,2.77 0.05,5.38 0,7.98 z M 1780.54,673 c 1.91,0 2.19,1 2.1,2.49 0,0.71 0,1.42 0,2.13 0,0.71 0,1.62 0,2.42 0.07,1.45 -0.38,2.32 -2,2.32 -1.62,0 -2.52,-0.43 -2.41,-2.24 a 38.54,38.54 0 0 0 0,-4.56 c -0.14,-1.7 0.35,-2.56 2.31,-2.56 z m -10.42,31.84 h 4.13 v 7.7 c 0,1.43 -0.92,1.61 -2,1.6 -1.08,-0.01 -2.09,0 -2.08,-1.5 -0.04,-2.48 -0.05,-5 -0.05,-7.76 z m -3.1,46 c 0,-1.51 1.13,-1.4 2.17,-1.45 1.04,-0.05 2,0.29 1.94,1.68 0,2.43 0,4.87 0,7.68 H 1767 c 0,-2.66 0,-5.26 0,-7.88 z m -8.46,-43 c 0,-3.58 0,-3.58 4.37,-3.13 0,2.56 0,5 0,7.41 0,1.53 -0.9,1.84 -2.2,1.82 -1.3,-0.02 -2.23,-0.25 -2.18,-1.83 0.04,-1.39 -0.02,-2.82 0.01,-4.24 z m -1.26,42.93 c 0,-0.49 1.14,-1.15 1.85,-1.31 1,-0.22 2.15,-0.14 2.16,1.37 0,2.53 0,5.06 0,7.92 h -4.1 c 0.01,-2.75 -0.09,-5.35 0.09,-7.95 z m -11.54,2.08 c 0,-3.72 0.16,-3.83 4.39,-3 v 7.45 c 0,1.62 -1.12,1.63 -2.3,1.67 -1.18,0.04 -2.16,-0.3 -2.1,-1.83 0.06,-1.53 0.01,-2.84 0.01,-4.26 z"
       class="cls-7" />
    <rect
       id="rect857"
       height="43.16"
       width="289.20001"
       y="194.59"
       x="991.90997"
       class="cls-2" />
    <circle
       id="circle859"
       r="7.77"
       cy="217.03999"
       cx="1199.1"
       class="cls-3" />
    <circle
       id="circle861"
       r="7.77"
       cy="217.03999"
       cx="1224.13"
       class="cls-4" />
    <circle
       id="circle863"
       r="7.77"
       cy="217.03999"
       cx="1249.17"
       class="cls-5" />
    <rect
       id="rect865"
       height="292.66"
       width="289.20001"
       y="237.75999"
       x="991.90997"
       class="cls-8" />
    <path
       id="path867"
       d="m 1163.5,286.51 h 79.11 a 1.5,1.5 0 0 0 0,-3 h -79.11 a 1.5,1.5 0 0 0 0,3 z"
       class="cls-9" />
    <path
       id="path869"
       d="m 1163.5,316.48 h 77.5 a 1.5,1.5 0 0 0 0,-3 h -77.5 a 1.5,1.5 0 0 0 0,3 z"
       class="cls-9" />
    <path
       id="path871"
       d="m 1163.5,349.76 h 77.9 a 1.5,1.5 0 0 0 0,-3 h -77.9 a 1.5,1.5 0 0 0 0,3 z"
       class="cls-9" />
    <path
       id="path873"
       d="m 1163.5,385.59 h 77.9 a 1.5,1.5 0 0 0 0,-3 h -77.9 a 1.5,1.5 0 0 0 0,3 z"
       class="cls-10" />
    <path
       id="path875"
       d="m 1031.42,478.82 h 77.9 a 1.5,1.5 0 0 0 0,-3 h -77.9 a 1.5,1.5 0 0 0 0,3 z"
       class="cls-9" />
    <path
       id="path877"
       d="m 1156.31,478.8 h 77.9 a 1.5,1.5 0 0 0 0,-3 h -77.9 a 1.5,1.5 0 0 0 0,3 z"
       class="cls-10" />
    <path
       id="path879"
       d="m 1031.42,449.12 h 77.9 a 1.5,1.5 0 0 0 0,-3 h -77.9 a 1.5,1.5 0 0 0 0,3 z"
       class="cls-9" />
    <path
       id="path881"
       d="m 1156.31,449.1 h 77.9 a 1.5,1.5 0 0 0 0,-3 h -77.9 a 1.5,1.5 0 0 0 0,3 z"
       class="cls-10" />
    <rect
       id="rect883"
       height="118.98"
       width="118.98"
       y="270.25"
       x="1018.6"
       class="cls-11" />
    <rect
       id="rect885"
       height="149.67"
       width="356.67001"
       y="590.40997"
       x="832.22998"
       class="cls-3" />
    <rect
       id="rect887"
       height="116.64"
       width="188.03"
       y="556.12"
       x="750.16998"
       class="cls-12" />
    <path
       id="path889"
       d="m 957.14,634.26 h 181.59 c 2.46,0 4.93,0.07 7.39,0 h 0.32 a 1.5,1.5 0 0 0 0,-3 h -181.6 c -2.46,0 -4.93,-0.07 -7.39,0 h -0.31 a 1.5,1.5 0 0 0 0,3 z"
       class="cls-10" />
    <path
       id="path891"
       d="m 957.14,664.23 h 181.59 c 2.46,0 4.93,0.07 7.39,0 h 0.32 a 1.5,1.5 0 0 0 0,-3 h -181.6 c -2.46,0 -4.93,-0.06 -7.39,0 h -0.31 a 1.5,1.5 0 0 0 0,3 z"
       class="cls-10" />
    <path
       id="path893"
       d="m 870.43,697.51 h 264.8 c 3.58,0 7.16,0.07 10.74,0 h 0.47 a 1.5,1.5 0 0 0 0,-3 H 881.63 c -3.57,0 -7.16,-0.07 -10.73,0 h -0.47 a 1.5,1.5 0 0 0 0,3 z"
       class="cls-10" />
    <polyline
       id="polyline895"
       points="812.39 599.44 790.79 615.04 812.39 629.44"
       class="cls-13" />
    <polyline
       id="polyline897"
       points="875.98 599.44 897.57 615.04 875.98 629.44"
       class="cls-13" />
    <line
       id="line899"
       y2="633.03998"
       x2="835.17999"
       y1="595.84003"
       x1="855.58002"
       class="cls-13" />
    <rect
       id="rect901"
       height="100.14"
       width="158.21001"
       y="101.96"
       x="1316.88"
       class="cls-3" />
    <polyline
       id="polyline903"
       points="1368.59 139.11 1349.99 152.55 1368.59 164.95"
       class="cls-14" />
    <polyline
       id="polyline905"
       points="1423.38 139.11 1441.99 152.55 1423.38 164.95"
       class="cls-14" />
    <line
       id="line907"
       y2="168.06"
       x2="1388.23"
       y1="136.00999"
       x1="1405.8101"
       class="cls-14" />
  </g>
  <g
     transform="translate(-750.16998,-101.96)"
     id="People">
    <path
       d="m 1816.41,461.25 h 2 c 1.65,0 3.29,-0.06 4.94,-0.15 1.65,-0.09 3.58,-0.2 5.37,-0.32 1,-0.06 2,-0.17 3.06,-0.27 l 2.1,-0.21 c 1.68,-0.13 3.35,-0.27 5,-0.34 l 1.92,-0.07 c 3.29,-0.12 18.49,1.37 18.38,-4.07 a 4.56,4.56 0 0 1 0,-1.95 c 1.09,-2.55 11.13,-1 5.9,-7.75 -1.63,-2.08 -4.38,-2.87 -6.92,-3.6 -16.77,-4.83 -31.22,-12.73 -46.12,-21.56 a 13.4,13.4 0 0 0 -11.69,-2.07 l -9.93,1.54 c -4.43,0.68 -3.69,3.91 -0.73,6.09 4.49,3.31 -6.8,-9.22 -3.06,-5.08 1.31,1.45 -2.69,0.05 -2.14,1.94 1,3.56 -6.81,9.23 -6.31,12.91 0.8,5.86 33.08,25 38.13,25"
       class="cls-11"
       data-name="man arm"
       id="man_arm" />
    <g
       id="Gear">
      <polygon
         id="polygon911"
         points="1615.53,330.18 1637.94,295.13 1609.87,278.74 1596.6,318.36 "
         class="cls-15" />
      <polygon
         id="polygon913"
         points="1593.93,358.98 1615.53,317.84 1634.28,353.51 1609.85,387.48 "
         class="cls-16" />
      <polygon
         id="polygon915"
         points="1609.87,387.26 1634.28,353.51 1654.76,349.21 1629.41,386.24 "
         class="cls-15" />
      <polygon
         id="polygon917"
         points="1689.93,434.08 1705.01,409.38 1713.33,396.05 1746.14,408.35 1721.46,442.29 "
         class="cls-17" />
      <polygon
         id="polygon919"
         points="1757.97,431.49 1746.86,406.72 1721.46,442.29 1736.89,462.86 "
         class="cls-15" />
      <polygon
         id="polygon921"
         points="1768.71,462.34 1734.91,463.28 1758.11,430.39 1791.82,426.82 "
         class="cls-16" />
      <polyline
         id="polyline923"
         points="1801.08 398.13 1788.73 421.78 1782.56 407.38"
         class="cls-17" />
      <polygon
         id="polygon925"
         points="1803,446.28 1786.4,435.14 1791.06,427.15 1788.69,421.88 1801.03,398.22 1826.6,412.52 "
         class="cls-15" />
      <polygon
         id="polygon927"
         points="1815.57,375.66 1815.92,352.78 1838.98,352.25 "
         class="cls-17" />
      <polygon
         id="polygon929"
         points="1676.44,374.72 1675.69,373.89 1654.76,349.21 1629.41,386.24 1652.52,408.69 "
         class="cls-17" />
      <polygon
         id="polygon931"
         points="1621.45,319.04 1636.61,293.67 1636.61,318.36 "
         class="cls-17" />
      <polygon
         id="polygon933"
         points="1681.09,448.61 1705.01,409.38 1665.72,385.45 1643.3,423.77 "
         class="cls-16" />
      <line
         id="line935"
         y2="398.22"
         x2="1801.0601"
         y1="407.41"
         x1="1782.6801"
         class="cls-18" />
      <polygon
         id="polygon937"
         points="1673.45,265.1 1663.16,242.95 1660.45,266.86 "
         class="cls-17" />
      <path
         id="path939"
         d="m 1816.59,353.6 22.48,-1 -16.35,-30.65 -24.51,-2 -20.43,-22.47 6.12,-14.3 -35.75,-21.45 -8.15,11.18 c 0,0 -9.19,-5.11 -15.32,-7.16 -6.13,-2.05 -16.34,-4.08 -16.34,-4.08 l -10.22,-18.39 h -34.73 l 8.17,20.43 a 23.91,23.91 0 0 0 -11.23,1 39.72,39.72 0 0 0 -10.22,5.11 l -23.5,-11.24 -16.51,20.47 25.19,16.81 1,22.48 -20.57,-0.19 18.53,35.95 20.42,-4.1 22,25 -0.51,-0.52 -10.22,11.23 38.82,24.52 9.19,-13.28 32.42,11.67 11,22.55 33.72,-4.08 -8.18,-19.41 18.39,-9.19 24.38,16.13 13.42,-21.25 -22.48,-18.37 z m -47.69,6.4 c -8.76,13.39 -34.56,12 -57.62,-3.09 -23.06,-15.09 -34.66,-38.18 -25.9,-51.57 8.76,-13.39 34.57,-12 57.64,3.08 23.07,15.08 34.65,38.23 25.88,51.58 z"
         class="cls-19" />
      <path
         id="path941"
         d="m 1768.88,360.07 c -3.73,5.7 -10.56,8.72 -18.94,9.14 -4,-10.58 -13.45,-21.88 -26.69,-30.55 -13.24,-8.67 -27.38,-12.81 -38.69,-12.24 -3,-7.85 -2.93,-15.31 0.81,-21 8.76,-13.39 34.56,-12 57.62,3.08 23.06,15.08 34.66,38.17 25.89,51.57 z"
         class="cls-17" />
    </g>
    <g
       id="Man">
      <path
         id="path944"
         d="m 1848.53,650.23 1.82,-0.1 c 2.65,-0.15 5.32,-0.32 8,-0.5 q 9,-0.6 17.92,-1.44 9.52,-0.9 19,-2.06 -18.48,1.85 -37,3.32 -4.84,0.41 -9.74,0.78 z"
         class="cls-20" />
      <path
         id="path946"
         d="m 1843.32,650.53 -1.5,0.12 2.21,-0.15 z"
         class="cls-20" />
      <path
         id="path948"
         d="m 1843.32,650.53 -1.5,0.12 2.21,-0.15 z"
         class="cls-20" />
      <path
         id="path950"
         d="m 1844,650.5 h -0.71 l -1.5,0.12 z"
         class="cls-20" />
      <path
         id="path952"
         d="m 1843.32,650.53 -1.5,0.12 2.21,-0.15 z"
         class="cls-20" />
      <path
         id="path954"
         d="m 1850.17,420 -0.25,-0.29 m 1,8.69 c 0,-0.07 0,-0.14 0,-0.22 m 16.8,1.45 -0.24,0.09 m 1.85,5 a 2.65,2.65 0 0 1 -0.37,0.12"
         class="cls-21" />
      <path
         id="path956"
         d="m 1899.56,425.87 h -0.11 c 0,0 0,0 0,-0.06 v 0 z"
         class="cls-22" />
      <path
         id="path958"
         d="m 1893.39,420.46 -0.15,-0.11"
         class="cls-21" />
      <path
         id="path960"
         d="m 1880.09,399.7 c 0,-0.14 0,-0.3 0,-0.45 m -5.2,-10.6 -0.1,-0.2 m 0.19,0.37 v 0 m -0.35,-0.67 0.11,0.22"
         class="cls-21" />
      <path
         id="path962"
         d="m 1849,404.79 0.87,-0.28 a 2.86,2.86 0 0 0 0.47,-0.22 c 0.37,-0.2 0.73,-0.41 1.09,-0.62 a 12.39,12.39 0 0 1 1.62,-0.83 6.14,6.14 0 0 1 0.85,-0.19 v 0 a 1.82,1.82 0 0 0 1.58,0 2.33,2.33 0 0 0 1.08,-1.43 3.23,3.23 0 0 0 -0.11,-2.08 2.59,2.59 0 0 0 -1.23,-1.43 v 0 l 0.62,-1.2 q 0.65,-1.29 1.32,-2.58 c 0.38,-0.74 0.75,-1.5 1.13,-2.25 0.7,-1.37 1.7,-2.84 1.31,-4.44 0,-0.15 -0.08,-0.31 -0.13,-0.46 0.42,-0.81 0.86,-1.6 1.31,-2.4 a 3.16,3.16 0 0 0 -0.6,-3.76 1.9,1.9 0 0 0 -3,0.48 c -0.91,1.6 -1.73,3.24 -2.57,4.89 -0.24,0.47 -0.47,1 -0.69,1.45 l -0.66,0.9 c -0.56,0.78 -1.08,1.57 -1.59,2.38 q -1.06,1.72 -2.1,3.45 c -0.45,0.74 -0.87,1.49 -1.29,2.26 a 5.67,5.67 0 0 0 -2,3 7.77,7.77 0 0 0 -0.44,1.92 3.67,3.67 0 0 0 0.58,2.26 2.66,2.66 0 0 0 1.24,1.08 l 0.55,0.19 h 0.3 0.54 z"
         class="cls-22" />
      <path
         id="path964"
         d="m 1849.52,413.22 a 1,1 0 0 0 0,0.17 v 0.14"
         class="cls-21" />
      <path
         id="path966"
         d="m 1874.91,388.74 v -0.09 a 0.83,0.83 0 0 0 0.09,0.16 0.12,0.12 0 0 0 -0.09,-0.07 z"
         class="cls-22" />
      <path
         id="path968"
         d="m 1899.56,425.87 h -0.11 c 0,0 0,0 0,-0.06 v 0 z"
         class="cls-22" />
      <path
         id="path970"
         d="m 1912.39,418.33 -0.14,0.19 m -26.76,-32.67 -0.3,-0.34 m -2.77,3.82 0.09,0.1 a 0.36,0.36 0 0 0 0.08,0.09 m 17.24,4.18 -0.22,-0.07 m -2.49,10.74 a 2.35,2.35 0 0 1 0,-0.27 m 18.88,8.78 a 3.43,3.43 0 0 1 0.24,-0.33 m -6.92,1.8 -0.11,0.14 m -0.11,0.14 c 0,0.07 -0.1,0.13 -0.14,0.2 m 4,-6 a 1.13,1.13 0 0 1 -0.12,0.18 m -0.1,0.13 a 2.09,2.09 0 0 0 -0.14,0.17"
         class="cls-21" />
      <path
         id="path972"
         d="m 1898.81,401.15 -0.08,-0.06 m -1.19,14 -0.1,0.07"
         class="cls-21" />
      <path
         id="path974"
         d="m 1904.26,425.06 a 3.27,3.27 0 0 0 -0.49,-1.25 2.74,2.74 0 0 0 -1.87,-2.57 l -0.3,-0.15 a 7.18,7.18 0 0 0 -1.06,-0.4 6.85,6.85 0 0 0 -1.75,-0.25 c -0.82,0 -1.67,0 -2.5,0 h -1.14 a 8.33,8.33 0 0 1 -1.73,-0.18 l -0.26,-0.11 -0.12,-0.34 a 7.23,7.23 0 0 1 -0.13,-0.9 21.24,21.24 0 0 1 0.11,-2.26 c 0.07,-0.85 0.12,-1.67 0.18,-2.52 0.1,-0.27 0.21,-0.53 0.32,-0.81 0.37,-0.87 1.76,-0.48 2.14,-1.35 0.08,-0.19 0.54,-0.61 0.62,-0.8 l 0.68,-1 c 0.39,-0.94 0.76,-1.91 1.14,-2.87 0.51,-1.26 -1.22,-2.53 -1,-3.88 a 15.84,15.84 0 0 0 -0.06,-4.07 5.44,5.44 0 0 0 -1.5,-3.35 5.82,5.82 0 0 0 -1.7,-1 9.11,9.11 0 0 0 -6.88,0.12 9.69,9.69 0 0 0 -2.53,1.63 23,23 0 0 0 -2.16,2 l -0.8,0.78 a 13.07,13.07 0 0 0 -0.82,1 c -0.14,0.19 -0.3,0.38 -0.46,0.56 0,-0.39 0,-0.79 -0.06,-1.18 0,-1.91 0,-3.82 -0.07,-5.73 0,-1.09 -0.09,-2.18 -0.24,-3.26 a 24,24 0 0 0 -0.73,-3.28 c -0.07,-0.25 -0.13,-0.49 -0.22,-0.73 a 5,5 0 0 0 -0.4,-0.88 c -0.07,-0.14 -0.15,-0.28 -0.23,-0.42 a 11,11 0 0 0 -1,-1.54 c -0.55,-0.69 -1.18,-1.29 -1.77,-1.94 -1,-1.24 -1.74,-2.71 -3,-3.64 a 18.34,18.34 0 0 0 -2.21,-1.46 21.87,21.87 0 0 0 -4.76,-1.79 c -2,-0.53 -4,-0.53 -5.87,-1.45 a 3.6,3.6 0 0 0 -1.59,-0.52 c -2,0 -3,2.66 -3.87,4 a 20.7,20.7 0 0 0 -1.89,3.94 c -0.93,2.12 -2.16,4.06 -3.27,6.08 -1.11,2.02 -0.1,3.17 -1.33,5.27 -0.59,1 -3.53,3.06 -4.1,4.08 -0.57,1.02 0.47,-0.91 0,0 -0.47,0.91 -2.64,3.76 -3.08,4.57 -0.44,0.81 -3,3.33 -2.45,4.15 1,1.35 1.66,2.59 3.22,3.25 a 9.61,9.61 0 0 0 2.37,0.55 l 1,0.19 c 0,0.23 -0.08,0.46 -0.11,0.68 -0.11,0.58 -0.23,1.15 -0.38,1.73 -0.15,0.58 0.76,1.17 0.59,1.83 -0.17,0.66 2.78,1.17 2.8,1.71 a 5.12,5.12 0 0 0 0.31,1.72 4.5,4.5 0 0 0 0.55,1 4.66,4.66 0 0 0 0.73,0.85 c -0.11,0.16 -0.22,0.31 -0.32,0.48 a 19,19 0 0 0 -1.33,2.21 c -0.52,1.07 0.07,-1.19 0,0 -0.07,1.45 0.31,0.7 0.4,2.15 0.08,1.27 -4,4.75 -3.75,6 0.25,1.25 0.56,5.71 1,6.76 0.44,1.05 1,2.91 1,2.91 a 4.94,4.94 0 0 0 2.74,1.12 h 0.84 a 10.36,10.36 0 0 0 1.57,-0.11 c 0.69,-0.1 1.38,-0.3 2.06,-0.43 l 2.24,-0.47 c 0.77,-0.16 1.53,-0.37 2.28,-0.56 a 4.87,4.87 0 0 1 0.52,-0.12 c 0,1.62 0,3.25 0,4.88 0,0.57 0,1.14 -0.1,1.71 a 8.67,8.67 0 0 0 0,1.53 17.93,17.93 0 0 0 1,3.75 c 0.51,-0.18 2.18,-0.89 2.68,-1.05 v 0 c 1.74,-0.61 -1.75,0.72 0,0 1,-0.42 13.33,-5.68 14.32,-6.15 v 0 c 0.67,-0.31 -0.65,0.35 0,0 1.37,-0.75 2.93,-0.77 4.39,-1.41 a 66,66 0 0 1 6.5,-2.63 c 2.23,-0.71 4.79,-1.78 7.12,-2.29 2.57,-0.54 4.17,-2.41 6.43,-2.61 0.65,-0.06 1.29,-0.09 1.93,-0.11 a 9.57,9.57 0 0 0 0.12,-2.15 13.64,13.64 0 0 1 0.12,-2.12 16.49,16.49 0 0 1 0.67,-2.17 l 0.2,-0.48 a 4.39,4.39 0 0 1 0.21,-0.44 3.4,3.4 0 0 0 0.29,-2.01 z m -4.81,0.79 c 0,0 0,0 0,-0.06 v 0 l 0.07,0.06 z"
         class="cls-23" />
      <path
         id="path976"
         d="m 1873.92,374.22 -0.16,-0.11 m 28.53,21.36 a 1.53,1.53 0 0 1 -0.16,-0.11 m 0.3,0.21 0.11,0.07 m 2,-4.56 -0.26,-0.17 m -4.93,-3.07 -0.25,-0.18 m -31.34,-17.39 -0.55,-0.19"
         class="cls-21" />
      <path
         id="path978"
         d="M 1904.59,391.15 Z"
         class="cls-24" />
      <path
         id="path980"
         d="m 1924.32,396.24 -0.17,-0.19 0.17,0.19 m -21,-9.37 v 0 0 0 m 16.47,-14.58 -0.09,-0.35 z m -14.83,-0.35 -0.33,-1 -0.69,-2 a 0.65,0.65 0 0 1 0,-0.13 l 0.49,0.33 0.18,0.13 0.2,0.17 0.08,0.07 a 17.38,17.38 0 0 0 0.11,2.39 m -23.67,5.52 c 0.09,0.18 0.18,0.36 0.28,0.53 l -0.28,-0.53 m 0.28,0.54 v 0 0.06 -0.05"
         class="cls-21" />
      <path
         id="path982"
         d="m 1869.1,375.66 c 0,0 2,6.7 4,9.85 a 29.24,29.24 0 0 0 5.92,6.12 c 0,0 -1.7,8.77 -1.51,9.52 0.19,0.75 2.81,3 2.81,3 0,0 4.06,-6.83 6.28,-7.47 2.22,-0.64 4.82,-1.74 7.58,0.52 2.76,2.26 3.43,8.58 1.81,11.94 a 14.14,14.14 0 0 1 -5.21,5.37 l 1.42,8.2 11.35,5.89 18,-21.14 -34.39,-31.75 z" />
      <path
         id="path984"
         d="m 1923.49,407 a 8.55,8.55 0 0 1 -1.4,1.54 c -3.27,2.63 -7.17,-1.86 -9.3,-4.06 -3.19,-3.26 -7,-5.77 -10.76,-8.37 a 74.12,74.12 0 0 0 -8.58,-5.3 c -3.3,-1.7 -8.42,-3.39 -10.8,-6.46 -0.74,-1 -0.86,-1.79 -1.77,-2.59 a 73.81,73.81 0 0 1 -5.92,-5.67 38.43,38.43 0 0 0 -12.43,-7.6 c -1.09,-0.4 -3.73,2.4 -4.66,1.69 -4.63,-3.62 4.17,-9.12 6.47,-10.53 a 41.49,41.49 0 0 1 8.06,-3.79 51.87,51.87 0 0 1 17.66,-2.74 31.31,31.31 0 0 1 12.64,2.34 c 8.4,3.78 16,12.59 20,20.74 a 44.31,44.31 0 0 1 4.21,15.37 c 0.5,5.68 -0.33,11.34 -3.42,15.43 z"
         class="cls-2" />
      <path
         id="path986"
         d="m 1872.34,373.52 v 0 a 63.13,63.13 0 0 0 -11.19,-6.32 30,30 0 0 0 -12.72,-2.78 c -3.8,-0.07 -7.78,0.32 -11.16,2.21 -2.08,1.17 -3.92,3.3 -3.86,5.81 0.09,3.39 3.59,5.9 5.85,8 0.77,0.72 9.16,7.89 9.47,7.36 1.5,-3.1 3.21,-6.15 4.88,-9.16 2.15,-3.89 5.73,-4.59 9.7,-3.31 5.2,1.67 13.92,6.74 19,8.94 0.58,0.25 0.36,-0.24 0.21,-0.56 a 10.4,10.4 0 0 0 -1.6,-1.92 59.45,59.45 0 0 0 -8.58,-8.27 z"
         class="cls-11" />
      <path
         id="path988"
         d="m 1704.7,446.72 c 12.38,4.75 24.76,7.16 37.14,11.91 l -14,25.89 c -1.59,-1 -3.77,0.93 -5.33,0 l -27.54,-16.32 c -6.21,-3.68 -10.92,-9.37 -18.72,-9.24 -2.73,0.06 -5.4,0.78 -8.12,1 -7,0.47 -8.12,-9.17 -10.51,-17.4 a 23,23 0 0 1 -1.4,-5.19 c -0.11,-1.79 0.83,-3.83 2.58,-4.22 -1.33,-1.34 -2.74,-2.87 -2.79,-4.74 -0.07,-2.82 3.1,-4.81 5.92,-4.63 2.82,0.18 3.2,0.79 5.62,2.22 2.42,1.43 5.15,2.8 7.92,2.31 0.12,-4.63 -4.91,-6.17 -4.79,-10.79 0,-1.21 0.46,-2.83 1.68,-2.78 0.82,0 1.33,0.88 1.69,1.61 2.41,5 10,6.86 12.35,11.82 2.73,5.63 5.66,11.51 10.83,15 a 35.85,35.85 0 0 0 7.47,3.55 z"
         class="cls-23" />
      <path
         id="path990"
         d="m 1668.07,456.92 13.31,-0.93 -2.64,-3.16 9.75,7.39 35,17.14 -1,7.16 c 0,0 -36.13,-22.34 -41.45,-24.85 -4.39,-2.08 -10.19,1.57 -15.2,0 -5.01,-1.57 -9.64,-22.34 -9.64,-22.34 l 5.82,11.28 6.06,8.31" />
      <path
         id="path992"
         d="m 1841.52,650.35 c 1.39,-0.14 2.73,-0.24 4,-0.3 h 0.77 0.32 c 0.74,0 1.49,0 2.23,-0.1 22.7,-1.79 45.36,-3.77 68,-6.28 5.29,-0.59 14.65,0.46 14.23,5.77 -1,12.21 5.55,-26.11 4.33,-34.28 a 330.36,330.36 0 0 1 -3.58,-50.86 c 0.18,-27.71 3.78,-56.08 -4,-82.68 -2.62,-8.93 -6.7,-17.78 -13.76,-23.86 -1.87,-1.6 -4,-3.09 -4.94,-5.36 -1.2,-2.85 -0.18,-6.08 0.36,-9.13 0.54,-3.05 0.26,-6.81 -2.41,-8.38 -1.85,-1.09 -4.19,-0.69 -6.29,-0.22 a 175.69,175.69 0 0 0 -44,16.23 c -2.45,1.3 -5.27,3.73 -4.14,6.26 -17.59,4.37 -36,1.35 -54.15,1 a 180.78,180.78 0 0 0 -39.11,3.61 c -4.45,-4.66 -6.27,-2.32 -11.28,-5.58 -5.49,-3.58 -6.32,-5.6 -13.75,5.1 a 67.63,67.63 0 0 1 -10.55,12.33 c -1.76,1.55 -3.74,2.92 -5,4.89 -1.26,1.97 -1.54,4.83 0.11,6.49 1.21,1.22 3.33,0.9 4.72,1.91 a 199.9,199.9 0 0 1 17,13.48 c 7.87,7 18.19,10.56 28.4,13.17 15.07,3.85 38.23,4.7 53.78,5.12 1.22,0 -0.49,8.75 -0.67,12 -0.6,11.32 -0.22,47.63 1.19,58.88 1.53,12.3 14.36,49.05 18.22,60.83 l 4,-0.3"
         class="cls-2" />
      <path
         id="path994"
         d="m 1890.1,1003 47.67,2.86 a 5.65,5.65 0 0 1 4.64,3 c 1.68,3.16 4.1,8.55 4.44,13.85 a 37.06,37.06 0 0 1 -0.1,6.28 c -0.36,3.19 -3.32,4.85 -6.54,4.87 -11.36,0.08 -18.91,-4.87 -33.85,-2.46 -18.87,3.06 -48.18,2.86 -63.18,1.66 a 7.84,7.84 0 0 1 -6.46,-11.15 19.18,19.18 0 0 1 6,-7.73 c 7,-5 41.22,-10.35 46.17,-11.11 a 5.36,5.36 0 0 1 1.21,-0.07 z"
         class="cls-11" />
      <path
         id="path996"
         d="m 1888.88,1011.47 47.67,2.87 a 5.64,5.64 0 0 1 4.65,3 c 1.67,3.15 4.1,8.54 4.44,13.84 a 35.9,35.9 0 0 1 -0.11,6.28 c -0.35,3.2 -3.32,4.85 -6.53,4.88 -11.36,0.08 -18.92,-4.88 -33.85,-2.46 -18.87,3.05 -48.19,2.85 -63.18,1.65 a 7.84,7.84 0 0 1 -6.46,-11.15 19.08,19.08 0 0 1 6,-7.72 c 7,-5 41.21,-10.36 46.17,-11.12 a 5.25,5.25 0 0 1 1.2,-0.07 z"
         class="cls-11" />
      <path
         id="path998"
         d="m 1844.09,650.5 h 0.33 c 0.74,0 1.49,0 2.23,-0.11 l 1.88,-0.16 z"
         class="cls-11" />
      <path
         id="path1000"
         d="m 1841.79,647.71 c 6.71,38.36 15,123.14 19,161.07 0,-0.44 -0.09,-0.88 -0.14,-1.33 0.81,8.11 0.84,16.26 1.58,24.37 0.08,0.81 0.17,1.63 0.25,2.44 0.08,0.81 0.15,1.48 0.23,2.22 0,-0.16 0,-0.33 0,-0.5 0.47,3.95 0.57,7.94 0.75,11.92 0.16,3.38 0.41,6.76 0.6,10.15 0.21,3.87 0.55,7.75 0.88,11.62 2.05,24.11 3.92,48.25 4.55,72.44 0.33,12.52 0.32,25 -0.16,37.55 -0.17,4.65 -4.76,26.77 1.59,28.82 2.4,0.77 6.13,0 8.83,0.39 2,0.31 4.1,0.92 6.13,1.35 q 9.17,1.93 18.41,3.49 c 12.8,2.15 26.68,4.78 39.69,3.16 4.89,-0.6 8,-2 8.15,-4.72 1,-19.67 -2.09,-39 -2.42,-58.63 -0.13,-7.45 0,-14.92 -0.9,-22.31 -0.52,-4.12 -1.37,-8.2 -2,-12.31 -0.56,-3.76 -0.93,-7.55 -1.29,-11.34 -2.56,-26.59 -6.3,-53.19 -8.48,-79.7 -2.18,-26.51 2.71,-49.34 9,-74.69 a 172.37,172.37 0 0 0 -2,-88.87 c -1.77,-6.08 -5,-23.64 -12.17,-25.67 a 7.66,7.66 0 0 0 -3.23,0.06 q -24.33,4 -48.9,6.33 -12.93,1.22 -25.89,1.94 c -3.87,0.22 -7,0.4 -11.9,0.75 m 57.46,5.85 -2.1,1 -1.73,0.91 a 23.17,23.17 0 0 0 2.89,-2 z"
         class="cls-25" />
      <path
         id="path1002"
         d="m 1871.05,444.13 0.59,-0.23 c 0.24,-0.11 0.49,-0.2 0.73,-0.3 l -2,-3 c 3.35,-2.58 5.32,-6 7,-12.21 -0.79,-0.13 -1.76,-0.63 -2.3,-0.33 -2.52,1.4 -4.93,3 -7.86,4.86 -6.64,-0.41 -12.43,3.37 -19.54,7.29 5.21,2.3 8.92,1.93 13.61,4 a 31.06,31.06 0 0 1 9.77,-0.08 z" />
      <path
         id="path1004"
         d="m 1851.7,427.76 h -6.78 l 2.89,-4.07 -3,-1.88 v -7 l -6.83,-9.5 c 4.61,-1.56 6.91,1.52 9.83,2.53 l 4.85,-1.29 c 0.21,1.43 0.37,2.45 0.58,3.83 h -4.79 v 5.38 l 6.33,1.3 c -2.47,3.09 -6.03,5.72 -3.08,10.7 z" />
      <path
         id="path1006"
         d="m 1853.44,385.28 c -2.75,1.2 -4.4,4.18 -5.8,7.22 l -5.4,1.91 c 1.56,1.62 2.44,2.55 3.34,3.49 l 1.86,-2.47 1.36,2.18 5.3,-1.49 3,-5.56 3.49,0.91 c -0.73,-2.1 -1.38,-4 -2.16,-6.16 -1.7,-0.03 -3.35,-0.03 -4.99,-0.03 z" />
      <path
         id="path1008"
         d="m 1891.22,414 c 0.61,3.56 1.14,5.8 1.7,9 -1.87,2.43 -3.72,2.57 -7.43,3.44 1.8,-3.6 0.95,-9.75 5.73,-12.44 z" />
      <path
         id="path1010"
         d="m 1886.18,403.23 6.13,-1.55 c 0.87,3.62 -1.74,2.87 -3.69,3.5 0.24,0.8 0.48,1.62 1,3.28 l -6.07,6.18 c 0,-3.1 -0.45,-4.75 0.11,-5.92 0.9,-1.88 3.23,-3.05 2.71,-5.66 z" />
      <path
         id="path1012"
         d="m 1822.78,518.68 c 0,0 25.25,0.43 32.55,-3 7.3,-3.43 21.75,-10.27 21.75,-10.27 l -2.78,10.27 -8.2,3 14,7 -57.43,-2.92 z"
         class="cls-11" />
      <polygon
         id="polygon1014"
         points="1908.47,448.51 1904.03,454.91 1896.43,461.12 1902.1,466.42 1896.3,482.76 1885.86,463.18 1841.79,457.46 1888.94,456.93 "
         class="cls-11" />
      <polygon
         id="polygon1016"
         points="1913.12,568.67 1925.51,598.15 1916.84,592.05 1915.95,640.65 1933.56,639.55 1935.52,620.28 1933.92,606.72 1931.75,556.54 1931.88,506.48 1927.75,552.86 1921.44,579.21 "
         class="cls-11" />
      <path
         id="path1018"
         d="m 1936.56,828.42 c -1,-14.33 1.54,-43.19 5.24,-58.94 3.7,-15.75 12.13,-43 9.84,-59 -2.29,-16 -9.33,-61.52 -18.5,-70.42 -9.17,-8.9 -17.62,1.1 -17.62,1.1 0,0 -0.78,20.83 0.8,41.91 1.58,21.08 -10.8,66 -10.8,66 l 18.37,9.88 c 0,0 -2.37,124.12 1.39,133.34 l 11.07,-11.07 -6.85,41.11 8.43,27.94 2.64,34.78 -11.07,32.82 c 0,0 12.39,2.33 22.14,-5.23 9.75,-7.56 -2.69,-48.9 -3.33,-80.94 -0.64,-32.04 -11.75,-103.28 -11.75,-103.28 z"
         class="cls-11" />
      <polygon
         id="polygon1020"
         points="1843.08,655.51 1917.54,649.45 1937,646.13 1933.12,636.42 1915.95,640.65 1840.63,647.69 "
         class="cls-11" />
      <rect
         id="rect1022"
         transform="rotate(-5.39,1895.6162,650.47102)"
         height="17.6"
         width="3.96"
         y="642.08002"
         x="1895.24"
         class="cls-25" />
      <rect
         id="rect1024"
         transform="rotate(-5.39,1857.8699,654.01711)"
         height="17.6"
         width="3.96"
         y="645.64001"
         x="1857.49"
         class="cls-25" />
      <path
         id="path1026"
         d="m 1747.83,457.22 c 0,0 0.37,4.72 -1.21,6.74 -1.58,2.02 -5.44,6.32 -5.44,6.32 l 7.55,-3 2.64,-4.56 c 0,0 0.85,-2.86 2.81,-2.6 1.96,0.26 0,8.6 0,8.6 l 4.93,-5.94 c 0,0 -0.36,-1 -2.65,-2.66 -2.29,-1.66 -4.92,-1.34 -5.8,-1.49 a 12.09,12.09 0 0 1 -2.83,-1.41 z"
         class="cls-11" />
      <path
         id="path1028"
         d="m 1759.11,461.77 c 0,0 -4.58,4.85 -6,7.66 -1.42,2.81 -6.77,7.82 -9.13,12.3 -7.15,13.53 -20.91,0 -20.91,0 v 0 l -3.42,-4.66 c 0,0 -2.29,3.16 -2.15,4.66 0.14,1.5 -1.66,2.46 2.1,3.82 3.76,1.36 9.73,5.76 9.73,5.76 l 4.28,3.33 4.54,3.77 12.5,-18.32 6,-9.91 z"
         class="cls-11" />
      <path
         id="path1030"
         d="m 1741.84,493 c 0,0 10.42,9.35 24.28,13 v 0 l 25.75,10.72 -15.14,-1.57 v 0 a 96,96 0 0 1 -38.57,-16.76 z"
         class="cls-11" />
    </g>
    <g
       id="Woman">
      <path
         id="path1033"
         d="m 1462.8,901.5 -37.71,36.11 -6.86,6.57 -1.06,1 -2.71,2.59 -3.64,-0.08 -12.61,-0.27 -13.58,-0.29 -65.82,-1.42 16,-12.63 c 0.34,1.16 0.91,1.74 1.81,1.26 l 0.25,0.3 a 9.37,9.37 0 0 0 3.29,2.18 21.48,21.48 0 0 0 3.4,0.95 l 0.42,0.08 a 33.9,33.9 0 0 0 3.67,0.65 c 1.21,0.11 2.49,0.18 3.88,0.18 1.39,0 2.7,-0.05 4.07,-0.1 0.85,0 1.69,-0.12 2.53,-0.22 l 1.09,-0.11 h 0.61 c 0,-0.17 0,-0.34 0,-0.53 a 13.91,13.91 0 0 1 0.48,-3.44 26.05,26.05 0 0 1 2.88,-7 16,16 0 0 1 2.62,-3.49 c 0.59,-0.58 1.23,-1.1 1.87,-1.64 0.3,-0.24 0.61,-0.49 0.9,-0.75 0.94,-0.79 1.86,-1.57 2.85,-2.31 a 34,34 0 0 1 3.32,-2.17 l 0.41,-0.24 c 0.55,-0.33 1.06,-0.7 1.58,-1.06 a 18.4,18.4 0 0 1 2.85,-1.75 11,11 0 0 1 3.21,-0.82 c 0.6,-0.28 1.22,-0.53 1.83,-0.76 v -9 l 5.09,-0.12 8.82,-0.2 44.72,-1 13.37,-0.29 z"
         class="cls-2" />
      <path
         id="path1035"
         d="m 1507.74,392.81 c 9.58,-1.76 33.16,-1 42.74,-2.78 3.17,-0.58 6.41,-1.18 9.22,-2.79 3.84,-2.19 6.44,-6 8.89,-9.7 11.6,-17.5 23,-35.22 32,-54.21 0.53,-1.11 1.07,-2.4 0.64,-3.56 -0.43,-1.16 -1.43,-1.73 -1.78,-2.77 -0.75,-2.24 2,-4 3,-6.08 1,-2.08 0.43,-4.71 0.66,-7.1 0.34,-3.61 2.7,-6.65 4.55,-9.76 1.85,-3.11 3.28,-7 1.68,-10.28 a 3.3,3.3 0 0 0 -2.87,-2.08 4.39,4.39 0 0 0 -2.64,1.63 q -6.45,6.69 -12.92,13.37 a 15.23,15.23 0 0 0 -3.51,4.68 c -0.86,2.08 -0.76,4.42 -1.23,6.63 -0.7,3.26 -2.59,6.13 -4.52,8.86 a 201.62,201.62 0 0 1 -24.19,28.39 c -7.12,6.93 -15,13.47 -24.42,16.62 -11.37,3.79 -23.84,2.31 -35.48,5.11 a 3,3 0 0 0 -1.91,1 3.24,3.24 0 0 0 -0.35,2 q 0.33,6 0.65,12 z"
         class="cls-26" />
      <path
         id="path1037"
         d="m 1534.82,788.24 a 23.14,23.14 0 0 1 -1,-8.87 c 0.16,-2.08 0.6,-4.13 0.66,-6.22 a 31.43,31.43 0 0 0 -0.24,-4.33 c -0.22,-2.33 -13.66,-2.74 -15.83,-3.09 -5.47,-0.88 -11.21,-2.35 -15.48,-6.37 -0.75,-0.7 -0.38,-1.32 -1.47,-1 -0.7,0.19 -1.23,1.37 -1.55,2 l -0.16,0.28 c -2,3.62 -5.1,6.15 -8.41,8.28 a 2.65,2.65 0 0 0 -0.48,0.52 c -3.63,4 -2.55,5.89 -2.49,6.11 0.42,1.49 2,-2.49 2.47,-1 0.47,1.49 1.37,4.8 2.62,5.43 3.23,1.62 7.59,0 11.06,0.87 4.82,1.17 9.72,2 14.45,3.55 4.73,1.55 8.5,3.88 13.53,4.2 h 0.19 a 7.66,7.66 0 0 0 2,-0.23"
         class="cls-26" />
      <path
         id="path1039"
         d="m 1500.59,371.6 c -0.41,-1.67 -1.21,-7.32 -3.73,-7.42 -4.28,-0.15 -7.16,0.54 -10.78,-1.5 a 38.85,38.85 0 0 0 -6.31,-3.26 c -2,-0.67 -6.58,-0.24 -4.1,3.07 a 27.94,27.94 0 0 0 2.4,2.2 c 1.35,1.43 1.72,3.49 2.48,5.31 a 19.09,19.09 0 0 0 5.8,7.09 c 2.25,1.85 4.35,4.23 6.7,5.89 a 4.26,4.26 0 0 0 3.6,0.81 c -0.47,0.15 1.4,1.58 1.73,1.62 a 1.74,1.74 0 0 0 2,-1.23 7.91,7.91 0 0 0 0.19,-2.53 c 0,-3.02 0.82,-6.77 0.02,-10.05 z m -13.35,-2.6 h -0.06 c -0.24,-0.23 -0.47,-0.45 -0.69,-0.7 0.24,0.12 0.47,0.25 0.72,0.36 h 0.08 c -0.02,0.11 -0.04,0.22 -0.05,0.34 z"
         class="cls-11" />
      <path
         id="path1041"
         d="m 1516.16,764 c 0,0 0.85,5.5 1.2,9.11 0.35,3.61 -3,15.47 -3,15.47 l 20.45,1.39 c 0,0 -1.48,-5.05 -1.16,-7.35 0.32,-2.3 0.38,-13 0.38,-13 z" />
      <path
         id="path1043"
         d="m 1500.59,381.65 9.52,5.61 c 0,0 42.68,-4.21 47.19,-4.94 5.44,-0.88 41.28,-63.28 41.28,-63.28 0,0 -1.52,-2.36 -0.85,-4.06 0.67,-1.7 4.75,-4.06 4.75,-4.06 0,0 -4.84,3.3 -3,6.08 1.84,2.78 2.76,3 1.14,6.33 -1.62,3.33 -31,55.58 -39,62.69 -8,7.11 -51.41,6 -51.41,6 l -10.44,-4.73 z" />
      <path
         id="path1045"
         d="m 1355.61,943.74 c 0.86,0 1.69,-0.13 2.53,-0.22 l 1.09,-0.1 c 1.15,-0.12 2.3,-0.19 3.45,-0.25 h 0.29 c 0.3,0 0.61,0 0.91,-0.06 3.24,-0.51 2.8,-5.33 3.59,-7.74 a 28.68,28.68 0 0 1 5.07,-9.18 28,28 0 0 1 17.3,-10.1 l -1.09,-75.39 c -0.06,-4.24 0,-8.78 2.34,-12.29 4.52,-6.66 14.61,-6 21.32,-10.49 5.66,-3.75 8.25,-10.62 10.49,-17 l 50.52,-144.49 q 32.16,12.89 65.49,22.61 L 1502.76,753 c -1.34,2.74 -2.63,6.2 -0.79,8.63 1.07,1.4 2.87,2 4.56,2.47 l 69.28,20.34 c 1.72,0.51 3.66,1 5.25,0.15 1.59,-0.85 2.25,-2.67 2.8,-4.36 q 20.34,-62.14 37,-125.41 c 1.53,-5.81 3,-12 1.26,-17.72 -1.86,-6 -6.94,-10.37 -11.93,-14.19 a 245.37,245.37 0 0 0 -61.82,-34.45 c -21.49,-8.17 -46.71,-15.46 -56.36,-36.33 -11.75,-25.39 6.81,-53.75 10.81,-81.44 1.24,-8.58 1.44,-8.73 4.52,-17 1.23,-3.28 4.12,-9.46 4.12,-9.46 a 221.91,221.91 0 0 1 -23.39,-6.45 c 8.25,-9.33 11,-11.79 19.27,-21.12 1.18,-1.33 12.79,-13.94 12.79,-13.94 0,0 -7.17,-8.77 -11.72,-12.2 a 105.66,105.66 0 0 0 -11.35,-7.8 c -9.67,-5.62 -13.65,-16.26 -21.18,-24.54 -3.84,-4.23 -9.15,-6.78 -14.32,-9.22 l -32.44,-15.36 c -1.41,-0.67 -3,-1.35 -4.46,-0.86 -3.07,1 -2.59,5.41 -2.29,8.63 1.13,12.11 -8.88,21.93 -14.87,32.51 -8.71,15.38 -9.15,33.91 -9.36,51.59 -0.24,19.12 -0.36,38.85 6.93,56.52 2.11,5.11 4.88,10.24 4.66,15.76 -0.16,4.07 -1.93,7.88 -3.79,11.49 -10.58,20.63 -24.94,39.49 -32.16,61.51 -8,24.49 -6.58,50.89 -7.85,76.63 -2.39,48.19 -14.56,95.3 -21.46,143.06 -3.67,25.43 -5.85,51.06 -7.31,76.7 -0.73,13 -1.28,26 -1.75,39 q -0.33,9.52 -0.63,19.06 c -0.06,2 -1.71,16.09 1.83,14.24 l 0.24,0.31 a 9.65,9.65 0 0 0 3.29,2.18 21.93,21.93 0 0 0 3.39,0.94 l 0.43,0.09 a 36.23,36.23 0 0 0 3.67,0.64 c 1.22,0.12 2.49,0.18 3.88,0.18 1.39,0 2.71,-0.05 4.07,-0.1 z"
         class="cls-2" />
      <polygon
         id="polygon1047"
         points="1546.11,796.6 1510.11,821.28 1384.63,823.34 1435.03,796.6 "
         class="cls-2" />
      <polygon
         id="polygon1049"
         points="1422.37,955.04 1407.62,950.57 1462.8,901.5 1462.8,916.93 "
         class="cls-11" />
      <polygon
         id="polygon1051"
         points="1539.93,916.93 1462.8,917.02 1462.8,901.5 1544.05,901.5 "
         class="cls-11" />
      <polygon
         id="polygon1053"
         points="1552.28,939.56 1543.02,939.56 1534.79,821.28 1511.57,838.99 1510.11,821.28 1546.11,796.6 "
         class="cls-2" />
      <polygon
         id="polygon1055"
         points="1510.11,958.07 1327.04,958.07 1327.04,974.52 1318.81,974.52 1318.81,945.73 1510.11,944.7 "
         class="cls-27" />
      <path
         id="path1057"
         d="m 1387,943.24 a 3,3 0 0 1 -1.35,0.27 6.62,6.62 0 0 1 -1,-0.09 c -0.36,0 -0.72,-0.13 -1.06,-0.2 l -0.93,-0.23 a 16.67,16.67 0 0 0 -1.79,-0.38 c -0.93,-0.12 -1.85,-0.26 -2.78,-0.42 a 48.28,48.28 0 0 0 -5.3,-0.59 h -1.52 -2.27 -0.35 -2.11 -1.7 -1.39 a 3.81,3.81 0 0 1 -1.61,-0.33 3.33,3.33 0 0 1 -1.73,-1.72 5.57,5.57 0 0 1 -0.25,-1.31 c 0,-0.17 0,-0.34 0,-0.53 a 13.91,13.91 0 0 1 0.48,-3.44 26.05,26.05 0 0 1 2.88,-7 16,16 0 0 1 2.62,-3.49 c 0.59,-0.58 1.23,-1.1 1.87,-1.64 0.3,-0.24 0.61,-0.49 0.9,-0.75 0.94,-0.79 1.86,-1.57 2.85,-2.31 a 34,34 0 0 1 3.32,-2.17 l 0.41,-0.24 c 0.55,-0.33 1.06,-0.7 1.58,-1.06 a 18.4,18.4 0 0 1 2.85,-1.75 11,11 0 0 1 3.21,-0.82 c 0.61,-0.07 1.23,-0.12 1.83,-0.15 h 0.46 l 1,-0.06 a 2.64,2.64 0 0 1 2.56,2.28 2.62,2.62 0 0 1 -0.25,1.52 c 0,0.11 0,0.24 0,0.36 0,0.12 0,0.38 0,0.58 v 0.68 0.67 l -0.07,1.43 -0.06,1.39 c -0.06,1.79 -0.11,3.58 -0.11,5.37 v 1 c 0,0.82 0.05,1.64 0.06,2.47 0,0.53 0,1.08 0,1.61 v 1.21 c 0,0.83 0.07,1.65 0.17,2.47 a 10.2,10.2 0 0 0 0.22,1.25 c 0.09,0.42 0.2,0.84 0.27,1.26 0.09,1.08 0.28,3.78 -1.91,4.86 z"
         class="cls-11" />
      <path
         id="path1059"
         d="m 1396.85,945.53 h 0.16 c 0.56,0 1,0 1.39,-0.08 h 0.54 c 0.47,0 0.93,0 1.4,0 h 2.24 c 1.29,0 2.55,-0.11 3.62,-0.2 1.07,-0.09 2.4,-0.17 3.6,-0.2 1.2,-0.03 2.46,-0.18 3.6,-0.32 l 2.27,-0.24 1.14,-0.11 1.07,-0.11 c 0.85,-0.08 1.7,-0.16 2.54,-0.31 2,-0.33 5.2,-0.69 5.46,-3.2 a 6,6 0 0 0 -0.81,-3.16 c -2.74,-5.43 -7.7,-9.44 -13,-12.39 -5.3,-2.95 -11.09,-5 -16.61,-7.5 -0.94,-0.42 -2.09,-0.85 -2.93,-0.26 -0.84,0.59 -0.77,2.1 -0.51,3.23 a 74.47,74.47 0 0 1 1.78,17.74 c 0,2.55 -0.56,7.17 3.07,7.17 z"
         class="cls-11" />
      <polygon
         id="polygon1061"
         points="1504.59,958.07 1504.18,944.73 1503.33,916.97 1502.86,901.5 1500.85,835.68 1399.03,835.68 1398.54,902.96 1398.41,918.97 1398.22,945.29 1398.22,945.47 1398.21,947.44 1398.13,958.07 1398,974.52 1384.63,974.52 1384.63,823.34 1391.11,823.24 1510.11,821.28 1513.43,901.5 1514.07,916.96 1515.22,944.7 1515.79,958.54 1516.28,970.41 1504.97,970.41 "
         class="cls-27" />
      <polygon
         id="polygon1063"
         points="1456.62,902.53 1443.26,902.53 1442.93,835.68 1456.63,835.68 "
         class="cls-11" />
      <polygon
         id="polygon1065"
         points="1546.11,922.07 1515.79,958.55 1515.21,944.7 1546.11,904.59 "
         class="cls-2" />
      <path
         id="path1067"
         d="m 1485.05,353.31 a 6.18,6.18 0 0 0 1.89,-1 7,7 0 0 0 1.68,-1.71 13.54,13.54 0 0 0 1.7,-3.17 c 0.19,-0.52 0.33,-1.06 0.47,-1.6 0.14,-0.54 0.26,-1 0.43,-1.46 a 5.62,5.62 0 0 1 0.34,-0.64 l 0.45,-0.53 a 5.22,5.22 0 0 0 1.22,-2.28 9.39,9.39 0 0 0 0.17,-1.73 q 0,-0.44 0,-0.87 c 0.33,-0.2 0.69,-0.4 1,-0.59 l 0.55,-0.3 a 4.61,4.61 0 0 0 2.29,-3.84 c 0,-0.4 0,-0.8 0,-1.2 0,-0.23 0,-0.45 0,-0.68 0,-0.23 0,-0.71 0.05,-1.06 a 1,1 0 0 0 0.25,0 h 0.17 a 5.16,5.16 0 0 0 0.92,-0.23 c 0.36,-0.08 0.73,-0.14 1.09,-0.19 a 5.84,5.84 0 0 0 1.86,-0.4 6.76,6.76 0 0 0 0.77,-0.55 9,9 0 0 0 1,-0.67 c 0.35,-0.31 0.37,-0.66 0.59,-1.05 -0.06,-1.63 -0.17,-3.27 -0.34,-4.89 -0.23,-1.25 -0.51,-2.49 -0.69,-3.75 -0.27,-1.8 -0.38,-3.62 -0.57,-5.43 a 17.39,17.39 0 0 1 -0.37,-3.65 12.6,12.6 0 0 1 0.46,-3.46 21.21,21.21 0 0 0 0.78,-2 14.24,14.24 0 0 0 0.28,-2.26 l 0.06,-0.74 c 0,-0.18 0,-0.36 0,-0.54 a 36.43,36.43 0 0 1 0.67,-3.73 31.85,31.85 0 0 0 0.38,-3.68 c 0.3,-3.82 0.57,-7.61 -0.29,-11.4 a 16.42,16.42 0 0 0 -1.14,-3.49 6.4,6.4 0 0 1 -1.1,0.11 4.09,4.09 0 0 1 -1,-0.12 13.81,13.81 0 0 1 -3.06,-1.38 l -0.44,-0.24 -0.53,-0.31 a 2.41,2.41 0 0 1 -0.54,0.2 c -0.24,0.09 -1,-1.35 -1.35,-1.16 -0.35,0.19 -1.41,-0.13 -1.84,0 -0.43,0.13 0.34,2.3 -0.13,2.39 H 1493 c -0.29,0.06 -0.57,0.11 -0.87,0.19 l -1.5,0.46 -0.74,0.22 -0.89,0.24 c 0,0 -0.06,0 -0.07,0 h 0.05 c -7.5,-1.95 -20,9.34 -24.47,13.9 -8.47,8.63 -15,15.46 -23.51,24.09 -2.51,2.56 -6.91,3.19 -10.37,6.15 -1.65,1.41 4.09,4.17 2.58,11.95 -0.22,1.13 9,5.13 12.1,6.51 3.77,1.68 6.48,2.69 10.18,4.4 3.38,1.56 11.6,6.42 12.77,4.54 a 11.32,11.32 0 0 1 1.28,-1.49 l 1,-1.09 a 3.68,3.68 0 0 0 0.4,-0.6 7.64,7.64 0 0 0 1.35,1.27 30.45,30.45 0 0 0 2.75,1.78 10.29,10.29 0 0 0 1.51,0.69 15.66,15.66 0 0 1 1.52,0.63 14.12,14.12 0 0 0 3.47,1.1 10,10 0 0 0 1.94,0.21 6.21,6.21 0 0 0 1.93,-0.28"
         class="cls-26" />
      <polygon
         id="polygon1069"
         points="1503.71,301.9 1503.73,301.9 1503.74,301.82 "
         class="cls-28" />
      <path
         id="path1071"
         d="m 1430.73,326.23 a 3.66,3.66 0 0 0 1.48,-0.36 13.12,13.12 0 0 0 2.58,-1.62 l 0.42,-0.31 c 1,-0.73 2,-1.53 3,-2.43 l 0.76,-0.66 c 0.58,-0.5 1.16,-1 1.71,-1.53 0.55,-0.53 0.83,-0.84 1.24,-1.28 l 0.33,-0.34 0.28,-0.29 0.56,-0.57 c 0.82,-0.82 1.62,-1.65 2.4,-2.52 l 0.28,-0.31 c 0.66,-0.74 1.33,-1.48 2,-2.18 l 0.74,-0.71 0.24,-0.23 0.14,-0.13 c 0.45,-0.42 0.9,-0.84 1.33,-1.29 0.71,-0.76 1.42,-1.54 2.13,-2.32 l 0.4,-0.45 c 0.49,-0.54 1,-1.09 1.44,-1.64 l 0.59,-0.68 0.35,-0.4 c 0.59,-0.7 1.21,-1.35 1.84,-2 l 0.15,-0.15 0.35,-0.38 c 0.44,-0.45 0.86,-0.91 1.29,-1.38 l 0.3,-0.33 c 0.91,-1 1.92,-2.1 3,-3.12 l 1.07,-1 c 1.72,-1.66 2.89,-2.76 4,-3.79 1.11,-1.03 2.42,-2 3.64,-2.89 l 0.85,-0.65 c 0.52,-0.39 1,-0.79 1.54,-1.2 l 0.19,-0.15 c 1,-0.76 1.89,-1.49 2.83,-2.16 l 0.68,-0.46 0.68,-0.46 a 31.34,31.34 0 0 1 3.69,-2 l 1,-0.47 a 25.16,25.16 0 0 1 4.19,-1.57 l 0.42,-0.12 0.22,-0.07 -0.25,-0.06 h 0.26 l 0.89,-0.24 0.75,-0.22 1.49,-0.46 0.88,-0.19 h 0.18 c 0.46,-0.08 0.91,-0.17 1.35,-0.29 a 6.56,6.56 0 0 0 1.16,-0.54 7,7 0 0 1 0.8,-0.39 2.31,2.31 0 0 0 0.55,-0.2 l 0.52,0.31 0.44,0.24 a 14,14 0 0 0 3.06,1.38 4.11,4.11 0 0 0 1,0.12 7.14,7.14 0 0 0 2.07,-0.37 5.2,5.2 0 0 0 2.3,-1.8 8.25,8.25 0 0 0 1.37,-4 19.25,19.25 0 0 0 -0.26,-5.37 c -0.09,-0.53 -0.18,-1.06 -0.28,-1.59 l -0.16,-0.9 a 16.16,16.16 0 0 1 -0.25,-2.54 c 0,-0.41 0,-0.81 0.1,-1.23 0.06,-0.25 0.15,-0.52 0.24,-0.78 l 0.09,-0.28 c 0.17,-0.5 0.31,-0.88 0.4,-1.27 a 8.63,8.63 0 0 0 0.16,-4.21 9.84,9.84 0 0 0 -0.59,-2 9.16,9.16 0 0 0 -1.46,-2.5 9,9 0 0 0 -1.59,-1.45 c -0.59,-0.43 -1,-0.73 -1.5,-1 a 17.9,17.9 0 0 0 -7.07,-2.15 c -0.68,-0.07 -1.35,-0.12 -2,-0.17 a 23.62,23.62 0 0 1 -5.07,-0.75 6.14,6.14 0 0 1 -1,-0.54 l -0.33,-0.31 c -0.1,-0.16 -0.2,-0.32 -0.29,-0.49 a 18.18,18.18 0 0 1 -0.64,-2.12 27.48,27.48 0 0 0 -1,-3.26 12.75,12.75 0 0 0 -1.63,-3 10.68,10.68 0 0 0 -3,-2.68 14.14,14.14 0 0 0 -6.25,-1.81 17.37,17.37 0 0 0 -2,-0.11 c -0.46,0 -0.92,0 -1.37,0.05 a 15.55,15.55 0 0 0 -3,0.58 c -0.18,0.06 -0.18,0.09 -0.18,0.1 a 13.29,13.29 0 0 0 -2.64,0.88 12.44,12.44 0 0 0 -2.8,1.78 19.19,19.19 0 0 0 -4.29,5.23 26.57,26.57 0 0 0 -1.6,3.41 21.56,21.56 0 0 0 -1,3.75 c 0,0.31 -0.09,0.62 -0.13,0.94 a 24.75,24.75 0 0 0 -4.54,-0.8 c -0.43,0 -0.86,-0.05 -1.28,-0.05 a 13.31,13.31 0 0 0 -2.67,0.25 c -1.24,0.22 -2.46,0.47 -3.67,0.75 l -0.78,0.19 a 22.94,22.94 0 0 0 -3,0.81 27.12,27.12 0 0 0 -3.42,1.67 c -1,0.54 -1.94,1.07 -2.92,1.59 l -0.27,0.14 c -1.2,0.66 -2.4,1.31 -3.58,2 -1.18,0.69 -2.26,1.37 -3.34,2.14 a 29.23,29.23 0 0 0 -2.38,2 l -0.37,0.32 c -0.93,0.85 -1.87,1.71 -2.75,2.64 a 29.1,29.1 0 0 0 -3.26,4.37 c -0.68,1 -1.29,2.1 -1.9,3.18 l -0.11,0.19 c -0.64,1.12 -1.25,2.18 -1.91,3.19 -0.27,0.39 -0.53,0.78 -0.8,1.16 l -0.32,0.45 c -0.37,0.52 -0.75,1.05 -1.1,1.59 a 14.42,14.42 0 0 0 -0.86,1.36 12.34,12.34 0 0 0 -1.31,3.43 40.82,40.82 0 0 0 -0.94,9.15 9.58,9.58 0 0 0 0.26,1.77 l 0.13,0.63 a 16.29,16.29 0 0 0 0.62,2.23 32.8,32.8 0 0 0 1.64,3.76 38,38 0 0 0 4.11,6.21 l 1,1.29 0.12,0.16 a 39.91,39.91 0 0 0 3.76,4.44 c 1.06,1 1.87,1.83 2.65,2.73 0.78,0.9 1.34,1.57 2,2.38 a 33.81,33.81 0 0 1 3.64,6.27 37.58,37.58 0 0 0 1.67,3.45 5.35,5.35 0 0 0 1.65,1.78 2.6,2.6 0 0 0 1.21,0.44 h 0.3"
         class="cls-19" />
      <path
         id="path1073"
         d="m 1495.73,377.23 v 0.08 c 0,0 0,0 0,0 0,0 0,0 0,0 a 2,2 0 0 1 0,0.24 m -5.21,5.94 a 1.18,1.18 0 0 0 -0.18,-0.13 m -11.7,-19.27 a 1.83,1.83 0 0 1 -0.13,-0.16"
         class="cls-21" />
      <path
         id="path1075"
         d="m 1570,814 c 11.86,-1.51 6.07,-7.11 0.88,-10.79 -11.43,-8.1 -23.41,-14.85 -35.56,-21.83 a 10.52,10.52 0 0 0 -1.94,5 l -34.54,-8.58 c -2.73,-0.68 -5.76,-1.58 -7.13,-4 -1,-1.87 -1.12,-4.58 -3.08,-5.45 -2.61,-1.17 -4.82,2.23 -5.69,5 -1.47,4.67 -3,9.4 -3.08,14.29 -0.08,4.89 1.27,10 4.82,13.4 3.55,3.4 8.69,4.48 13.58,4.82 8.46,0.58 20,1.54 28.45,1.9 8.64,0.37 14.17,0.24 22,4 6.75,3.24 9.65,1.45 17.38,2.31 0.65,0.06 1.33,0.1 2,0.1 a 13.3,13.3 0 0 0 2,-0.13"
         class="cls-11" />
      <path
         id="path1077"
         d="m 1645.54,375.5 c -1.06,8.49 2.64,19.27 -9.49,20.17 -2.73,0.21 -5.48,0 -8.18,0.34 -7.72,1.1 -11.48,7.46 -17,12.08 q -12.31,10.23 -24.62,20.47 c -7.11,5.9 -14.21,13.53 -22.19,18.17 a 13.15,13.15 0 0 1 -2.26,1.08 24.56,24.56 0 0 1 -2.57,0.72 19.64,19.64 0 0 1 -4.25,0.49 c -1.36,0 -2.74,0.05 -4.1,0.05 a 77,77 0 0 1 -11.1,-0.68 l -1.57,-0.26 c -0.71,-0.13 -1.42,-0.25 -2.14,-0.33 l -1,-0.12 c -3.41,-0.33 -5.78,-1.68 -8.92,-2.7 -4,-1.3 -8.6,-1.7 -12.74,-2.52 -0.48,-0.09 -0.94,-0.18 -1.41,-0.29 l -24.39,-4.83 a 101.26,101.26 0 0 1 20.37,-23.79 c 1.26,-1.09 2.56,-2.15 3.88,-3.18 1.53,-1.18 4.82,-4 5.85,-5.67 0.4,-0.64 -0.14,0.75 0,0 l 5.2,2.63 h -0.13 c 0.61,0.35 1.24,0.69 1.87,1 a 81.39,81.39 0 0 0 17.81,6.86 16.51,16.51 0 0 0 6.27,0.65 17.74,17.74 0 0 0 6.32,-2.65 l 42.85,-24.81 a 36.15,36.15 0 0 0 6.84,-4.71 c 4.54,-4.28 6.52,-10.55 8.32,-16.53 q 2.38,-7.92 4.77,-15.85 c 0.24,-0.79 0.61,-1.7 1.41,-1.87 1.19,-0.24 1.88,1.29 2.1,2.48 q 1.26,6.82 2.54,13.65 c 2.8,0 5.29,-1.72 7.45,-3.53 2.16,-1.81 4.34,-3.8 7.08,-4.42 2.74,-0.62 6.19,0.84 6.56,3.63 0.25,1.86 -0.9,3.6 -2,5.12 1.78,0.12 3,2 3.21,3.77 0.21,1.77 -0.42,3.59 -0.64,5.38 z"
         class="cls-26" />
      <path
         id="path1079"
         d="m 1433.69,325 a 17.86,17.86 0 0 1 2.74,3.43 c 1.44,2.39 0.9,6.77 1.53,9.94 4.86,2.28 9.22,-7.95 4.35,-13.69 -0.81,-0.94 -1.38,-1.49 -1.3,-2 0.53,-3.18 1.06,-3.51 2.08,-5.83 -3.51,3.47 -5.57,6.22 -9.4,8.15 z" />
      <path
         id="path1081"
         d="m 1462.57,346.06 c -2.06,-0.84 -6.37,0.29 -8.27,-0.47 a 130.71,130.71 0 0 0 13,6.32 30,30 0 0 0 3.93,-4.05 l 14,5.71 c -1.61,-2.85 -12,-20.34 -27.14,-18.74 z" />
      <path
         id="path1083"
         d="m 1495.14,277 c -1.37,2 2.85,1.18 -0.44,0.78 -9.71,-1.19 -20.69,7.61 -26.56,13.13 -4,3.77 -9.78,8 -12.86,12.61 a 37.81,37.81 0 0 1 -3.27,4.16 c 5.16,0.16 7.18,4 8.62,5.3 1.48,-2.34 0.09,-1.48 1.32,-3.93 5.63,-11.21 13,-21.86 28.38,-22.63 5.4,-0.27 9.12,-3.12 10.67,-7.09 z" />
      <path
         id="path1085"
         d="m 1503.47,328.66 c -10.31,-2.5 -8.77,-7.72 -8.59,-11.3 0.18,-3.58 0.32,-7 0.55,-12 l -8.39,-3.14 c 0,-0.5 0,-1 0.08,-1.49 5.06,0 9.73,0.19 16.6,0.19 -1.72,9.67 -2.72,18.08 -0.25,27.74 z" />
      <path
         id="path1087"
         d="m 1487.67,332.67 10,2.08 -3.81,7.09 -7.83,-6.14 z" />
      <path
         id="path1089"
         d="m 1453.44,247 c 0,0 8.09,16.93 14.69,15.33 6.82,-1.65 16.92,10.47 16.92,10.47 0,0 -17.54,-6.8 -26.31,-2.9 -18.16,8.08 -32.53,42.49 -32.53,42.49 0,0 -0.74,-38.45 20.14,-48 12.65,-5.84 7.09,-17.39 7.09,-17.39 z"
         class="cls-3" />
      <path
         id="path1091"
         d="m 1486.63,244.63 a 14.38,14.38 0 0 0 -9.41,7.33 c -2.93,6.06 6.73,16.34 6.73,16.34 0,0 -2.19,-11.3 -1.59,-16.56 0.71,-6.23 9.34,-6.36 9.34,-6.36 z"
         class="cls-3" />
      <path
         id="path1093"
         d="m 1447.55,255.91 c -0.48,1 -19.44,0.25 -24.3,8.91 -4.86,8.66 -2.53,29.52 -2.53,29.52 0,0 2.76,-22.89 7,-26 4.24,-3.11 19.83,-12.43 19.83,-12.43 z"
         class="cls-3" />
      <path
         id="path1095"
         d="m 1490.61,432.65 c 0,0 48.87,11.45 62.08,9.64 11.6,-1.6 57,-37.27 67.9,-46 1.51,-1.2 -0.87,-3.76 -0.87,-3.76 l 25.4,-5.31 c 0,0 1,10.52 -20.62,8.79 -5.54,5.24 -47.53,47.41 -62.73,51.76 -21.48,6.14 -74.24,-10.47 -74.24,-10.47 z" />
      <path
         id="path1097"
         d="m 1462.08,451.07 26.38,18.09 -4.87,18.74 -6.92,26.8 21.95,-25.77 5.71,-24.57 c 1.48,-6.37 8.84,-20.23 8.84,-20.23 l -25.64,-6.79 -4.53,11.83 -20.9,-9.93 7.49,9.93 z"
         class="cls-11" />
      <path
         id="path1099"
         d="m 1487.53,537.36 c 0,0 3.55,26.75 -8.8,36.63 -12.35,9.88 -9.16,22.1 -9.16,22.1 0,0 23.39,-21.46 40.54,-12.29 17.15,9.17 67.53,26.61 83.82,32.88 16.29,6.27 12.76,3.62 12.76,3.62 0,0 -40.36,-27.6 -64.81,-35.57 -15,-4.9 -30.39,-10.12 -39.84,-19.1 -10.13,-9.63 -14.51,-28.27 -14.51,-28.27 z"
         class="cls-11" />
      <path
         id="path1101"
         d="m 1476.66,648.18 c 0,0 8.25,-31.36 6.93,-42 -1.32,-10.64 -41.84,40 -41.84,40 l 11.72,11.66 -16.87,71.85 -23.19,23.2 19.76,-3.77 -27.28,65 15.73,-9.61 51.8,-148.14 c 0,0 32.3,13 50.8,18.16 7.46,2.09 -47.56,-26.35 -47.56,-26.35 z"
         class="cls-11" />
      <path
         id="path1103"
         d="m 1621.91,650.76 -32.11,72.56 11.2,-11.24 c 0,0 -12.12,31.52 -20.5,43.92 -2.49,3.67 -31.85,19.71 -31.85,19.71 v 0 c 0,0 25,10.59 32.37,8.92 7.37,-1.67 40.89,-133.87 40.89,-133.87 z"
         class="cls-11" />
      <path
         id="path1105"
         d="m 1480.55,370 -46.69,-17.34 19.59,16.55 c 0,0 19.22,-2.92 27.1,0.79 z"
         class="cls-11" />
      <path
         id="path1107"
         d="m 1430.45,410.25 c 0,0 3.33,22.59 11.3,26.86 a 106.34,106.34 0 0 0 34.92,11.5 z"
         class="cls-11" />
      <path
         id="path1109"
         d="m 1379.59,913.87 a 11,11 0 0 1 3.21,-0.82 29.12,29.12 0 0 0 -10.25,8 28.57,28.57 0 0 0 -5.08,9.19 c -0.79,2.41 -0.35,7.23 -3.59,7.73 -0.31,0 -0.61,0.06 -0.91,0.07 h -0.29 c -1,0.06 -1.9,0.12 -2.84,0.2 0,-0.17 0,-0.34 0,-0.53 a 13.91,13.91 0 0 1 0.48,-3.44 26.05,26.05 0 0 1 2.88,-7 16,16 0 0 1 2.62,-3.49 c 0.59,-0.58 1.23,-1.1 1.87,-1.64 0.3,-0.24 0.61,-0.49 0.9,-0.75 0.94,-0.79 1.86,-1.57 2.85,-2.31 a 34,34 0 0 1 3.32,-2.17 l 0.41,-0.24 c 0.55,-0.33 1.06,-0.7 1.58,-1.06 a 18.4,18.4 0 0 1 2.84,-1.74 z"
         class="cls-2" />
    </g>
  </g>
</svg>
