<svg xmlns="http://www.w3.org/2000/svg" viewBox="0 0 95.77 187.5"><defs><style>.cls-1{fill:#0071bb;}.cls-2{fill:#00b6cd;}</style></defs><title>parking-v2</title><g id="Layer_2" data-name="Layer 2"><g id="Parking"><polygon class="cls-1" points="66.63 140.11 78.47 183.51 28.16 183.51 40 140.11 66.63 140.11"/><path class="cls-2" d="M83.26,6h-64a12,12,0,0,0-12,12V99a12,12,0,0,0,12,12h64a12,12,0,0,0,12-12V18A12,12,0,0,0,83.26,6ZM55.82,71.15H34.66V92.31h-7V29.38a4.69,4.69,0,0,1,4.68-4.68H55.82a23.23,23.23,0,1,1,0,46.45Z"/><path class="cls-2" d="M71.05,48.93A16.25,16.25,0,0,1,54.82,65.15H33.66V32.7H54.82A16.25,16.25,0,0,1,71.05,48.93Z"/><path d="M95.77,66.45V15.34A15.35,15.35,0,0,0,80.44,0H15.34A15.36,15.36,0,0,0,0,15.34V96.22a15.35,15.35,0,0,0,15.34,15.33H43.4v23.58h-13L18.05,180.5H.05v7H95.23v-7H74.77L62.4,135.13h-12V111.55h30A15.35,15.35,0,0,0,95.77,96.22V87.34h-7v8.88a8.34,8.34,0,0,1-8.33,8.33H15.34A8.35,8.35,0,0,1,7,96.22V15.34A8.35,8.35,0,0,1,15.34,7h65.1a8.35,8.35,0,0,1,8.33,8.34V66.45ZM57.05,142.13,67,178.53H25.84l9.93-36.4Z"/><path d="M52.82,21.7H29.34a4.69,4.69,0,0,0-4.68,4.68V89.31h7V68.15H52.82a23.23,23.23,0,1,0,0-46.45Zm0,39.45H31.66V28.7H52.82a16.23,16.23,0,1,1,0,32.45Z"/></g></g></svg>