<svg xmlns="http://www.w3.org/2000/svg" viewBox="0 0 202 190.5"><defs><style>.cls-1{fill:#faaf40;}.cls-2{fill:#00adee;}</style></defs><title>public-transportation</title><g id="Layer_2" data-name="Layer 2"><g id="Public_Transportation" data-name="Public Transportation"><circle class="cls-1" cx="47.5" cy="141" r="6.5"/><circle class="cls-1" cx="157.5" cy="142" r="6.5"/><path class="cls-2" d="M179.5,85.66V156a8.51,8.51,0,0,1-8.5,8.5H35a8.51,8.51,0,0,1-8.5-8.5V48.3c0-.87,0-1.7.09-2.48v0a1.48,1.48,0,0,0,0-.21A39.37,39.37,0,0,1,65.8,9h74.4a39.24,39.24,0,0,1,39.25,37.36c0,.08,0,.15,0,.23,0,.57,0,1.13,0,1.71ZM173,112V39a3.5,3.5,0,0,0-3.5-3.5H37.5A3.5,3.5,0,0,0,34,39v73a3.5,3.5,0,0,0,3.5,3.5H100V132h7V115.5h62.5A3.5,3.5,0,0,0,173,112Zm-1,30a13.5,13.5,0,1,0-13.5,13.5A13.52,13.52,0,0,0,172,142ZM125.5,25.5v-7h-45v7ZM62,142a13.5,13.5,0,1,0-13.5,13.5A13.52,13.52,0,0,0,62,142Z"/><path d="M186.5,39.5h-1a15.63,15.63,0,0,0-2.47.2A46.2,46.2,0,0,0,137.2,0H62.8A46.37,46.37,0,0,0,17,39.51H15.5A15.51,15.51,0,0,0,0,55V84.27A4.24,4.24,0,0,0,4.23,88.5H16.5v35h7V46.3c0-.87,0-1.7.09-2.48v0a1.48,1.48,0,0,0,0-.21A39.37,39.37,0,0,1,62.8,7h74.4a39.24,39.24,0,0,1,39.25,37.36c0,.08,0,.15,0,.23,0,.57,0,1.13,0,1.71V154a8.51,8.51,0,0,1-8.5,8.5H32a8.51,8.51,0,0,1-8.5-8.5V142.68h-7V154A15.51,15.51,0,0,0,32,169.5h5v10a11,11,0,0,0,11,11h5a11,11,0,0,0,11-11v-10h73v10a11,11,0,0,0,11,11h5a11,11,0,0,0,11-11v-10h4A15.51,15.51,0,0,0,183.5,154V88.37a14.93,14.93,0,0,0,2,.13h12.27A4.24,4.24,0,0,0,202,84.27V55A15.51,15.51,0,0,0,186.5,39.5Zm-170,42H7V55a8.51,8.51,0,0,1,8.5-8.5h1Zm40.5,98a4,4,0,0,1-4,4H48a4,4,0,0,1-4-4v-10H57Zm100,0a4,4,0,0,1-4,4h-5a4,4,0,0,1-4-4v-10h13Zm38-98h-9.5a8.36,8.36,0,0,1-2-.24V46.74a8.42,8.42,0,0,1,2-.24h1A8.51,8.51,0,0,1,195,55Z"/><path d="M166.5,33.5h-16v7H163v66H104v-66h25.52v-7h-95A3.5,3.5,0,0,0,31,37v73a3.5,3.5,0,0,0,3.5,3.5H97V130h7V113.5h62.5A3.5,3.5,0,0,0,170,110V37A3.5,3.5,0,0,0,166.5,33.5ZM38,106.5v-66H97v66Z"/><rect x="77.5" y="16.5" width="45" height="7"/><path d="M45.5,126.5A13.5,13.5,0,1,0,59,140,13.52,13.52,0,0,0,45.5,126.5Zm0,20A6.5,6.5,0,1,1,52,140,6.51,6.51,0,0,1,45.5,146.5Z"/><path d="M155.5,153.5A13.5,13.5,0,1,1,169,140,13.52,13.52,0,0,1,155.5,153.5Zm0-20A6.5,6.5,0,1,0,162,140,6.51,6.51,0,0,0,155.5,133.5Z"/><rect x="43.44" y="52" width="31.11" height="7" transform="translate(-21.52 46.72) rotate(-37.03)"/><rect x="38.2" y="62.5" width="53.6" height="7" transform="translate(-26.55 51.87) rotate(-36.66)"/></g></g></svg>