<svg xmlns="http://www.w3.org/2000/svg" viewBox="0 0 176 187"><defs><style>.cls-1{fill:#faaf40;}.cls-2{fill:#ee4018;}</style></defs><title>recruiting</title><g id="Layer_2" data-name="Layer 2"><g id="Recruiting"><path class="cls-1" d="M1.5,187a35.5,35.5,0,0,1,71,0"/><path class="cls-2" d="M95.5,187a35.5,35.5,0,0,1,71,0"/><path d="M148,3.5v59a3.5,3.5,0,0,1-3.5,3.5H128V77.5A3.5,3.5,0,0,1,122,80l-14-14H65L51,80a3.5,3.5,0,0,1-6-2.48V66H26.5A3.5,3.5,0,0,1,23,62.5V3.5A3.5,3.5,0,0,1,26.5,0H56.4V7H30V59H52v10l10-10H111l10,10V59h20V7H75.1V0h69.4A3.5,3.5,0,0,1,148,3.5Z"/><path d="M85.08,42.07a3.5,3.5,0,0,1-2.48-1l-6.9-6.91,5-5,4.43,4.44L101,17.67l5,4.95L87.55,41A3.46,3.46,0,0,1,85.08,42.07Z"/><path d="M86,54.5a21,21,0,1,1,10-39.44L92.69,21.2A14,14,0,1,0,100,33.5h7A21,21,0,0,1,86,54.5Z"/><path d="M149,145.77a30.51,30.51,0,1,0-30.57.23A42,42,0,0,0,92,185h7a35,35,0,0,1,70,0h7A42.05,42.05,0,0,0,149,145.77ZM110,119.5A23.5,23.5,0,1,1,133.5,143,23.52,23.52,0,0,1,110,119.5Z"/><path d="M57,145.77a30.51,30.51,0,1,0-30.57.23A42,42,0,0,0,0,185H7a35,35,0,0,1,70,0h7A42.05,42.05,0,0,0,57,145.77ZM18,119.5A23.5,23.5,0,1,1,41.5,143,23.52,23.52,0,0,1,18,119.5Z"/></g></g></svg>