<?xml version="1.0" encoding="UTF-8" standalone="no"?>
<svg
   xmlns:dc="http://purl.org/dc/elements/1.1/"
   xmlns:cc="http://creativecommons.org/ns#"
   xmlns:rdf="http://www.w3.org/1999/02/22-rdf-syntax-ns#"
   xmlns:svg="http://www.w3.org/2000/svg"
   xmlns="http://www.w3.org/2000/svg"
   xmlns:sodipodi="http://sodipodi.sourceforge.net/DTD/sodipodi-0.dtd"
   xmlns:inkscape="http://www.inkscape.org/namespaces/inkscape"
   inkscape:version="1.0 (4035a4f, 2020-05-01)"
   height="250"
   width="250"
   sodipodi:docname="tech-tools-icon.svg"
   id="svg2049"
   version="1.1"
   viewBox="0 0 250 250">
  <metadata
     id="metadata2053">
    <rdf:RDF>
      <cc:Work
         rdf:about="">
        <dc:format>image/svg+xml</dc:format>
        <dc:type
           rdf:resource="http://purl.org/dc/dcmitype/StillImage" />
        <dc:title>tech-tools</dc:title>
      </cc:Work>
    </rdf:RDF>
  </metadata>
  <sodipodi:namedview
     inkscape:current-layer="svg2049"
     inkscape:window-maximized="0"
     inkscape:window-y="23"
     inkscape:window-x="0"
     inkscape:cy="92.029832"
     inkscape:cx="65.921949"
     inkscape:zoom="1.7877491"
     showgrid="false"
     id="namedview2051"
     inkscape:window-height="997"
     inkscape:window-width="1243"
     inkscape:pageshadow="2"
     inkscape:pageopacity="0"
     guidetolerance="10"
     gridtolerance="10"
     objecttolerance="10"
     borderopacity="1"
     bordercolor="#666666"
     pagecolor="#ffffff" />
  <defs
     id="defs2029">
    <style
       id="style2027">.cls-1{fill:#00b6cd;}.cls-2{fill:#faaf40;}</style>
  </defs>
  <title
     id="title2031">tech-tools</title>
  <g
     transform="translate(0,31.883669)"
     data-name="Layer 2"
     id="Layer_2">
    <g
       data-name="Tech Tools"
       id="Tech_Tools">
      <path
         id="path2033"
         d="m 43.37,12 v 107 h 162 V 12 Z m 61.37,30.52 8.54,-3.94 a 2.94,2.94 0 0 1 -1.59,1.81 l -9,4.13 a 3,3 0 0 1 -2.53,0 L 93,41.17 l 1.33,-2.31 7.83,3.66 a 3,3 0 0 0 2.58,0 z m 36.46,-0.13 a 3,3 0 0 0 2.65,0.18 l 9.32,-3.83 7.63,12.72 -2.17,1.71 -7.46,-12.43 -9.32,3.83 a 3,3 0 0 1 -2.65,-0.18 l -8.26,-4.82 A 3,3 0 0 1 129.45,37 V 27.59 H 116.3 l 0.21,-2 h 14.94 V 35 a 3,3 0 0 0 1.49,2.59 z m -38.93,24.87 a 19.82,19.82 0 0 1 6.86,-15 19.85,19.85 0 0 0 28,28 19.85,19.85 0 0 1 -34.86,-13 z M 124.13,51.4 A 13.86,13.86 0 1 1 110.27,65.26 13.88,13.88 0 0 1 124.13,51.4 Z m 8.7,43.28 -0.52,8.87 h -1.88 l 0.4,-6.87 a 3,3 0 0 1 1.33,-2.32 l 0.87,-0.58 a 3,3 0 0 0 -0.2,0.9 z m 21.72,-4 6.22,-10.79 -9.3,-6 a 3,3 0 0 1 -1.37,-2.52 v -9.61 a 3,3 0 0 1 1.15,-2.36 l 1.12,-0.88 a 2.91,2.91 0 0 0 -0.27,1.24 v 9.63 a 3,3 0 0 0 1.37,2.52 l 9.3,6 -7.54,13.09 z"
         class="cls-1" />
      <circle
         id="circle2035"
         transform="matrix(0.07,-1,1,0.07,46.45,182.39)"
         r="13.86"
         cy="66.260002"
         cx="121.13"
         class="cls-1" />
      <path
         id="path2037"
         d="m 151.47,73.91 a 3,3 0 0 1 -1.37,-2.52 v -9.63 a 3,3 0 0 1 1.15,-2.36 l 1.12,-0.88 6.43,-5.06 -0.17,-0.29 -7.46,-12.43 -9.32,3.83 a 3,3 0 0 1 -2.65,-0.18 l -8.26,-4.82 A 3,3 0 0 1 129.45,37 V 27.59 H 114.51 L 113.41,38 a 2.38,2.38 0 0 1 -0.13,0.6 2.94,2.94 0 0 1 -1.59,1.81 l -9,4.13 a 3,3 0 0 1 -2.53,0 L 93,41.19 l -0.67,-0.31 -7.6,13.19 8.16,6 a 3,3 0 0 1 1.22,2.42 V 70.7 A 3.07,3.07 0 0 1 93.88,72 3.12,3.12 0 0 1 93,73.05 L 86.88,78 84.72,79.72 92.38,93 l 9.2,-4.33 a 3,3 0 0 1 2.7,0.07 l 9,4.82 a 3,3 0 0 1 1.58,2.64 v 9.38 h 15.5 l 0.12,-2 0.4,-6.87 a 3,3 0 0 1 1.33,-2.32 l 0.87,-0.58 7.39,-4.93 a 3,3 0 0 1 2.89,-0.24 l 9.87,4.36 1.32,-2.3 6.22,-10.79 z m -29.34,13.21 a 19.89,19.89 0 1 1 15,-6.86 19.88,19.88 0 0 1 -15,6.86 z"
         class="cls-2" />
      <path
         id="path2039"
         d="M 124.13,45.4 A 19.85,19.85 0 1 0 144,65.26 19.82,19.82 0 0 0 124.13,45.4 Z m 0,33.72 A 13.86,13.86 0 1 1 138,65.26 13.87,13.87 0 0 1 124.13,79.12 Z" />
      <path
         id="path2041"
         d="M 168.43,74.44 158.1,67.76 v -6.54 l 8.49,-6.67 a 3,3 0 0 0 0.72,-3.91 L 157,33.44 a 3,3 0 0 0 -3.71,-1.23 l -10.33,4.25 -5.49,-3.2 V 22.59 a 3,3 0 0 0 -3,-3 h -20.66 a 3,3 0 0 0 -3,2.69 l -1.19,11.38 -6.14,2.83 -9.06,-4.23 a 3,3 0 0 0 -3.87,1.22 l -10.31,17.9 a 3,3 0 0 0 0.82,3.91 l 9.1,6.71 v 5.29 L 81,74.62 a 3,3 0 0 0 -0.72,3.84 l 10.28,17.89 a 3,3 0 0 0 3.88,1.22 l 10.33,-4.86 6,3.25 v 10.59 a 3,3 0 0 0 3,3 h 21.33 a 3,3 0 0 0 3,-2.82 l 0.6,-10.21 5.64,-3.76 10.88,4.84 a 3,3 0 0 0 3.81,-1.25 L 169.4,78.46 a 3,3 0 0 0 -0.97,-4.02 z m -13.2,16.56 -0.68,-0.3 -9.24,-4.11 a 3,3 0 0 0 -2.89,0.24 l -8.26,5.51 a 3.05,3.05 0 0 0 -1.33,2.32 l -0.52,8.87 h -15.5 v -9.36 a 3,3 0 0 0 -1.58,-2.64 l -9,-4.82 a 3,3 0 0 0 -2.7,-0.07 L 94.38,91 86.88,78 86.72,77.72 93.88,72 95,71.05 A 3,3 0 0 0 96.12,68.7 V 60.45 A 3,3 0 0 0 94.94,58 l -8.16,-6 6.27,-10.88 1.33,-2.31 7.83,3.66 a 3,3 0 0 0 2.53,0 l 8.54,-3.94 0.41,-0.19 A 3,3 0 0 0 115.41,36 l 0.89,-8.39 0.21,-2 h 14.94 V 35 a 3,3 0 0 0 1.49,2.59 l 8.26,4.82 a 3,3 0 0 0 2.65,0.18 l 9.32,-3.83 7.63,12.72 -2.17,1.71 -5.38,4.23 a 3,3 0 0 0 -0.88,1.12 2.91,2.91 0 0 0 -0.27,1.24 v 9.63 a 3,3 0 0 0 1.37,2.52 l 9.3,6 z" />
      <path
         id="path2043"
         d="M 162.73,169.13 H 81.67 A 3.5,3.5 0 0 1 79,163.41 l 13,-15.92 a 3.5,3.5 0 0 1 2.71,-1.28 h 56.45 a 3.49,3.49 0 0 1 2.83,1.44 l 11.58,15.92 a 3.5,3.5 0 0 1 -2.83,5.56 z m -73.68,-7 h 66.81 l -6.49,-8.92 h -53 z" />
      <path
         id="path2045"
         d="m 248.26,184.78 a 3.5,3.5 0 0 1 -3,1.72 H 61.82 v -7 h 177.49 l -26.53,-48 H 34.56 l -25.27,48 h 27.5 v 7 H 3.5 A 3.5,3.5 0 0 1 0.4,181.37 L 29,127.12 V 3.5 A 3.5,3.5 0 0 1 32.45,0 h 182.39 a 3.5,3.5 0 0 1 3.5,3.5 v 72.16 h -7 V 7 H 36 V 124.49 H 211.34 V 99.54 h 7 v 27.54 l 30,54.23 a 3.49,3.49 0 0 1 -0.08,3.47 z" />
    </g>
  </g>
</svg>
