<?xml version="1.0" encoding="UTF-8" standalone="no"?>
<svg
   xmlns:dc="http://purl.org/dc/elements/1.1/"
   xmlns:cc="http://creativecommons.org/ns#"
   xmlns:rdf="http://www.w3.org/1999/02/22-rdf-syntax-ns#"
   xmlns:svg="http://www.w3.org/2000/svg"
   xmlns="http://www.w3.org/2000/svg"
   xmlns:sodipodi="http://sodipodi.sourceforge.net/DTD/sodipodi-0.dtd"
   xmlns:inkscape="http://www.inkscape.org/namespaces/inkscape"
   inkscape:version="1.0 (4035a4f, 2020-05-01)"
   height="270"
   width="270"
   sodipodi:docname="training-development-icon.svg"
   id="svg851"
   version="1.1"
   viewBox="0 0 269.99999 269.99999">
  <metadata
     id="metadata855">
    <rdf:RDF>
      <cc:Work
         rdf:about="">
        <dc:format>image/svg+xml</dc:format>
        <dc:type
           rdf:resource="http://purl.org/dc/dcmitype/StillImage" />
        <dc:title>training-development</dc:title>
      </cc:Work>
    </rdf:RDF>
  </metadata>
  <sodipodi:namedview
     inkscape:current-layer="svg851"
     inkscape:window-maximized="0"
     inkscape:window-y="23"
     inkscape:window-x="0"
     inkscape:cy="177.13468"
     inkscape:cx="204.15741"
     inkscape:zoom="1.1487097"
     showgrid="false"
     id="namedview853"
     inkscape:window-height="899"
     inkscape:window-width="1328"
     inkscape:pageshadow="2"
     inkscape:pageopacity="0"
     guidetolerance="10"
     gridtolerance="10"
     objecttolerance="10"
     borderopacity="1"
     bordercolor="#666666"
     pagecolor="#ffffff" />
  <defs
     id="defs835">
    <style
       id="style833">.cls-1{fill:#00adee;}.cls-2{fill:#faaf40;}</style>
  </defs>
  <title
     id="title837">training-development</title>
  <g
     transform="translate(1.741084,45.268184)"
     data-name="Layer 2"
     id="Layer_2">
    <g
       data-name="Training &amp; Development"
       id="Training_Development">
      <path
         id="path839"
         d="m 215.84,72.82 -0.53,17.44 a 18.11,18.11 0 0 0 -2.79,1.56 c 0,0 0,0 0,0 a 20.83,20.83 0 0 0 -11.82,18.75 20.42,20.42 0 0 0 1.91,8.69 c -3,1.29 -6.39,2.66 -10.15,4 l -0.21,-0.43 c -0.21,0.1 -21.49,10.42 -61.61,10.42 -35.25,0 -72.34,-23.23 -80.88,-28.92 L 50.18,72.65 129.52,101 a 5.66,5.66 0 0 0 1.82,0.31 5.21,5.21 0 0 0 1.74,-0.29 z"
         class="cls-1" />
      <polygon
         id="polygon841"
         points="131.39,46.7 129.84,57.36 197.38,67.17 132.95,89.16 20.09,48.84 129.83,12.27 244.07,51.25 244.11,51.26 223.18,58.41 219.86,59.54 219.79,59.53 223.11,58.4 134.2,45.49 133.97,47.07 "
         class="cls-1" />
      <path
         id="path843"
         d="m 230,110.58 a 10,10 0 0 1 -5,8.67 10.94,10.94 0 0 1 -1.91,0.16 11.92,11.92 0 0 1 -11.76,-13.8 10.1,10.1 0 0 1 2.15,-2.59 9.93,9.93 0 0 1 10.83,-1.47 10,10 0 0 1 5.69,9.03 z"
         class="cls-2" />
      <polygon
         id="polygon845"
         points="212.47,177.96 219.15,151.79 225.83,177.96 "
         class="cls-2" />
      <path
         id="path847"
         d="M 265,44.87 134.06,0.19 a 3.51,3.51 0 0 0 -2.24,0 L 2.39,43.32 a 3.5,3.5 0 0 0 -0.07,6.62 l 40.6,14.5 -0.55,41.48 a 3.51,3.51 0 0 0 1.47,2.89 c 1.8,1.28 44.54,31.47 86.78,31.47 41.94,0 63.82,-10.7 64.73,-11.16 l -2.91,-5.83 -0.21,-0.43 c -0.21,0.1 -21.49,10.42 -61.61,10.42 -35.25,0 -72.34,-23.23 -80.88,-28.92 l -0.34,-0.23 0.49,-37.2 81.86,29.23 a 3.4,3.4 0 0 0 1.18,0.2 3.66,3.66 0 0 0 1.13,-0.18 l 85.82,-29.29 -0.32,22 a 18.75,18.75 0 0 0 -7,2.9 c 0,0 0,0 0,0 a 18.89,18.89 0 0 0 6.05,34 l -14,54.73 A 3.5,3.5 0 0 0 208,185 h 28.2 a 3.5,3.5 0 0 0 3.39,-4.37 l -13.88,-54.37 a 18.9,18.9 0 0 0 0.89,-37.3 l 0.35,-24.43 38.11,-13 a 3.5,3.5 0 0 0 0,-6.62 z M 231.65,178 h -19.18 l 6.68,-26.17 2.91,-11.4 z M 235,107.5 a 11.91,11.91 0 0 1 -10,11.75 10.94,10.94 0 0 1 -1.91,0.16 A 11.91,11.91 0 1 1 235,107.5 Z m 9.14,-56.24 -20.93,7.15 h -0.07 L 134.2,45.49 134,47.07 133.22,52.42 208.6,63.36 197.41,67.17 133,89.16 20.09,48.84 14.23,46.75 132.91,7.19 l 120.14,41 -9,3.07 z" />
    </g>
  </g>
</svg>
