<svg xmlns="http://www.w3.org/2000/svg" viewBox="0 0 169 181.39"><defs><style>.cls-1{fill:#00b6cd;}.cls-2{fill:#faaf40;}</style></defs><title>USCIS</title><g id="Layer_2" data-name="Layer 2"><g id="USCIS"><path class="cls-1" d="M132,155.18l-11.65,20.21H51.94l-2.5-8.76c10.3-3.59,14-17.84,14.15-18.51s.09-.73.09-.73L57.76,147l-1.56,1.82c-3.41,9.71-8.5,11.94-10.66,12.46h0l-.12.15c-6.17.24-10.42-1-14.07-4.21,3.47-.67,7.23-2.87,11.35-6.57,7.52-6.77,11.9-23.7,12.79-34.57,5.75,5,16.35,13.51,22.83,14.32,3.51.44,10.65.29,18.21.13,8.07-.17,20.21-.43,22.61.47,1,.88,4,5.18,8,11.93a2.92,2.92,0,0,0,.68.8,2.94,2.94,0,0,0,.2,2C129.41,148.73,130.76,152,132,155.18Z"/><path d="M39.48,146.3a3.1,3.1,0,0,1-.73.09,3,3,0,0,1-1.7-.53,2.92,2.92,0,0,1-1.21-1.74A138,138,0,0,0,29,124.41c-1-2.14-2-4.29-3.14-6.32-.22-.4-.44-.8-.67-1.19-2.47-4.24-4.44-11.27-6-21.51H25.2c1.42,8.86,3.15,15.08,5.14,18.49,5.57,9.55,9.24,21.32,10.66,26.35h0c.4,1.4.62,2.28.66,2.42A3,3,0,0,1,39.48,146.3Z"/><path class="cls-2" d="M31.1,19.69c2.86,5.22,6.44,14.76-1.3,20.7H16.37a21.33,21.33,0,0,1-4.37-13c0-6.15,4.45-13.15,8.35-17.83.08.76.15,1.53.21,2.18.42,4.62.77,7.55,1.94,9.31A4.29,4.29,0,0,0,26,23.13C28.3,23.17,29.81,21.43,31.1,19.69Z"/><path d="M53.55,116.05c-.89,10.87-5.27,27.8-12.79,34.57-5,4.53-9.55,6.8-13.62,6.8a11.86,11.86,0,0,1-8.51-3.91c-1-1-3.28-3.28.46-18,1.6-6.26,4.24-14.23,6.26-16.93a2.53,2.53,0,0,1,.48-.5,3,3,0,0,1,4.32,4.1A11.6,11.6,0,0,0,29,124.41c-2.76,6.33-6.78,21.79-5.87,25.09,1.78,1.75,5.09,4.36,13.64-3.34a2.91,2.91,0,0,0,.31-.3,21.32,21.32,0,0,0,4-5.62h0c5.33-10.38,7.53-27.46,6.51-30.84l-.16-.2C45.27,106.4,42,100.35,38.8,94.1L38.22,93c-.06-.1-.11-.2-.16-.3l-.4-.79a1.09,1.09,0,0,0-.08-.15c-.29-.6-.59-1.19-.89-1.78l-2.62-5.22c-3.58-7.16-7.77-24.38-8.94-29.34H31.3c1.45,6,5.14,20.68,8.13,26.66,1,2,2.22,4.44,3.49,7l.48.94c.16.31.33.61.47.93h0a1.74,1.74,0,0,1,.1.19c.13.25.26.49.38.74s.14.27.21.4.19.36.28.54l.29.55s0,0,0,0l.57,1.09.59,1.14A101.53,101.53,0,0,0,52,105.35a5.27,5.27,0,0,1,1.32,2.46,14.07,14.07,0,0,1,.37,2.42A39.06,39.06,0,0,1,53.55,116.05Z"/><path d="M39,42.39v10a3,3,0,0,1-3,3H31.56c-.38-1.62-.61-2.62-.62-2.67A3,3,0,0,0,28,50.39v-1h5v-4H30v-.52a19.36,19.36,0,0,0,5.73-5.48H36A3,3,0,0,1,39,42.39Z"/><path d="M32.5,12.73C38,20.91,41,31.38,35.9,39.39H27.8c7.74-5.94,4.16-15.48,1.3-20.7-1.29,1.74-2.8,3.48-5.09,3.44a4.29,4.29,0,0,1-3.51-2.08c-1.17-1.76-1.52-4.69-1.94-9.31-.06-.65-.13-1.42-.21-2.18C14.45,13.24,10,20.24,10,26.39a21.33,21.33,0,0,0,4.37,13H7.28A27.27,27.27,0,0,1,4,26.39c0-11.65,10.73-23,12.88-25.12a3.74,3.74,0,0,1,4-1.06c2.79,1,3.1,4.39,3.62,10,.1,1.13.24,2.66.42,4C26.15,12.55,27.42,11,29.5,11A3.68,3.68,0,0,1,32.5,12.73Z"/><path d="M27.8,39.39h8.1a18.86,18.86,0,0,1-5.44,5.48l-3.38-5C27.33,39.74,27.57,39.56,27.8,39.39Z"/><path d="M31.55,55.39H25.38c-.17-.75-.28-1.21-.31-1.33a3,3,0,0,1,2.26-3.6,3,3,0,0,1,.66-.07,3,3,0,0,1,2.94,2.33C30.94,52.77,31.17,53.77,31.55,55.39Z"/><path d="M31,44.87v.52H11v-.88l4.33-4.24s-.31-.31-.77-.88H28.28l-.73.52Z"/><path d="M28,49.39v1a3,3,0,0,0-.66.07,3,3,0,0,0-2.26,3.6c0,.12.14.58.31,1.33H12.52a4,4,0,0,1,.46-.25,3,3,0,0,0-1.2-5.75Z"/><path d="M23.62,81c-.23-2.25-.43-4.36-.61-6.21-.22-2.3-.41-4.3-.57-5.69-.23-1.82-.56-4.55-3.15-4.74-1.31-.37-6.2-2.87-7.5-6.12a2.16,2.16,0,0,1,.72-2.89H5.69a8.44,8.44,0,0,0,.52,5.11c1.89,4.71,7,7.92,10.25,9.23.17,1.36.38,3.54.58,5.67.17,1.79,1.36,9.81,1.58,12h6C24.64,87.28,23.63,81.16,23.62,81Z"/><path d="M15.58,40.33l-4.51,4.5a24.47,24.47,0,0,1-3.82-5.44h7.53C15.26,40,15.57,40.32,15.58,40.33Z"/><path d="M14.54,51.23A3,3,0,0,1,13,55.14a4,4,0,0,0-.46.25H5.69a8.47,8.47,0,0,1,4.92-5.77,3,3,0,0,1,1.16-.23A3,3,0,0,1,14.54,51.23Z"/><path d="M6,49.39h5.77a3,3,0,0,0-1.16.23,8.47,8.47,0,0,0-4.92,5.77H3a3,3,0,0,1-3-3v-10a3,3,0,0,1,3-3H7.36A23.33,23.33,0,0,0,11,44.51v.88H6Z"/><path d="M136.94,155.71,133,162.55c-.82-2.37-1.71-4.86-2.68-7.37-1.24-3.21-2.59-6.45-4-9.51a3,3,0,0,1-.28-1.38l5.67-1.22s0,0,0,0c.84,1.78,1.65,3.61,2.42,5.46C135.13,151,136.07,153.36,136.94,155.71Z"/><path d="M143.37,180.22a3,3,0,0,1-2.37,1.17H48a3,3,0,0,1-2.88-2.18l-4-14a3,3,0,1,1,5.76-1.64l3.38,11.82h93c.36,1.3.57,2.09.61,2.24A3,3,0,0,1,143.37,180.22Z"/><path d="M128.31,135.66l-5.62,1.22c-2.4-4.1-4-5.46-4.77-5.92-2.09-.89-14.44-.63-22.62-.46-7.56.16-14.7.31-18.21-.13-6.48-.81-17.08-9.31-22.83-14.32-2-1.73-3.39-3-3.86-3.48a3,3,0,0,1,3.6-4.76h0a2.66,2.66,0,0,1,.52.38c6.3,5.93,18.2,15.57,23.31,16.21,3.08.39,10.33.24,17.34.09,15.88-.34,23.12-.31,25.83,1.32,2.26,1.35,4.52,4,6.91,8.1A2.94,2.94,0,0,1,128.31,135.66Z"/><path d="M62,147.29a3,3,0,0,1-.09.83c-.16.67-3.85,14.92-14.15,18.51a14.42,14.42,0,0,1-3.49.75c-.86.07-1.69.12-2.49.13h-.51c-10.71,0-16.88-5.71-22.62-14.25a0,0,0,0,1,0,0l-.14-.21a3,3,0,1,1,5-3.32,37.56,37.56,0,0,0,6.16,7.46c3.65,3.22,7.92,4.77,14.07,4.21C51.73,160.68,55.42,149,56,147Z"/><path d="M168.83,155.4a3,3,0,0,0-1.57-1.73l-26-12a3,3,0,0,0-3.86,1.22l-3.27,5.68-3.81,6.61-.11.2-11.54,20-.86,1.5a3,3,0,0,0,2.6,4.5H155a3,3,0,0,0,2.68-1.66l11-22A3,3,0,0,0,168.83,155.4Zm-15.68,20H125.6l7.4-12.84,3.94-6.84,4.29-7.45,20.7,9.56Z"/><path d="M109.91,88.9c0-.35,0-.7-.09-1s-.07-.7-.12-1-.08-.61-.13-.91a1.73,1.73,0,0,0-.57-1.15h0a1.19,1.19,0,0,0,.08-1.11,21,21,0,0,0-2-5c-.17-.3-.34-.58-.52-.86a9.64,9.64,0,0,0-.58-.84,17.1,17.1,0,0,0-2.85-3.1,10.59,10.59,0,0,0-.84-.66,8.5,8.5,0,0,0-.86-.62A21,21,0,0,0,96.28,70c-.33-.12-.67-.22-1-.32s-.69-.2-1-.28a31.48,31.48,0,0,0-3.72-.7,2.13,2.13,0,0,1-1-.34h0a1.77,1.77,0,0,1-1,.13c-1.11-.09-2.26-.13-3.46-.13-.9,0-1.78,0-2.64.1-.35,0-.69.06-1,.9h0c-.35-.77-.69-.72-1-.67a25.47,25.47,0,0,0-2.71.53c-.36.08-.72.18-1.07.29s-.69.2-1,.32a21.55,21.55,0,0,0-5.21,2.54q-.43.28-.84.6c-.28.2-.56.42-.83.65A19.43,19.43,0,0,0,66.19,76q-.34.39-.66.81t-.6.84a21,21,0,0,0-2.47,4.92c-.12.34-.23.68-.34,1s-.2.7-.29,1.07a25.3,25.3,0,0,0-.6,3.14c0,.23-.06.46-.08.69s-.06.68-.09,1,0,.67-.05,1,0,.55,0,.82a13.57,13.57,0,0,0,.44,3.19c.15.63.34,1.29.56,2,.12.36.25.73.39,1.1s.27.73.43,1.1c.43,1.07.94,2.18,1.51,3.31,4.84,9.55,14.19,20.33,22.67,20.33,9.19,0,17.22-10.94,20.88-20.92a39.77,39.77,0,0,0,1.4-4.6c.08-.35.16-.7.23-1s.13-.7.18-1c.09-.5.16-1,.2-1.47a18.74,18.74,0,0,0,.11-1.93Q110,90.12,109.91,88.9ZM87,116.39c-6.44,0-16-12.45-19-20.69a13.09,13.09,0,0,1-1-4.31,21.47,21.47,0,0,1,.18-2.77c0-.35.1-.71.16-1.07C68.47,81.31,72.52,74.39,85,74.39c11.2,0,17.11,3.81,18.61,12.22a27.2,27.2,0,0,1,.39,4.78,18,18,0,0,1-.39,3.61C101.77,104.36,93.61,116.39,87,116.39Z"/><polygon points="101.44 75.77 97.58 73.78 93.72 71.79 101.64 61.16 109.56 50.53 105.5 63.15 101.44 75.77"/><path d="M110,49.64a1,1,0,0,0-1.27.29L94.23,69.43l-1.31,1.76a1,1,0,0,0-.17.83,1,1,0,0,0,.51.66l7.73,4a1,1,0,0,0,.46.11,1,1,0,0,0,1-.7l.73-2.26,7.38-23A1,1,0,0,0,110,49.64Zm-9.17,24.7-5.62-2.9,1-1.41L106.76,56l-5.33,16.58Z"/><polygon points="89.73 69.39 85.39 70.39 81.05 70.39 83.4 57.13 85.75 44.08 87.74 57.19 89.73 69.39"/><path d="M90.51,68.73l-3.77-24.8a1,1,0,0,0-1-.85,1,1,0,0,0-1,.82L80.29,68.72,80.06,70a1,1,0,0,0,.21.81c.19.23.47.36.76-.41l8.69,1h0a1.8,1.8,0,0,0,.76-.44,1,1,0,0,0,.23-.81Zm-8.15-.12L85.67,50.3l2.79,18.34.11.75-6.33-.09Z"/><polygon points="77.93 71.24 74.18 73.44 70.44 75.63 65.7 63.25 60.96 50.87 69.44 61.06 77.93 71.24"/><path d="M78.7,70.6l-1.12-1.35-15.85-19a1,1,0,0,0-1.71,1L68.6,73.65,69.5,76a1,1,0,0,0,.6.58,1,1,0,0,0,.34.06,1,1,0,0,0,.5-.14l7.5-4.39a1,1,0,0,0,.48-.69A1,1,0,0,0,78.7,70.6ZM76.41,71,71,74.17l-.68-1.77L64,56.14,75.48,69.86Z"/><polygon points="69 78.25 66.74 81.96 64.47 85.67 54.44 77.01 44.41 68.35 56.7 73.3 69 78.25"/><path d="M70,77.94a1,1,0,0,0-.58-.62L66.19,76,44.78,67.42a1,1,0,0,0-1,1.68L61.83,84.71l2,1.72a1,1,0,0,0,.65.24h.16a1,1,0,0,0,.7-.47l4.52-7.42A1,1,0,0,0,70,77.94Zm-7.49,4.67L49.62,71.52l15.31,6.17,2.6,1-3.3,5.4Z"/><polygon points="106.98 86.92 104.61 83.28 102.24 79.64 114.39 74.33 126.53 69.03 116.75 77.97 106.98 86.92"/><path d="M127.37,68.48a1,1,0,0,0-1.24-.37L106,76.91l-4.14,1.81a1,1,0,0,0-.44,1.47l4.74,7.28a1,1,0,0,0,.48.38.86.86,0,0,0,.23.06H107a.94.94,0,0,0,.64-.24l0,0,.2-.19.92-.83.8-.73,17.64-16.15A1,1,0,0,0,127.37,68.48ZM109.08,83.64l-1.91,1.75-3.45-5.31,3.36-1.47,14.34-6.26Z"/><polygon points="107.38 96.12 107.5 91.78 107.63 87.44 120.63 89.98 133.64 92.53 120.51 94.33 107.38 96.12"/><path d="M133.83,91.5,109.7,86.77l-.93-.18-1-.19a1.08,1.08,0,0,0-.31,0h0a1,1,0,0,0-.5.21l-.12.12a1,1,0,0,0-.25.64v.44l-.05,1.49L106.38,96a1,1,0,0,0,.33.77,1,1,0,0,0,.66.26h.14l1.77-.24,2.7-.37,21.8-3a1,1,0,0,0,.86-1A1,1,0,0,0,133.83,91.5Zm-24.14,3.29-1.28.18.1-3.45.08-2.88,1.32.26,17.63,3.45-16.73,2.29Z"/><path d="M63.77,89.19l-.07,2.22-.06,2.12-.12,4.34-1.13-.22L50.51,95.32,46,94.43,38.47,93c-.06-.1-.11-.2-.16-.3l6.3-.86,6-.83,10.43-1.42Z"/><path d="M64.44,88.45a1,1,0,0,0-.81-.25l-2.48.34-17,2.33-.95.13-5.34.73a1.09,1.09,0,0,1,.08.15l.4.79c0,.1.1.2.16.3l.58,1.13,6.36,1.24,1.16.23,16.25,3.18.5.1a.68.68,0,0,0,.2,0,1,1,0,0,0,.62-.22,1,1,0,0,0,.38-.75l.22-7.72,0-1A1,1,0,0,0,64.44,88.45Zm-1.78,4.32-.11,3.89L62,96.55,45.39,93.3l-1.16-.23L43.6,93l.53-.07,1-.13L61,90.57l1.72-.23Z"/><path d="M112,96.5l-2.7.37a39.77,39.77,0,0,1-1.4,4.6A33.71,33.71,0,0,0,103.61,95c-3.69-4.36-9.38-8.61-17.61-8.61A21.9,21.9,0,0,0,68,95.7a29,29,0,0,0-3.62,6.36,35.18,35.18,0,0,1-2.89-7.48,33.5,33.5,0,0,1,5.9-7,28,28,0,0,1,36.27-.94,30,30,0,0,1,3,2.73c.34.34.66.69,1,1s.66.75,1,1.14c.49.6,1,1.2,1.38,1.8s.64.89.92,1.32.41.62.6.93S111.8,96.19,112,96.5Z"/></g></g></svg>