<?xml version="1.0" encoding="UTF-8" standalone="no"?>
<svg
   xmlns:dc="http://purl.org/dc/elements/1.1/"
   xmlns:cc="http://creativecommons.org/ns#"
   xmlns:rdf="http://www.w3.org/1999/02/22-rdf-syntax-ns#"
   xmlns:svg="http://www.w3.org/2000/svg"
   xmlns="http://www.w3.org/2000/svg"
   xmlns:sodipodi="http://sodipodi.sourceforge.net/DTD/sodipodi-0.dtd"
   xmlns:inkscape="http://www.inkscape.org/namespaces/inkscape"
   inkscape:version="1.0 (4035a4f, 2020-05-01)"
   height="187.5"
   width="187.5"
   sodipodi:docname="work-life-flexibility-icon.svg"
   id="svg877"
   version="1.1"
   viewBox="0 0 187.50001 187.5">
  <metadata
     id="metadata881">
    <rdf:RDF>
      <cc:Work
         rdf:about="">
        <dc:format>image/svg+xml</dc:format>
        <dc:type
           rdf:resource="http://purl.org/dc/dcmitype/StillImage" />
        <dc:title>work-life-flexibility</dc:title>
      </cc:Work>
    </rdf:RDF>
  </metadata>
  <sodipodi:namedview
     inkscape:current-layer="svg877"
     inkscape:window-maximized="0"
     inkscape:window-y="23"
     inkscape:window-x="0"
     inkscape:cy="93.75"
     inkscape:cx="89.589996"
     inkscape:zoom="3.568"
     showgrid="false"
     id="namedview879"
     inkscape:window-height="1113"
     inkscape:window-width="1778"
     inkscape:pageshadow="2"
     inkscape:pageopacity="0"
     guidetolerance="10"
     gridtolerance="10"
     objecttolerance="10"
     borderopacity="1"
     bordercolor="#666666"
     pagecolor="#ffffff" />
  <defs
     id="defs859">
    <style
       id="style857">.cls-1{fill:#faaf40;}.cls-2{fill:#00b6cd;}</style>
  </defs>
  <title
     id="title861">work-life-flexibility</title>
  <g
     transform="translate(5.3251121)"
     data-name="Layer 2"
     id="Layer_2">
    <g
       data-name="Work/Life Flexibility"
       id="Work_Life_Flexibility">
      <path
         id="path863"
         d="m 121.65,169.75 v 12.47 H 51.59 v -12.47 a 10.09,10.09 0 0 1 10.09,-10.09 h 49.88 a 10.09,10.09 0 0 1 10.09,10.09 z"
         class="cls-1" />
      <circle
         id="circle865"
         transform="matrix(0.16,-0.99,0.99,0.16,58.57,99.59)"
         r="5.3400002"
         cy="15.38"
         cx="87.809998"
         class="cls-1" />
      <path
         id="path867"
         d="M 6.47,102.66 H 60.85 C 59.1,114.37 47.36,123.44 33.18,123.44 19,123.44 7.27,114.37 5.52,102.66 Z"
         class="cls-2" />
      <path
         id="path869"
         d="m 114.53,102.66 h 54.39 c -1.76,11.71 -13.49,20.78 -27.67,20.78 -14.18,0 -25.91,-9.07 -27.67,-20.78 z"
         class="cls-2" />
      <path
         id="path871"
         d="m 144.59,180.5 v 7 H 89 v -7 h 35.68 V 167.38 A 10.77,10.77 0 0 0 113.93,156.62 H 64.06 A 10.77,10.77 0 0 0 53.31,167.38 V 180.5 H 71.6 v 7 h -40 v -7 H 46.31 V 167.38 A 17.78,17.78 0 0 1 64.06,149.62 H 85.59 L 85.5,35 h 7 l 0.09,114.65 h 21.34 a 17.78,17.78 0 0 1 17.75,17.76 v 13.09 z" />
      <path
         id="path873"
         d="m 179.18,96.12 a 3.5,3.5 0 0 0 -3.5,-3.5 h -1.23 L 147.74,27.06 A 4.16,4.16 0 0 0 147.5,26.59 H 162 v -7 h -60.62 a 13,13 0 1 0 -22.4,0 H 17.15 v 7 H 33.44 A 4.16,4.16 0 0 0 33.2,27.06 L 6.49,92.62 h -3 A 3.5,3.5 0 0 0 0,96.12 3.4,3.4 0 0 0 0.18,97.23 H 0 c 0,17.36 16,31.49 35.56,31.49 19.56,0 35.56,-14.13 35.56,-31.49 h -0.18 a 3.4,3.4 0 0 0 0.18,-1.11 3.5,3.5 0 0 0 -3.5,-3.5 H 66.39 L 51.09,55.07 39.68,27.07 A 4.16,4.16 0 0 0 39.44,26.6 H 141.5 a 4.16,4.16 0 0 0 -0.24,0.47 l -26.71,65.55 h -3 a 3.5,3.5 0 0 0 -3.5,3.5 3.4,3.4 0 0 0 0.18,1.11 h -0.18 c 0,17.36 16,31.49 35.56,31.49 19.56,0 35.56,-14.13 35.56,-31.49 H 179 a 3.4,3.4 0 0 0 0.18,-1.11 z m -143.62,25.6 c -14.81,0 -27,-9.72 -28.42,-22.1 a 3.73,3.73 0 0 1 0,-0.47 3.39,3.39 0 0 0 1.74,0.47 H 64 C 62.58,112 50.37,121.72 35.56,121.72 Z M 58.83,92.62 H 14.05 l 22.39,-55 z M 90.18,19 a 6,6 0 1 1 6,-6 6,6 0 0 1 -6,6 z m 54.32,18.66 22.39,55 h -44.78 z m -0.88,84.06 c -14.81,0 -27,-9.72 -28.42,-22.1 a 3.73,3.73 0 0 1 0,-0.47 3.49,3.49 0 0 0 1.74,0.47 H 172 c -1.36,12.38 -13.57,22.1 -28.38,22.1 z" />
    </g>
  </g>
</svg>
