<?xml version="1.0" encoding="UTF-8"?>
<svg width="100pt" height="100pt" version="1.1" viewBox="0 0 100 100" xmlns="http://www.w3.org/2000/svg">
 <g>
  <path d="m50 0c-22.82 0-41.316 18.496-41.316 41.316 0 31.375 41.316 58.684 41.316 58.684s41.316-27.309 41.316-58.684c0-22.82-18.496-41.316-41.316-41.316zm0 73.426c-17.734 0-32.109-14.375-32.109-32.109s14.375-32.109 32.109-32.109 32.113 14.375 32.113 32.109-14.379 32.109-32.113 32.109z"/>
  <path d="m53.164 23.008l-14.375-0.027343v38.332h7.6641v-9.6133h6.707c7.9258 0 14.348-6.4219 14.348-14.344 0.003907-7.9258-6.4219-14.348-14.344-14.348zm4.7227 19.07c-1.2617 1.2617-2.9414 1.957-4.7266 1.957h-6.707v-13.375l6.6953 0.011719h0.015624c1.7852 0 3.4648 0.69531 4.7266 1.957 1.2617 1.2617 1.957 2.9375 1.957 4.7266-0.003906 1.7852-0.69531 3.4609-1.9609 4.7227z"/>
 </g>
</svg>
