<?xml version="1.0" encoding="UTF-8"?>
<svg width="100pt" height="100pt" version="1.1" viewBox="0 0 100 100" xmlns="http://www.w3.org/2000/svg">
 <path d="m31.25 70.832h3.543l-8.543 14.582h9.582l8.543-14.582h10.832l8.543 14.582h9.582l-8.543-14.582h3.9609c3.543 0 6.25-2.707 6.25-6.25v-41.664c0-4.168-2.293-8.332-25-8.332s-25 4.168-25 8.332v41.664c0 3.543 2.707 6.25 6.25 6.25zm35.418-4.1641c-2.293 0-4.168-1.875-4.168-4.168s1.875-4.168 4.168-4.168 4.168 1.875 4.168 4.168c-0.003907 2.293-1.8789 4.168-4.168 4.168zm-22.918-45.836h12.5c1.25 0 2.082 0.83203 2.082 2.082s-0.83203 2.082-2.082 2.082h-12.5c-1.25 0-2.082-0.83203-2.082-2.082 0-1.2461 0.83203-2.082 2.082-2.082zm-14.582 16.668c0-3.543 2.707-6.25 6.25-6.25h29.164c3.543 0 6.25 2.707 6.25 6.25v8.332c0 3.332-2.707 6.25-6.25 6.25h-29.164c-3.543 0-6.25-2.918-6.25-6.25zm4.1641 20.832c2.293 0 4.168 1.875 4.168 4.168s-1.875 4.168-4.168 4.168-4.168-1.875-4.168-4.168c0.003907-2.293 1.8789-4.168 4.168-4.168z"/>
</svg>
